SplineFontDB: 3.2
FontName: SeriousShannsBold
FullName: Serious Shanns Bold
FamilyName: Serious Shanns Bold
Weight: Bold
Copyright: https://github.com/kaBeech/serious-shanns/blob/main/LICENSE
Version: 6.0.0
ItalicAngle: 0
UnderlinePosition: 0
UnderlineWidth: 0
Ascent: 800
Descent: 200
InvalidEm: 0
sfntRevision: 0x00003333
LayerCount: 2
Layer: 0 0 "Back" 1
Layer: 1 0 "Fore" 0
XUID: [1021 45 630387186 1689187]
StyleMap: 0x0040
FSType: 4
OS2Version: 3
OS2_WeightWidthSlopeOnly: 0
OS2_UseTypoMetrics: 0
CreationTime: 1532631502
ModificationTime: 315532800
PfmFamily: 81
TTFWeight: 700
TTFWidth: 5
LineGap: 0
VLineGap: 0
Panose: 0 0 0 0 0 0 0 0 0 0
OS2TypoAscent: 613
OS2TypoAOffset: 0
OS2TypoDescent: -188
OS2TypoDOffset: 0
OS2TypoLinegap: 98
OS2WinAscent: 778
OS2WinAOffset: 0
OS2WinDescent: 308
OS2WinDOffset: 0
HheadAscent: 796
HheadAOffset: 0
HheadDescent: -317
HheadDOffset: 0
OS2SubXSize: 317
OS2SubYSize: 293
OS2SubXOff: 0
OS2SubYOff: 37
OS2SupXSize: 317
OS2SupYSize: 293
OS2SupXOff: 0
OS2SupYOff: 171
OS2StrikeYSize: 0
OS2StrikeYPos: 132
OS2CapHeight: 576
OS2XHeight: 485
OS2Vendor: 'NONE'
OS2CodePages: 00000001.00000000
OS2UnicodeRanges: 00000001.00000000.00000000.00000000
MarkAttachClasses: 1
DEI: 91125
LangName: 1033 "" "" "Normal" "" "" "Version 0.2.0"
Encoding: UnicodeBmp
Compacted: 1
UnicodeInterp: none
NameList: AGL For New Fonts
DisplaySize: -48
AntiAlias: 1
FitToEm: 0
WinInfo: 0 16 14
BeginPrivate: 9
BlueValues 32 [-39 -6 502 523 708 718 765 769]
OtherBlues 11 [-297 -287]
BlueScale 9 0.0291667
BlueShift 1 2
StdHW 5 [110]
StdVW 5 [128]
StemSnapH 5 [110]
StemSnapV 9 [128 134]
ForceBold 4 true
EndPrivate
BeginChars: 65537 105

StartChar: .notdef
Encoding: 65536 -1 0
Width: 590
GlyphClass: 1
Flags: W
HStem: -280 78<147 443> 683 78<147 443>
VStem: 69 78<-202 683> 443 78<-202 683>
LayerCount: 2
Fore
SplineSet
69 -280 m 1
 69 761 l 1
 521 761 l 1
 521 -280 l 1
 69 -280 l 1
147 683 m 1
 147 -202 l 1
 443 -202 l 1
 443 683 l 1
 147 683 l 1
EndSplineSet
Validated: 1
EndChar

StartChar: exclam
Encoding: 33 33 1
Width: 590
GlyphClass: 2
Flags: W
HStem: -37.002 179.001<237.867 354.872>
VStem: 201.002 187.036<-3.98231 106.918> 235 122.001<248.311 379.795> 243 115.001<294.405 784.434>
LayerCount: 2
Fore
SplineSet
365 738 m 0x90
 365 732 363.66796875 694.665039062 361.000976562 625.998046875 c 0
 359.000976562 557.331054688 358.000976562 502.331054688 358.000976562 460.998046875 c 0
 358.000976562 441.665039062 358.333984375 421.33203125 359.000976562 399.999023438 c 0
 359.66796875 379.33203125 360.000976562 361.33203125 360.000976562 345.999023438 c 0
 360.000976562 330.666015625 359.333984375 320.333007812 358.000976562 315 c 0x90
 357.333984375 309.666992188 357.000976562 302.666992188 357.000976562 294 c 0xa0
 357.000976562 285.333007812 357.333984375 277.333007812 358.000976562 270 c 0x90
 356.000976562 251.333007812 348.66796875 237 336.000976562 227 c 0
 324.66796875 217.666992188 311.000976562 212.666992188 295.000976562 212 c 2
 291.000976562 212 l 2
 274.333984375 212 260.666992188 218 250 230 c 0
 240 240 235 253.333007812 235 270 c 0xa0
 235 278 236.333007812 288.333007812 239 301 c 0
 241 314.333007812 242.333007812 324 243 330 c 0
 243.666992188 336 244 346.333007812 244 361 c 2
 244 402 l 2
 244 415.333007812 243.666992188 435.666015625 243 462.999023438 c 0
 241.666992188 494.999023438 241 525.666015625 241 554.999023438 c 2
 241 623.999023438 l 2
 241.666992188 640.666015625 242.333984375 661.333007812 243.000976562 686 c 0
 243.66796875 710.666992188 244.000976562 727 244.000976562 735 c 1
 244.66796875 756.333007812 251.000976562 773 263.000976562 785 c 0
 274.333984375 796.333007812 288.666992188 802 306 802 c 2
 309 802 l 2
 325 802 338.333007812 796.666992188 349 786 c 0
 359.666992188 775.333007812 365 759.333007812 365 738 c 0x90
287.000976562 -37.001953125 m 2
 263.66796875 -37.001953125 244.001953125 -29.0009765625 228.001953125 -13.0009765625 c 0
 210.001953125 5.666015625 201.001953125 27.9990234375 201.001953125 53.9990234375 c 0
 201.001953125 77.9990234375 211.001953125 98.33203125 231.001953125 114.999023438 c 0
 251.668945312 132.999023438 274.668945312 141.999023438 300.001953125 141.999023438 c 0
 325.334960938 141.999023438 346.334960938 133.999023438 363.001953125 117.999023438 c 0
 379.692382812 101.30859375 388.038085938 81.2177734375 388.038085938 57.7255859375 c 0xc0
 388.038085938 44.673828125 387.46875 17.443359375 364.000976562 -7.001953125 c 0
 347.333984375 -23.6689453125 325.333984375 -33.6689453125 298.000976562 -37.001953125 c 2
 287.000976562 -37.001953125 l 2
EndSplineSet
Validated: 1
EndChar

StartChar: quotedbl
Encoding: 34 34 2
Width: 590
GlyphClass: 2
Flags: W
VStem: 150 122.001<438.439 586.418> 153 127<442.249 783.227> 310.001 130<442.134 783.794>
LayerCount: 2
Fore
SplineSet
440.000976562 738 m 2x20
 440.000976562 719 l 2
 440.000976562 685 439.669921875 641.666992188 439.002929688 589 c 0
 437.669921875 533.666992188 435.669921875 495 433.002929688 473 c 0
 430.3359375 456.333007812 422.668945312 443.666015625 410.001953125 434.999023438 c 0
 399.334960938 426.999023438 387.66796875 422.999023438 375.000976562 422.999023438 c 0
 358.333984375 422.999023438 343.333984375 427.999023438 330.000976562 437.999023438 c 0
 317.333984375 447.33203125 311.000976562 459.999023438 311.000976562 475.999023438 c 2
 311.000976562 481.999023438 l 2
 312.333984375 504.666015625 313.000976562 531.999023438 313.000976562 563.999023438 c 0
 313.000976562 631.33203125 312.000976562 690.999023438 310.000976562 742.999023438 c 2
 310.000976562 745.999023438 l 2
 310.000976562 755.33203125 312.333984375 763.83203125 317.000976562 771.499023438 c 0
 321.66796875 779.166015625 328.334960938 784.666015625 337.001953125 787.999023438 c 0
 349.001953125 792.666015625 361.001953125 795.333007812 373.001953125 796 c 0
 383.001953125 796 391.168945312 795 397.501953125 793 c 0
 403.834960938 791 410.001953125 788.333007812 416.001953125 785 c 0
 423.334960938 781 429.16796875 774.833007812 433.500976562 766.5 c 0
 437.833984375 758.166992188 440.000976562 748.666992188 440.000976562 738 c 2x20
280 739 m 2x60
 280 697 l 2x60
 280 677.666992188 279.333984375 641.666992188 278.000976562 589 c 0
 276.66796875 533.666992188 274.66796875 495 272.000976562 473 c 0
 269.333984375 456.333007812 262.000976562 443.666015625 250.000976562 434.999023438 c 0
 239.333984375 426.999023438 227.666992188 422.999023438 215 422.999023438 c 0
 198.333007812 422.999023438 183 427.999023438 169 437.999023438 c 0
 156.333007812 447.33203125 150 459.999023438 150 475.999023438 c 0xa0
 150 477.999023438 150.333007812 480.33203125 151 482.999023438 c 0
 152.5 502.498046875 153.25 525.185546875 153.25 551.059570312 c 0
 153.25 559.684570312 153.166992188 568.665039062 153 577.999023438 c 2
 153 611.999023438 l 2
 152.333007812 679.33203125 151 724.33203125 149 746.999023438 c 0
 149 755.666015625 151.333007812 763.666015625 156 770.999023438 c 0
 161.333007812 778.999023438 168 784.666015625 176 787.999023438 c 0
 188 792.666015625 200.333007812 795.333007812 213 796 c 0
 223 796 231.166992188 795 237.5 793 c 0
 243.833007812 791 250.333007812 788 257 784 c 0
 263.666992188 780 269 774 273 766 c 0
 277 758 279.333007812 749 280 739 c 2x60
EndSplineSet
Validated: 1
EndChar

StartChar: numbersign
Encoding: 35 35 3
Width: 590
GlyphClass: 2
Flags: W
HStem: -13.999 20.9004G<121.333 129.333 347.998 355.998> 179.001 107.003<35.5032 95 243.003 315.999 461 528.621> 433.004 109<74.4746 146 292.999 362.003 506 551.404>
LayerCount: 2
Fore
SplineSet
362.002929688 433.00390625 m 1
 272.002929688 433.00390625 l 1
 243.002929688 286.00390625 l 1
 267.002929688 286.670898438 297.669921875 287.001953125 335.002929688 287.001953125 c 1
 344.3359375 334.334960938 353.3359375 383.00390625 362.002929688 433.00390625 c 1
146 431 m 1
 128 430.333007812 118.002929688 430.333007812 116.002929688 431 c 0
 98.0029296875 431 84.0029296875 435.334960938 74.0029296875 444.001953125 c 0
 62.669921875 454.001953125 56.669921875 466.668945312 56.0029296875 482.001953125 c 2
 56.0029296875 485.001953125 l 2
 56.0029296875 499.001953125 61.3330078125 511.334960938 72 522.001953125 c 0
 82.6669921875 532.668945312 98.0029296875 538.3359375 118.002929688 539.002929688 c 0
 129.3359375 539.669921875 145.668945312 540.002929688 167.001953125 540.002929688 c 1
 194.001953125 686.002929688 l 2
 200.001953125 706.669921875 210.334960938 720.669921875 225.001953125 728.002929688 c 0
 234.334960938 733.3359375 244.334960938 736.3359375 255.001953125 737.002929688 c 0
 259.668945312 737.002929688 264.33203125 736.3359375 268.999023438 735.002929688 c 0
 286.33203125 731.669921875 299.668945312 723.336914062 309.001953125 710.00390625 c 0
 315.668945312 700.670898438 319.001953125 689.670898438 319.001953125 677.00390625 c 0
 319.001953125 671.00390625 318.334960938 665.00390625 317.001953125 659.00390625 c 2
 292.999023438 542.00390625 l 1
 381.001953125 542.00390625 l 1
 406.001953125 678.00390625 l 2
 412.001953125 699.336914062 422.334960938 714.00390625 437.001953125 722.00390625 c 0
 446.334960938 727.336914062 456.334960938 730.00390625 467.001953125 730.00390625 c 0
 472.334960938 730.00390625 477.334960938 729.3359375 482.001953125 728.002929688 c 0
 499.334960938 724.669921875 512.66796875 716.337890625 522.000976562 703.004882812 c 0
 528.000976562 694.337890625 531.333007812 684.004882812 532 672.004882812 c 0
 532 665.337890625 531 658.337890625 529 651.004882812 c 0
 522.333007812 626.337890625 514.666992188 590.337890625 506 543.004882812 c 1
 524 542.337890625 539.333007812 537.004882812 552 527.004882812 c 0
 565.333007812 515.671875 572.333007812 503.004882812 573 489.004882812 c 0
 573 473.671875 568 460.671875 558 450.004882812 c 0
 548 439.337890625 533 433.670898438 513 433.00390625 c 2
 512 433.00390625 l 1
 486 433.00390625 l 1
 461 286.00390625 l 1
 488 286.00390625 l 2
 507.333007812 286.00390625 521 281.336914062 529 272.00390625 c 0
 537 262.670898438 541.666992188 251.00390625 543 237.00390625 c 2
 543 236.00390625 l 2
 543 220.00390625 539.333007812 207.336914062 532 198.00390625 c 0
 522.666992188 186.00390625 508 180.00390625 488 180.00390625 c 2
 443 180.00390625 l 1
 430.333007812 109.336914062 421 60.669921875 415 34.0029296875 c 0
 408.333007812 16.0029296875 396.666015625 2.669921875 379.999023438 -5.9970703125 c 0
 370.3984375 -11.3974609375 360.797851562 -14.0986328125 351.197265625 -14.0986328125 c 0
 347.998046875 -13.9990234375 l 0
 342.665039062 -13.9990234375 337.33203125 -13.33203125 331.999023438 -11.9990234375 c 0
 315.999023438 -8.666015625 303.999023438 1.6689453125 295.999023438 19.001953125 c 0
 291.999023438 28.3349609375 289.666015625 37.66796875 288.999023438 47.0009765625 c 0
 288.999023438 55.0009765625 290.33203125 63.333984375 292.999023438 72.0009765625 c 0
 298.999023438 96.0009765625 306.666015625 131.66796875 315.999023438 179.000976562 c 1
 268.999023438 179.000976562 l 2
 249.666015625 179.000976562 233.999023438 178.66796875 221.999023438 178.000976562 c 1
 203.999023438 88.0009765625 193.999023438 41.0009765625 191.999023438 37.0009765625 c 0
 185.999023438 20.333984375 174.666015625 7.0009765625 157.999023438 -2.9990234375 c 0
 145.999023438 -10.33203125 134.666015625 -13.9990234375 123.999023438 -13.9990234375 c 0
 118.666015625 -13.9990234375 113.333007812 -13.33203125 108 -11.9990234375 c 0
 92 -8.666015625 80 2.333984375 72 21.0009765625 c 0
 68 30.333984375 66 39.333984375 66 48.0009765625 c 0
 66 57.333984375 67.6669921875 66.6669921875 71 76 c 0
 75.6669921875 92 83.6669921875 125.666992188 95 177 c 1
 80 177 l 2
 60.6669921875 177 45.6669921875 181 35 189 c 0
 23 197.666992188 17 209.666992188 17 225 c 2
 17 228 l 2
 17 242 22 254.333007812 32 265 c 0
 42 275 57 280.666992188 77 282 c 0
 82.3330078125 282 89.3330078125 282.333007812 98 283 c 2
 117 283 l 1
 146 431 l 1
EndSplineSet
Validated: 1
EndChar

StartChar: dollar
Encoding: 36 36 4
Width: 590
GlyphClass: 2
Flags: W
HStem: -32.0029 106.998<174.387 233.001>
VStem: 44.001 118<485.148 581.759> 238.001 117.001<-87.3984 -32.0029 92.9971 317.997 456.997 612.974> 446.033 117.967<146.588 273.466>
LayerCount: 2
Fore
SplineSet
330.5 -130 m 0
 317.5 -140 302.333984375 -145.002929688 285.000976562 -145.002929688 c 2
 283.000976562 -145.002929688 l 2
 265.000976562 -145.002929688 251.333984375 -139.002929688 242.000976562 -127.002929688 c 0
 234.66796875 -118.3359375 231.000976562 -106.668945312 231.000976562 -92.001953125 c 0
 231.000976562 -88.6689453125 231.333984375 -82.8359375 232.000976562 -74.5029296875 c 0
 232.66796875 -66.169921875 233.000976562 -52.0029296875 233.000976562 -32.0029296875 c 1
 209.000976562 -31.3359375 186.000976562 -28.0029296875 164.000976562 -22.0029296875 c 0
 142.000976562 -16.0029296875 123.000976562 -8.0029296875 107.000976562 1.9970703125 c 0
 75.0009765625 21.9970703125 51.333984375 45.9970703125 36.0009765625 73.9970703125 c 0
 29.333984375 88.6640625 26.0009765625 101.997070312 26.0009765625 113.997070312 c 0
 26.0009765625 117.997070312 26.333984375 121.6640625 27.0009765625 124.997070312 c 0
 30.333984375 140.330078125 39.6669921875 151.330078125 55 157.997070312 c 0
 63.6669921875 161.997070312 70.333984375 164.497070312 75.0009765625 165.497070312 c 0
 79.66796875 166.497070312 83.66796875 166.997070312 87.0009765625 166.997070312 c 0
 90.333984375 166.997070312 93.333984375 166.6640625 96.0009765625 165.997070312 c 0
 104.000976562 165.330078125 111.333984375 162.163085938 118.000976562 156.49609375 c 0
 124.66796875 150.829101562 131.66796875 143.329101562 139.000976562 133.99609375 c 0
 152.333984375 115.329101562 167.333984375 100.662109375 184.000976562 89.9951171875 c 0
 198.000976562 81.328125 215.333984375 76.328125 236.000976562 74.9951171875 c 1
 237.333984375 174.328125 238.000976562 263.661132812 238.000976562 342.994140625 c 1
 236.000976562 342.994140625 232.333984375 343.661132812 227.000976562 344.994140625 c 0
 223.000976562 345.661132812 217.66796875 345.994140625 211.000976562 345.994140625 c 0
 183.66796875 348.661132812 158.66796875 355.328125 136.000976562 365.995117188 c 0
 115.333984375 376.662109375 98.333984375 389.329101562 85.0009765625 403.99609375 c 0
 71.66796875 418.663085938 61.5009765625 434.330078125 54.5009765625 450.997070312 c 0
 47.5009765625 467.6640625 44.0009765625 484.6640625 44.0009765625 501.997070312 c 0
 44.0009765625 526.6640625 47.833984375 550.331054688 55.5009765625 572.998046875 c 0
 63.16796875 595.665039062 75.0009765625 616.83203125 91.0009765625 636.499023438 c 0
 107.000976562 656.166015625 128.333984375 672.999023438 155.000976562 686.999023438 c 0
 180.333984375 699.666015625 208.666992188 708.999023438 240 714.999023438 c 1
 240.666992188 728.33203125 241 743.999023438 241 761.999023438 c 1
 241.666992188 793.999023438 252.666992188 814.33203125 274 822.999023438 c 0
 281.333007812 825.666015625 290.333007812 826.999023438 301 826.999023438 c 0
 323 826.999023438 339 819.999023438 349 805.999023438 c 0
 356.333007812 795.999023438 360.333007812 782.33203125 361 764.999023438 c 2
 361 723.999023438 l 1
 376.333007812 722.666015625 396.666015625 718.999023438 421.999023438 712.999023438 c 0
 447.33203125 707.666015625 466.665039062 702.666015625 479.998046875 697.999023438 c 0
 495.331054688 692.666015625 506.6640625 683.666015625 513.997070312 670.999023438 c 0
 519.330078125 661.666015625 521.997070312 651.999023438 521.997070312 641.999023438 c 0
 521.997070312 638.666015625 521.6640625 635.333007812 520.997070312 632 c 0
 519.6640625 622 515.831054688 613.833007812 509.498046875 607.5 c 0
 503.165039062 601.166992188 495.33203125 597.333984375 485.999023438 596.000976562 c 0
 481.33203125 595.333984375 477.33203125 595.000976562 473.999023438 595.000976562 c 0
 470.666015625 595.000976562 466.833007812 595.16796875 462.5 595.500976562 c 0
 458.166992188 595.833984375 452.666992188 597.000976562 446 599.000976562 c 0
 438.666992188 600.333984375 430 603.333984375 420 608.000976562 c 0
 400 616.66796875 379.666992188 621.66796875 359 623.000976562 c 1
 357.666992188 558.333984375 356.666992188 497.000976562 356 439.000976562 c 1
 386 434.333984375 413.666992188 427.333984375 439 418.000976562 c 0
 463 408.000976562 482.833007812 396.000976562 498.5 382.000976562 c 0
 514.166992188 368.000976562 527.166992188 352.000976562 537.5 334.000976562 c 0
 547.833007812 316.000976562 554.833007812 298.333984375 558.5 281.000976562 c 0
 562.166992188 263.66796875 564 245.66796875 564 227.000976562 c 0
 564 195.66796875 558.5 166.16796875 547.5 138.500976562 c 0
 536.5 110.833984375 521.166992188 86.6669921875 501.5 66 c 0
 481.833007812 45.3330078125 459 27.666015625 433 12.9990234375 c 0
 408.333007812 -0.333984375 381.333007812 -10.6669921875 352 -18 c 1
 352 -52 352.666992188 -75.3330078125 354 -88 c 0
 351.333007812 -106 343.5 -120 330.5 -130 c 0
187.000976562 584.997070312 m 0
 170.333984375 569.6640625 162.000976562 551.6640625 162.000976562 530.997070312 c 0
 162.000976562 512.997070312 169.66796875 497.330078125 185.000976562 483.997070312 c 0
 198.333984375 471.997070312 216.000976562 462.997070312 238.000976562 456.997070312 c 1
 238.66796875 498.330078125 239.000976562 551.330078125 239.000976562 615.997070312 c 1
 218.333984375 607.997070312 201.000976562 597.6640625 187.000976562 584.997070312 c 0
416.000976562 136.997070312 m 0
 436.021484375 157.017578125 446.033203125 179.85546875 446.033203125 205.506835938 c 0
 446.033203125 214.470703125 445.657226562 226.20703125 442.001953125 238.998046875 c 0
 439.334960938 248.331054688 434.334960938 258.6640625 427.001953125 269.997070312 c 0
 414.334960938 288.6640625 390.334960938 304.6640625 355.001953125 317.997070312 c 1
 354.334960938 241.330078125 353.834960938 191.330078125 353.501953125 167.997070312 c 0
 353.168945312 144.6640625 352.668945312 119.6640625 352.001953125 92.9970703125 c 1
 377.334960938 104.997070312 398.66796875 119.6640625 416.000976562 136.997070312 c 0
EndSplineSet
Validated: 1
EndChar

StartChar: percent
Encoding: 37 37 5
Width: 590
GlyphClass: 2
Flags: W
HStem: -40.0039 101.001<404.767 469.748> 158.997 98<407.893 475.969> 420 98.9961<116.254 182.684> 607.996 97.0039<118.146 187.393>
VStem: 11.998 96.001<530.28 596.587> 195.998 103.001<529.373 597.165> 290.998 104.999<72.8275 145.526> 482.999 94.999<71.4058 144.619>
LayerCount: 2
Fore
SplineSet
26.5 491.5 m 0xfd
 16.8330078125 511.833007812 11.998046875 533.333007812 11.998046875 556 c 2
 11.998046875 558 l 2
 11.998046875 600 24.498046875 635 49.498046875 663 c 0
 74.498046875 691 110.665039062 705 157.998046875 705 c 0
 198.665039062 705 232.33203125 693 258.999023438 669 c 0
 272.999023438 656.333007812 283.666015625 640 290.999023438 620 c 0
 296.33203125 604 298.999023438 586 298.999023438 566 c 0
 298.999023438 516 284.666015625 478.333007812 255.999023438 453 c 0
 230.666015625 431 192.999023438 420 142.999023438 420 c 0
 115.666015625 420 91.8330078125 426.833007812 71.5 440.5 c 0
 51.1669921875 454.166992188 36.1669921875 471.166992188 26.5 491.5 c 0xfd
59.998046875 -45 m 0
 51.3310546875 -41 44.3310546875 -36.00390625 38.998046875 -30.00390625 c 0
 31.6650390625 -22.00390625 27.998046875 -12.50390625 27.998046875 -1.50390625 c 0
 27.998046875 9.49609375 31.3310546875 21.3291015625 37.998046875 33.99609375 c 0
 51.998046875 61.99609375 85.3310546875 120.329101562 137.998046875 208.99609375 c 0
 251.331054688 387.663085938 307.998046875 477.330078125 307.998046875 477.997070312 c 0
 364.665039062 567.997070312 402.665039062 632.6640625 421.998046875 671.997070312 c 1
 421.998046875 664.6640625 422.331054688 664.997070312 422.998046875 672.997070312 c 1
 433.665039062 687.6640625 447.33203125 696.331054688 463.999023438 698.998046875 c 0
 468.666015625 700.331054688 473.333007812 700.998046875 478 700.998046875 c 0
 488.666992188 700.998046875 499 698.331054688 509 692.998046875 c 0
 524.333007812 685.665039062 533 675.33203125 535 661.999023438 c 0
 535.666992188 659.33203125 536 656.665039062 536 653.998046875 c 0
 536 642.665039062 531.666992188 630.33203125 523 616.999023438 c 0
 498.333007812 577.666015625 436.666015625 477.333007812 337.999023438 316 c 0
 237.33203125 154.666992188 170.665039062 45.6669921875 137.998046875 -11 c 0
 122.665039062 -37.6669921875 104.665039062 -51 83.998046875 -51 c 0
 76.6650390625 -51 68.6650390625 -49 59.998046875 -45 c 0
184.498046875 597.49609375 m 0
 176.831054688 604.49609375 164.998046875 607.99609375 148.998046875 607.99609375 c 0
 136.331054688 607.99609375 126.998046875 604.329101562 120.998046875 596.99609375 c 0
 113.665039062 588.329101562 109.33203125 575.99609375 107.999023438 559.99609375 c 2
 107.999023438 556.99609375 l 2
 107.999023438 544.99609375 110.666015625 535.99609375 115.999023438 529.99609375 c 0
 121.33203125 523.99609375 133.665039062 520.329101562 152.998046875 518.99609375 c 2
 153.998046875 518.99609375 l 2
 166.665039062 518.99609375 176.33203125 522.329101562 182.999023438 528.99609375 c 0
 190.33203125 536.99609375 194.665039062 547.663085938 195.998046875 560.99609375 c 2
 195.998046875 563.99609375 l 2
 195.998046875 579.329101562 192.165039062 590.49609375 184.498046875 597.49609375 c 0
306.498046875 34.49609375 m 0
 296.165039062 55.49609375 290.998046875 77.9970703125 290.998046875 101.997070312 c 2
 290.998046875 103.997070312 l 2xfb
 290.998046875 147.997070312 304.665039062 184.497070312 331.998046875 213.497070312 c 0
 359.331054688 242.497070312 397.331054688 256.997070312 445.998046875 256.997070312 c 0
 483.998046875 256.997070312 515.998046875 244.6640625 541.998046875 219.997070312 c 0
 555.331054688 207.330078125 564.998046875 189.997070312 570.998046875 167.997070312 c 0
 575.665039062 151.997070312 577.998046875 134.330078125 577.998046875 114.997070312 c 0
 577.998046875 108.330078125 577.665039062 101.663085938 576.998046875 94.99609375 c 0
 574.998046875 50.99609375 562.331054688 17.49609375 538.998046875 -5.50390625 c 0
 515.665039062 -28.50390625 480.665039062 -40.00390625 433.998046875 -40.00390625 c 2
 428.998046875 -40.00390625 l 2
 400.998046875 -39.3369140625 376.165039062 -32.00390625 354.498046875 -18.00390625 c 0
 332.831054688 -4.00390625 316.831054688 13.49609375 306.498046875 34.49609375 c 0
440.998046875 60.9970703125 m 0
 441.665039062 60.9970703125 442.666992188 60.6640625 444 59.9970703125 c 0
 456 59.9970703125 464.666992188 63.6640625 470 70.9970703125 c 0
 477.333007812 79.6640625 481.666015625 91.6640625 482.999023438 106.997070312 c 2
 482.999023438 108.997070312 l 2
 482.999023438 124.997070312 479.999023438 136.997070312 473.999023438 144.997070312 c 0
 467.33203125 154.330078125 455.665039062 158.997070312 438.998046875 158.997070312 c 0
 426.331054688 158.997070312 416.6640625 154.6640625 409.997070312 145.997070312 c 0
 401.997070312 135.997070312 397.330078125 122.6640625 395.997070312 105.997070312 c 2
 395.997070312 102.997070312 l 2
 395.997070312 89.6640625 398.830078125 79.4970703125 404.497070312 72.4970703125 c 0
 410.1640625 65.4970703125 422.331054688 61.6640625 440.998046875 60.9970703125 c 0
EndSplineSet
Validated: 1
EndChar

StartChar: ampersand
Encoding: 38 38 6
Width: 590
GlyphClass: 2
Flags: W
HStem: -53.9932 118<182.517 308.75> 633.005 103<238.922 328.087>
VStem: 23.998 124.001<100.286 273.189> 110.998 119.001<504.635 620.91> 344.999 108<508.115 617.229>
LayerCount: 2
Fore
SplineSet
552 11 m 0xd8
 552 7.6669921875 551.666015625 4.0048828125 550.999023438 0.0048828125 c 0
 548.33203125 -23.328125 540.33203125 -38.6611328125 526.999023438 -45.994140625 c 0
 514.33203125 -50.6611328125 506.33203125 -52.994140625 502.999023438 -52.994140625 c 2
 501.999023438 -52.994140625 l 2
 493.33203125 -52.994140625 483.999023438 -50.6611328125 473.999023438 -45.994140625 c 0
 456.666015625 -37.3271484375 441.999023438 -22.3271484375 429.999023438 -0.994140625 c 0
 427.999023438 2.3388671875 424.83203125 9.8388671875 420.499023438 21.505859375 c 0
 416.166015625 33.1728515625 412.999023438 41.6728515625 410.999023438 47.005859375 c 1
 395.999023438 27.505859375 l 2
 392.666015625 23.1728515625 386.999023438 16.83984375 378.999023438 8.5068359375 c 0
 370.999023438 0.173828125 364.166015625 -6.326171875 358.499023438 -10.9931640625 c 0
 352.83203125 -15.66015625 345.165039062 -21.16015625 335.498046875 -27.4931640625 c 0
 325.831054688 -33.826171875 316.331054688 -38.4931640625 306.998046875 -41.4931640625 c 0
 297.665039062 -44.4931640625 286.998046875 -47.326171875 274.998046875 -49.9931640625 c 0
 262.998046875 -52.66015625 250.665039062 -53.9931640625 237.998046875 -53.9931640625 c 0
 197.998046875 -53.9931640625 161.498046875 -43.826171875 128.498046875 -23.4931640625 c 0
 95.498046875 -3.16015625 69.8310546875 23.6728515625 51.498046875 57.005859375 c 0
 33.1650390625 90.3388671875 23.998046875 126.338867188 23.998046875 165.005859375 c 0xe8
 23.998046875 223.005859375 34.6650390625 272.672851562 55.998046875 314.005859375 c 0
 81.3310546875 362.672851562 120.998046875 400.672851562 174.998046875 428.005859375 c 1
 157.498046875 455.505859375 l 2
 150.498046875 466.505859375 145.165039062 475.005859375 141.498046875 481.005859375 c 0
 137.831054688 487.005859375 133.498046875 494.838867188 128.498046875 504.505859375 c 0
 123.498046875 514.172851562 119.998046875 522.672851562 117.998046875 530.005859375 c 0
 113.331054688 550.005859375 110.998046875 569.672851562 110.998046875 589.005859375 c 0
 110.998046875 601.672851562 112.665039062 614.505859375 115.998046875 627.505859375 c 0
 119.331054688 640.505859375 125.331054688 653.672851562 133.998046875 667.005859375 c 0
 142.665039062 680.338867188 153.33203125 692.171875 165.999023438 702.504882812 c 0
 178.666015625 712.837890625 194.999023438 721.004882812 214.999023438 727.004882812 c 0
 234.999023438 733.004882812 257.33203125 736.004882812 281.999023438 736.004882812 c 0
 302.666015625 736.004882812 322.999023438 732.837890625 342.999023438 726.504882812 c 0
 362.999023438 720.171875 381.33203125 710.671875 397.999023438 698.004882812 c 0
 414.666015625 685.337890625 427.999023438 668.670898438 437.999023438 648.00390625 c 0
 447.999023438 627.336914062 452.999023438 604.336914062 452.999023438 579.00390625 c 0
 452.999023438 556.336914062 449.999023438 535.169921875 443.999023438 515.502929688 c 0
 437.999023438 495.8359375 430.499023438 479.3359375 421.499023438 466.002929688 c 0
 412.499023438 452.669921875 401.33203125 440.169921875 387.999023438 428.502929688 c 0
 374.666015625 416.8359375 363.333007812 408.002929688 354 402.002929688 c 0
 344.666992188 396.002929688 335 390.669921875 325 386.002929688 c 1
 337 366.002929688 353.833007812 340.8359375 375.5 310.502929688 c 0
 397.166992188 280.169921875 413 257.669921875 423 243.002929688 c 1
 425 247.002929688 427.833007812 253.169921875 431.5 261.502929688 c 0
 435.166992188 269.8359375 438.833984375 278.002929688 442.500976562 286.002929688 c 0
 446.16796875 294.002929688 449.334960938 300.002929688 452.001953125 304.002929688 c 0
 465.334960938 324.002929688 478.66796875 336.3359375 492.000976562 341.002929688 c 0
 497.333984375 343.002929688 503.000976562 344.002929688 509.000976562 344.002929688 c 0
 518.333984375 344.002929688 527.666992188 341.669921875 537 337.002929688 c 0
 552.333007812 329.669921875 561.333007812 317.002929688 564 299.002929688 c 0
 564.666992188 295.002929688 565.333984375 290.669921875 566.000976562 286.002929688 c 0
 566.000976562 272.002929688 562.000976562 257.3359375 554.000976562 242.002929688 c 0
 550.66796875 235.3359375 541.000976562 222.168945312 525.000976562 202.501953125 c 0
 509.000976562 182.834960938 496.000976562 165.66796875 486.000976562 151.000976562 c 1
 493.333984375 139.000976562 503.166992188 122.16796875 515.5 100.500976562 c 0
 527.833007812 78.833984375 535.333007812 65.6669921875 538 61 c 0
 547.333007812 45 552 28.3330078125 552 11 c 0xd8
229.999023438 572.004882812 m 0xd8
 229.999023438 557.337890625 233.999023438 541.338867188 241.999023438 524.005859375 c 0
 249.999023438 506.672851562 258.999023438 491.672851562 268.999023438 479.005859375 c 1
 279.666015625 482.338867188 289.166015625 486.171875 297.499023438 490.504882812 c 0
 305.83203125 494.837890625 313.999023438 500.337890625 321.999023438 507.004882812 c 0
 329.999023438 513.671875 335.83203125 522.004882812 339.499023438 532.004882812 c 0
 343.166015625 542.004882812 344.999023438 554.337890625 344.999023438 569.004882812 c 0
 344.999023438 589.671875 338.666015625 605.504882812 325.999023438 616.504882812 c 0
 313.33203125 627.504882812 297.83203125 633.004882812 279.499023438 633.004882812 c 0
 261.166015625 633.004882812 247.999023438 627.337890625 239.999023438 616.004882812 c 0
 233.33203125 606.004882812 229.999023438 591.337890625 229.999023438 572.004882812 c 0xd8
147.999023438 174.005859375 m 0xe8
 147.999023438 142.005859375 156.50390625 115.673828125 173.50390625 95.0068359375 c 0
 190.50390625 74.33984375 212.336914062 64.0068359375 239.00390625 64.0068359375 c 0
 253.670898438 64.0068359375 269.00390625 66.673828125 285.00390625 72.0068359375 c 0
 290.336914062 74.0068359375 296.169921875 77.173828125 302.502929688 81.5068359375 c 0
 308.8359375 85.83984375 313.668945312 89.33984375 317.001953125 92.0068359375 c 0
 320.334960938 94.673828125 324.66796875 99.0068359375 330.000976562 105.006835938 c 0
 335.333984375 111.006835938 339.000976562 115.173828125 341.000976562 117.506835938 c 0
 343.000976562 119.83984375 345.66796875 123.506835938 349.000976562 128.506835938 c 0
 352.333984375 133.506835938 354.666992188 136.673828125 356 138.006835938 c 0
 346.666992188 158.006835938 337.666992188 176.006835938 329 192.006835938 c 0
 321 207.33984375 306 230.672851562 284 262.005859375 c 0
 262 293.338867188 245.666992188 317.338867188 235 334.005859375 c 1
 220.333007812 326.672851562 207.666015625 318.005859375 196.999023438 308.005859375 c 0
 184.33203125 296.005859375 174.499023438 283.005859375 167.499023438 269.005859375 c 0
 160.499023438 255.005859375 155.499023438 240.338867188 152.499023438 225.005859375 c 0
 149.499023438 209.672851562 147.999023438 192.672851562 147.999023438 174.005859375 c 0xe8
EndSplineSet
Validated: 1
EndChar

StartChar: quotesingle
Encoding: 39 39 7
Width: 590
GlyphClass: 2
Flags: W
VStem: 229.999 130.001<452.314 772.656> 229.999 122<449.441 601.295>
LayerCount: 2
Fore
SplineSet
360 728 m 2x80
 360 687.000976562 l 2x80
 360 669.000976562 359.665039062 641.333984375 358.998046875 604.000976562 c 0
 357.665039062 546.000976562 355.33203125 506.000976562 351.999023438 484.000976562 c 0x40
 349.33203125 466.66796875 341.999023438 453.66796875 329.999023438 445.000976562 c 0
 319.33203125 437.66796875 307.665039062 434.000976562 294.998046875 434.000976562 c 0
 277.665039062 434.000976562 262.33203125 439.000976562 248.999023438 449.000976562 c 0
 236.33203125 458.333984375 229.999023438 471.333984375 229.999023438 488.000976562 c 0
 229.999023438 490.000976562 230.33203125 491.66796875 230.999023438 493.000976562 c 0
 232.33203125 519.66796875 232.999023438 549.66796875 232.999023438 583.000976562 c 0
 232.999023438 630.333984375 231.999023438 680.000976562 229.999023438 732.000976562 c 2
 229.999023438 735.000976562 l 2
 229.999023438 744.333984375 231.999023438 752.666992188 235.999023438 760 c 0
 240.666015625 768 247.333007812 774 256 778 c 0
 268 782.666992188 280.333007812 785 293 785 c 0
 303 785 311 784 317 782 c 0
 323.666992188 780 330 777.333007812 336 774 c 0
 343.333007812 770 349 763.666992188 353 755 c 0
 357 747 359.333007812 738 360 728 c 2x80
EndSplineSet
Validated: 1
EndChar

StartChar: parenleft
Encoding: 40 40 8
Width: 590
GlyphClass: 2
Flags: W
HStem: -144 109<363.684 441.529> 721 105.053<349.655 439.498>
VStem: 132.998 122.75<154.284 548.553>
LayerCount: 2
Fore
SplineSet
456 -93 m 0
 456 -107.666992188 450.330078125 -119.666992188 438.997070312 -129 c 0
 427.6640625 -138.333007812 415.6640625 -143.333007812 402.997070312 -144 c 0
 354.997070312 -144 311.997070312 -127 273.997070312 -93 c 0
 235.997070312 -59 205.330078125 -13 181.997070312 45 c 0
 158.6640625 103 143.331054688 169.666992188 135.998046875 245 c 0
 133.998046875 265.666992188 132.998046875 291.333984375 132.998046875 322.000976562 c 0
 132.998046875 352.66796875 134.998046875 391.000976562 138.998046875 437.000976562 c 0
 145.665039062 516.333984375 158.998046875 581.666992188 178.998046875 633 c 0
 187.665039062 656.333007812 199.33203125 679 213.999023438 701 c 0
 228.666015625 723 245.999023438 743.666992188 265.999023438 763 c 0
 285.33203125 781.666992188 306.999023438 797 330.999023438 809 c 0
 354.3671875 820.368164062 377.435546875 826.052734375 400.205078125 826.052734375 c 0
 401.470703125 826.052734375 402.735351562 826.03515625 403.999023438 826 c 0
 422.666015625 826 436.666015625 820.333007812 445.999023438 809 c 0
 453.33203125 800.333007812 456.999023438 788.333007812 456.999023438 773 c 0
 456.999023438 755 451.33203125 741.666992188 439.999023438 733 c 0
 429.33203125 725 416.665039062 721 401.998046875 721 c 0
 387.331054688 721 373.331054688 716.333007812 359.998046875 707 c 0
 346.665039062 698.333007812 334.665039062 686 323.998046875 670 c 0
 302.665039062 638 286.665039062 598 275.998046875 550 c 0
 267.331054688 514.666992188 261.331054688 467.666992188 257.998046875 409 c 0
 256.498046875 386 255.748046875 364.875976562 255.748046875 345.626953125 c 0
 255.748046875 339.208984375 255.831054688 333.000976562 255.998046875 327 c 0
 255.998046875 303 256.665039062 281.666992188 257.998046875 263 c 0
 261.331054688 223.666992188 268.331054688 185 278.998046875 147 c 0
 289.665039062 109 302.33203125 77 316.999023438 51 c 0
 330.999023438 24.3330078125 345.999023438 3 361.999023438 -13 c 0
 376.666015625 -27.6669921875 390.333007812 -35 403 -35 c 0
 419 -35 432 -39.3330078125 442 -48 c 0
 451.333007812 -56.6669921875 456 -71.6669921875 456 -93 c 0
EndSplineSet
Validated: 1
EndChar

StartChar: parenright
Encoding: 41 41 9
Width: 590
GlyphClass: 2
Flags: W
HStem: -144 109<148.412 226.234> 721.001 105.1<150.501 240.734>
VStem: 334.251 122.748<154.284 545.5>
LayerCount: 2
Fore
SplineSet
187 -144 m 0
 174.333007812 -144 162.333984375 -138.999023438 151.000976562 -128.999023438 c 0
 139.66796875 -119.666015625 134.000976562 -107.666015625 134.000976562 -92.9990234375 c 0
 134.000976562 -71.666015625 138.66796875 -56.666015625 148.000976562 -47.9990234375 c 0
 156.711914062 -39.2880859375 168.616210938 -34.93359375 183.71484375 -34.93359375 c 0
 184.793945312 -34.93359375 185.889648438 -34.955078125 187.000976562 -35 c 0
 199.000976562 -35 212.333984375 -27.6669921875 227.000976562 -13 c 0
 243.66796875 3 259.000976562 24.3330078125 273.000976562 51 c 0
 287.000976562 77.6669921875 299.66796875 109.666992188 311.000976562 147 c 0
 321.66796875 185 328.66796875 223.666992188 332.000976562 263 c 0
 333.500976562 278 334.250976562 294.124023438 334.250976562 311.373046875 c 0
 334.250976562 317.124023438 334.16796875 322.999023438 334.000976562 329 c 0
 334.000976562 352.333007812 333.333984375 379 332.000976562 409 c 0
 328.66796875 467.666992188 322.66796875 514.666992188 314.000976562 550 c 0
 303.333984375 597.333007812 287.333984375 637.333007812 266.000976562 670 c 0
 256.000976562 686 244.000976562 698.333007812 230.000976562 707 c 0
 216.66796875 715.666992188 202.66796875 720.333984375 188.000976562 721.000976562 c 0
 173.333984375 721.000976562 160.666992188 725.000976562 150 733.000976562 c 0
 138.666992188 741.66796875 133 755.000976562 133 773.000976562 c 0
 133 783.000976562 134.666992188 792.000976562 138 800.000976562 c 0
 141.333007812 807.333984375 146.333007812 813.333984375 153 818.000976562 c 0
 161.399414062 823.400390625 171.149414062 826.100585938 182.249023438 826.100585938 c 0
 183.482421875 826.100585938 184.733398438 826.067382812 186 826.000976562 c 0
 210.666992188 826.000976562 235 820.333984375 259 809.000976562 c 0
 283 797.000976562 304.666992188 781.66796875 324 763.000976562 c 0
 343.333007812 744.333984375 360.333007812 723.666992188 375 701 c 0
 389.666992188 679 401.666992188 656.333007812 411 633 c 0
 430.333007812 581.666992188 443.666015625 516.333984375 450.999023438 437.000976562 c 0
 454.999023438 391.000976562 456.999023438 352.66796875 456.999023438 322.000976562 c 0
 456.999023438 291.333984375 455.999023438 265.666992188 453.999023438 245 c 0
 446.666015625 169.666992188 431.333007812 103 408 45 c 0
 384.666992188 -13 353.666992188 -59 315 -93 c 0
 277.666992188 -127 235 -144 187 -144 c 0
EndSplineSet
Validated: 1
EndChar

StartChar: asterisk
Encoding: 42 42 10
Width: 590
GlyphClass: 2
Flags: W
HStem: 281.004 127.999<48.5315 191.973> 289.002 119.001<389.145 544.84> 294.001 101.002<388 503.872>
LayerCount: 2
Fore
SplineSet
208 102 m 2x20
 197.997070312 102 l 2
 193.330078125 102 187.497070312 102.670898438 180.497070312 104.00390625 c 0
 173.497070312 105.336914062 166.6640625 108 159.997070312 112 c 0
 153.330078125 116 147.330078125 122.00390625 141.997070312 130.00390625 c 0
 136.6640625 138.00390625 132.997070312 147.336914062 130.997070312 158.00390625 c 2
 130.997070312 165.00390625 l 2
 130.997070312 175.00390625 133.6640625 185.333984375 138.997070312 196.000976562 c 2
 193.997070312 285.00390625 l 1
 150.6640625 282.336914062 117.6640625 281.00390625 94.9970703125 281.00390625 c 0
 74.9970703125 281.00390625 59.330078125 287.670898438 47.9970703125 301.00390625 c 0
 37.9970703125 313.00390625 32.6640625 327.00390625 31.9970703125 343.00390625 c 2
 31.9970703125 346.00390625 l 2
 31.9970703125 359.336914062 35.6640625 372.669921875 42.9970703125 386.002929688 c 0
 47.6640625 394.002929688 54.6640625 400.002929688 63.9970703125 404.002929688 c 0
 71.330078125 407.3359375 79.330078125 409.002929688 87.9970703125 409.002929688 c 2
 92.9970703125 409.002929688 l 2x80
 119.6640625 407.002929688 157.331054688 404.3359375 205.998046875 401.002929688 c 1
 182.665039062 439.669921875 162.998046875 470.002929688 146.998046875 492.002929688 c 0
 137.665039062 507.3359375 132.998046875 522.3359375 132.998046875 537.002929688 c 0
 132.998046875 539.669921875 133.331054688 542.336914062 133.998046875 545.00390625 c 0
 135.998046875 563.670898438 143.998046875 576.670898438 157.998046875 584.00390625 c 0
 166.665039062 589.336914062 176.498046875 592.00390625 187.498046875 592.00390625 c 0
 198.498046875 592.00390625 209.665039062 588.669921875 220.998046875 582.002929688 c 0
 232.331054688 575.3359375 241.331054688 565.669921875 247.998046875 553.002929688 c 0
 254.665039062 539.002929688 270.665039062 507.669921875 295.998046875 459.002929688 c 1
 315.331054688 493.669921875 331.331054688 524.669921875 343.998046875 552.002929688 c 0
 349.998046875 564.669921875 358.331054688 574.169921875 368.998046875 580.502929688 c 0
 379.665039062 586.8359375 389.998046875 590.002929688 399.998046875 590.002929688 c 0
 410.665039062 590.002929688 420.665039062 587.3359375 429.998046875 582.002929688 c 0
 438.665039062 577.3359375 445.665039062 570.502929688 450.998046875 561.502929688 c 0
 456.331054688 552.502929688 458.998046875 542.002929688 458.998046875 530.002929688 c 0
 458.998046875 516.669921875 454.998046875 504.336914062 446.998046875 493.00390625 c 0
 428.998046875 466.336914062 408.998046875 433.669921875 386.998046875 395.002929688 c 1x20
 432.998046875 395.669921875 466.331054688 399.002929688 486.998046875 405.002929688 c 0
 495.665039062 407.002929688 501.33203125 408.002929688 503.999023438 408.002929688 c 0x40
 516.666015625 408.002929688 527.666015625 403.669921875 536.999023438 395.002929688 c 0x20
 550.33203125 382.3359375 557.33203125 368.668945312 557.999023438 354.001953125 c 0
 557.999023438 339.334960938 554.33203125 325.334960938 546.999023438 312.001953125 c 0
 542.33203125 304.001953125 535.999023438 297.668945312 527.999023438 293.001953125 c 0
 521.999023438 290.334960938 515.666015625 289.001953125 508.999023438 289.001953125 c 0x40
 505.666015625 289.001953125 502.333007812 289.334960938 499 290.001953125 c 0
 485.112304688 292.779296875 462.430664062 294.16796875 430.954101562 294.16796875 c 0
 424.654296875 294.16796875 418.00390625 294.112304688 411 294.000976562 c 2
 388 294.000976562 l 1
 445 196.000976562 l 2
 452.333007812 181.333984375 456 168.000976562 456 156.000976562 c 0
 456 153.333984375 455.666992188 150.666992188 455 148 c 0
 453 132 446 120.666992188 434 114 c 0
 424.666992188 108 413 105 399 105 c 0
 388.333007812 105 377.666015625 107.333007812 366.999023438 112 c 0
 353.666015625 118 344.666015625 128 339.999023438 142 c 0
 332.666015625 164 319.333007812 194.666992188 300 234 c 1
 275.333007812 184.666992188 259.666015625 151.666992188 252.999023438 135 c 0
 249.666015625 124.333007812 243.833007812 116.333007812 235.5 111 c 0
 227.166992188 105.666992188 218 102.666992188 208 102 c 2x20
EndSplineSet
Validated: 1
EndChar

StartChar: plus
Encoding: 43 43 11
Width: 590
GlyphClass: 2
Flags: W
HStem: 346 105.998<107.471 240.999 345.999 484.62>
VStem: 240.999 105<209.378 344.998 452.998 593.588>
LayerCount: 2
Fore
SplineSet
345 347 m 1
 345.999023438 249.999023438 l 2
 345.999023438 230.666015625 341.33203125 216.999023438 331.999023438 208.999023438 c 0
 322.666015625 200.33203125 310.999023438 195.665039062 296.999023438 194.998046875 c 2
 295.999023438 194.998046875 l 2
 279.999023438 194.998046875 267.666015625 198.665039062 258.999023438 205.998046875 c 0
 246.999023438 215.331054688 240.999023438 229.998046875 240.999023438 249.998046875 c 2
 240.999023438 344.998046875 l 1
 151.999023438 343.998046875 l 2
 131.999023438 343.998046875 116.999023438 349.331054688 106.999023438 359.998046875 c 0
 96.33203125 370.665039062 90.9990234375 383.665039062 90.9990234375 398.998046875 c 2
 90.9990234375 401.998046875 l 2
 90.9990234375 415.998046875 95.666015625 428.331054688 104.999023438 438.998046875 c 0
 114.999023438 449.665039062 129.33203125 454.998046875 147.999023438 454.998046875 c 0
 149.33203125 454.998046875 159.999023438 454.665039062 179.999023438 453.998046875 c 0
 199.999023438 453.331054688 220.33203125 452.998046875 240.999023438 452.998046875 c 1
 240.999023438 492.331054688 239.999023438 525.6640625 237.999023438 552.997070312 c 0
 237.999023438 571.6640625 244.33203125 585.331054688 256.999023438 593.998046875 c 0
 266.33203125 600.665039062 278.33203125 603.998046875 292.999023438 603.998046875 c 2
 296.999023438 603.998046875 l 2
 310.999023438 603.998046875 322.999023438 600.665039062 332.999023438 593.998046875 c 0
 344.33203125 585.998046875 349.999023438 572.998046875 349.999023438 554.998046875 c 2
 349.999023438 548.998046875 l 2
 347.999023438 514.998046875 346.666015625 482.665039062 345.999023438 451.998046875 c 1
 443.999023438 451.998046875 l 2
 463.33203125 451.998046875 476.999023438 447.331054688 484.999023438 437.998046875 c 0
 492.999023438 428.665039062 497.666015625 416.998046875 498.999023438 402.998046875 c 2
 498.999023438 401.998046875 l 2
 498.999023438 394.665039062 498.33203125 388.33203125 496.999023438 382.999023438 c 0
 495.666015625 376.999023438 492.999023438 370.999023438 488.999023438 364.999023438 c 0
 484.33203125 357.666015625 477.999023438 352.333007812 469.999023438 349 c 0
 463.999023438 347 457.33203125 346 449.999023438 346 c 2
 442.999023438 346 l 2
 432.999023438 347.333007812 418.666015625 348 399.999023438 348 c 0
 380.666015625 348 362.333007812 347.666992188 345 347 c 1
EndSplineSet
Validated: 1
EndChar

StartChar: comma
Encoding: 44 44 12
Width: 590
GlyphClass: 2
Flags: W
VStem: 180.003 229.999
LayerCount: 2
Fore
SplineSet
266 -223 m 0
 255.333007812 -227 246.001953125 -228.999023438 238.001953125 -228.999023438 c 0
 230.001953125 -228.999023438 223.001953125 -227.666015625 217.001953125 -224.999023438 c 0
 208.334960938 -222.33203125 200.334960938 -217.33203125 193.001953125 -209.999023438 c 0
 185.668945312 -202.666015625 181.3359375 -193.333007812 180.002929688 -182 c 2
 180.002929688 -176 l 2
 180.002929688 -166 183.3359375 -156 190.002929688 -146 c 0
 203.3359375 -127.333007812 222.002929688 -84.3330078125 246.002929688 -17 c 0
 270.002929688 49 285.002929688 96 291.002929688 124 c 0
 293.669921875 136 299.669921875 145.333007812 309.002929688 152 c 0
 318.3359375 159.333007812 328.668945312 163 340.001953125 163 c 2
 342.001953125 163 l 2
 350.001953125 163 358.334960938 162.333007812 367.001953125 161 c 0
 380.334960938 157 391.334960938 149 400.001953125 137 c 0
 406.668945312 127.666992188 410.001953125 117.333984375 410.001953125 106.000976562 c 0
 410.001953125 101.333984375 409.668945312 97.333984375 409.001953125 94.0009765625 c 0
 402.334960938 61.333984375 387.66796875 10.6669921875 365.000976562 -58 c 0
 342.333984375 -127.333007812 325.000976562 -170.333007812 313.000976562 -187 c 0
 300.333984375 -204.333007812 284.666992188 -216.333007812 266 -223 c 0
EndSplineSet
Validated: 1
EndChar

StartChar: hyphen
Encoding: 45 45 13
Width: 590
GlyphClass: 2
Flags: W
HStem: 230.001 111.999<146.44 445.172> 239.002 106<308.731 447.621>
LayerCount: 2
Fore
SplineSet
182 342 m 0x80
 220 342 265 342.333984375 317 343.000976562 c 0
 369.666992188 343.66796875 399.666992188 344.334960938 407 345.001953125 c 0
 426.333007812 345.001953125 440 340.334960938 448 331.001953125 c 0
 456 321.668945312 460.666992188 310.001953125 462 296.001953125 c 2
 462 295.001953125 l 2
 462 279.001953125 458.333007812 266.668945312 451 258.001953125 c 0
 441.666992188 246.001953125 427 239.668945312 407 239.001953125 c 0x40
 398.333007812 239.001953125 364.666015625 237.668945312 305.999023438 235.001953125 c 0
 247.33203125 232.334960938 206.33203125 230.66796875 182.999023438 230.000976562 c 0
 167.666015625 230.000976562 155.333007812 234.000976562 146 242.000976562 c 0
 134 251.333984375 128 265.666992188 128 285 c 2
 128 290 l 2
 128 308.666992188 134 322.666992188 146 332 c 0
 154.666992188 338.666992188 166.666992188 342 182 342 c 0x80
EndSplineSet
Validated: 1
EndChar

StartChar: period
Encoding: 46 46 14
Width: 590
GlyphClass: 2
Flags: W
HStem: -26 178.037<236.663 354.871>
VStem: 201.001 187.036<6.96988 117.608>
LayerCount: 2
Fore
SplineSet
287 -26 m 2
 263.666992188 -26 244.000976562 -18 228.000976562 -2 c 0
 210.000976562 16.6669921875 201.000976562 38.333984375 201.000976562 63.0009765625 c 0
 201.000976562 87.66796875 211.000976562 108.66796875 231.000976562 126.000976562 c 0
 250.9296875 143.357421875 273.02734375 152.037109375 297.294921875 152.037109375 c 0
 298.193359375 152.037109375 299.095703125 152.024414062 300.000976562 152.000976562 c 0
 325.333984375 152.000976562 346.333984375 144.000976562 363.000976562 128.000976562 c 0
 379.69140625 111.310546875 388.037109375 91.5283203125 388.037109375 68.6552734375 c 0
 388.037109375 55.5234375 387.401367188 28.376953125 364 4 c 0
 347.333007812 -12.6669921875 325.333007812 -22.6669921875 298 -26 c 2
 287 -26 l 2
EndSplineSet
Validated: 1
EndChar

StartChar: slash
Encoding: 47 47 15
Width: 590
GlyphClass: 2
Flags: W
HStem: 746.004 20G<487.667 498.333>
LayerCount: 2
Fore
SplineSet
111 -67 m 0
 101.666992188 -71.6669921875 92.33203125 -73.9970703125 82.9990234375 -73.9970703125 c 0
 73.666015625 -73.9970703125 64.9990234375 -71.330078125 56.9990234375 -65.9970703125 c 0
 43.666015625 -57.9970703125 35.666015625 -42.6640625 32.9990234375 -19.9970703125 c 0
 32.33203125 -16.6640625 32.33203125 -12.9970703125 32.9990234375 -8.9970703125 c 0
 32.9990234375 9.0029296875 37.666015625 25.669921875 46.9990234375 41.0029296875 c 0
 144.33203125 201.002929688 227.665039062 343.002929688 296.998046875 467.002929688 c 1
 340.331054688 543.002929688 386.331054688 629.669921875 434.998046875 727.002929688 c 0
 441.665039062 739.669921875 450.33203125 749.002929688 460.999023438 755.002929688 c 0
 471.666015625 761.669921875 482.333007812 765.336914062 493 766.00390625 c 0
 503.666992188 766.00390625 514.333984375 763.670898438 525.000976562 759.00390625 c 0
 540.333984375 751.00390625 550.333984375 739.00390625 555.000976562 723.00390625 c 0
 556.333984375 718.336914062 557.000976562 713.669921875 557.000976562 709.002929688 c 0
 557.000976562 697.669921875 553.66796875 685.002929688 547.000976562 671.002929688 c 0
 529.66796875 636.3359375 481.000976562 552.668945312 401.000976562 420.001953125 c 0
 321.000976562 287.334960938 272.333984375 204.66796875 255.000976562 172.000976562 c 0
 244.333984375 151.333984375 227.000976562 116.333984375 203.000976562 67.0009765625 c 0
 179.000976562 17.66796875 164.000976562 -12.33203125 158.000976562 -22.9990234375 c 0
 145.333984375 -43.666015625 129.666992188 -58.3330078125 111 -67 c 0
EndSplineSet
Validated: 1
EndChar

StartChar: zero
Encoding: 48 48 16
Width: 590
GlyphClass: 2
Flags: W
HStem: -24.001 107.996<205.582 365.455> 611.995 106.005<221.514 372.24>
VStem: 36.001 121<228.996 530.163> 434.001 115.999<165.933 399.325 400.71 457.995>
LayerCount: 2
Fore
SplineSet
434.000976562 457.995117188 m 1
 361.333984375 330.662109375 277.668945312 221.995117188 183.001953125 131.995117188 c 1
 201.001953125 100.662109375 230.333984375 84.662109375 271.000976562 83.9951171875 c 0
 290.333984375 83.9951171875 307.001953125 85.4951171875 321.001953125 88.4951171875 c 0
 335.001953125 91.4951171875 348.334960938 96.328125 361.001953125 102.995117188 c 0
 386.334960938 116.328125 405.66796875 143.328125 419.000976562 183.995117188 c 0
 421.66796875 191.995117188 424.66796875 213.495117188 428.000976562 248.495117188 c 0
 431.333984375 283.495117188 433.666992188 323.995117188 435 369.995117188 c 0
 435.22265625 380 435.333984375 389.930664062 435.333984375 399.787109375 c 0
 435.333984375 419.486328125 434.889648438 438.888671875 434.000976562 457.995117188 c 1
356.001953125 599.997070312 m 0
 338.668945312 607.997070312 319.66796875 611.995117188 299.000976562 611.995117188 c 0
 262.333984375 611.995117188 233.833984375 602.828125 213.500976562 584.495117188 c 0
 193.16796875 566.162109375 177.334960938 534.995117188 166.001953125 490.995117188 c 0
 161.334960938 473.662109375 158.001953125 455.329101562 156.001953125 435.99609375 c 0
 154.668945312 415.99609375 154.001953125 393.329101562 154.001953125 367.99609375 c 0
 154.001953125 327.99609375 155.000976562 281.663085938 157.000976562 228.99609375 c 1
 243.66796875 339.663085938 323.001953125 453.330078125 395.001953125 569.997070312 c 1
 383.668945312 582.6640625 370.668945312 592.6640625 356.001953125 599.997070312 c 0
550 490.995117188 m 2
 550 489.998046875 l 2
 553.333007812 450.665039062 555.001953125 410.662109375 555.001953125 369.995117188 c 0
 555.001953125 329.328125 553.668945312 289.331054688 551.001953125 249.998046875 c 0
 548.334960938 210.665039062 544.001953125 179.665039062 538.001953125 156.998046875 c 0
 526.001953125 114.331054688 511.001953125 79.6640625 493.001953125 52.9970703125 c 0
 483.668945312 39.6640625 473.168945312 28.3310546875 461.501953125 18.998046875 c 0
 449.834960938 9.6650390625 437.66796875 2.33203125 425.000976562 -3.0009765625 c 0
 411.66796875 -8.333984375 396.66796875 -13.0009765625 380.000976562 -17.0009765625 c 0
 362.66796875 -20.333984375 345.66796875 -22.333984375 329.000976562 -23.0009765625 c 0
 312.333984375 -23.66796875 293.000976562 -24.0009765625 271.000976562 -24.0009765625 c 0
 235.000976562 -24.0009765625 201.66796875 -18.333984375 171.000976562 -7.0009765625 c 0
 142.333984375 4.33203125 118.000976562 20.4990234375 98.0009765625 41.4990234375 c 0
 78.0009765625 62.4990234375 62.66796875 87.666015625 52.0009765625 116.999023438 c 0
 41.333984375 146.33203125 36.0009765625 177.999023438 36.0009765625 211.999023438 c 2
 36.0009765625 217.999023438 l 2
 36.0009765625 250.666015625 35.66796875 281.333007812 35.0009765625 310 c 0
 35.0009765625 330.666992188 35.5009765625 356 36.5009765625 386 c 0
 37.5009765625 416 39.16796875 440.833007812 41.5009765625 460.5 c 0
 43.833984375 480.166992188 47.333984375 501.333984375 52.0009765625 524.000976562 c 0
 56.66796875 547.333984375 62.66796875 567.666992188 70.0009765625 585 c 0
 87.333984375 628.333007812 116.333984375 661.333007812 157.000976562 684 c 0
 201.000976562 706.666992188 254.333984375 718 317.000976562 718 c 0
 348.333984375 718 377.666992188 713.333007812 405 704 c 0
 431.666992188 694.666992188 455.166992188 680.666992188 475.5 662 c 0
 495.833007812 643.333007812 512.5 619.5 525.5 590.5 c 0
 538.5 561.5 546.666992188 528.328125 550 490.995117188 c 2
EndSplineSet
Validated: 1
EndChar

StartChar: one
Encoding: 49 49 17
Width: 590
GlyphClass: 2
Flags: W
HStem: -9.00098 110.501<84.3245 231.996 363 546.559> -5.00098 114.001<40.437 231.996 363 431.522>
VStem: 231.996 131.004<107 552.809> 242.997 123.003<266.377 552.809>
LayerCount: 2
Fore
SplineSet
563 49.9990234375 m 1xa0
 563 46.9990234375 l 2
 563 31.666015625 558.330078125 18.666015625 548.997070312 7.9990234375 c 0
 538.997070312 -3.333984375 521.997070312 -9.0009765625 497.997070312 -9.0009765625 c 0xa0
 245.330078125 -7.0009765625 106.663085938 -5.66796875 81.99609375 -5.0009765625 c 0
 63.3291015625 -5.0009765625 49.3291015625 0.33203125 39.99609375 10.9990234375 c 0
 31.3291015625 21.666015625 26.99609375 34.666015625 26.99609375 49.9990234375 c 2
 26.99609375 52.9990234375 l 2
 26.99609375 67.666015625 30.99609375 80.3330078125 38.99609375 91 c 0
 48.3291015625 103 62.99609375 109 82.99609375 109 c 0
 110.99609375 109 160.663085938 108.333007812 231.99609375 107 c 1x60
 231.99609375 127 231.663085938 143.666992188 230.99609375 157 c 0
 230.329101562 163 229.99609375 180.333007812 229.99609375 209 c 0
 229.99609375 234.333007812 230.329101562 255 230.99609375 271 c 0
 230.99609375 289 232.329101562 325 234.99609375 379 c 0
 239.663085938 480.333007812 242.330078125 539.333007812 242.997070312 556 c 1
 199.6640625 526 166.6640625 507 143.997070312 499 c 0
 135.997070312 497 130.6640625 496 127.997070312 496 c 0
 115.997070312 496 103.997070312 501 91.9970703125 511 c 0
 75.9970703125 524.333007812 67.9970703125 538 67.9970703125 552 c 0
 67.9970703125 565.333007812 70.9970703125 576.833007812 76.9970703125 586.5 c 0
 82.9970703125 596.166992188 92.6640625 606 105.997070312 616 c 0
 124.6640625 630 149.331054688 648.666992188 179.998046875 672 c 1
 192.665039062 674 205.33203125 683 217.999023438 699 c 0
 229.33203125 707 240.999023438 714.333007812 252.999023438 721 c 0
 263.907226562 727.060546875 274.265625 730.090820312 284.072265625 730.090820312 c 0
 285.053710938 730.090820312 286.029296875 730.060546875 286.999023438 730 c 0
 305.666015625 730 324.333007812 723.333007812 343 710 c 0
 353 702.666992188 360.5 696 365.5 690 c 0
 370.5 684 373 678 373 672 c 2
 373 671 l 2
 372.333007812 655.666992188 370 603.166992188 366 513.5 c 0x50
 362 423.833007812 360 371.333007812 360 356 c 0
 360 292 360.333007812 238.666992188 361 196 c 0
 361 174 361.666992188 143 363 103 c 1
 399 102.333007812 422 102 432 102 c 0
 441.333007812 102 453.833007812 101.833007812 469.5 101.5 c 0
 485.166992188 101.166992188 495.333984375 101 500.000976562 101 c 0
 522.000976562 101 537.66796875 96.1669921875 547.000976562 86.5 c 0
 556.333984375 76.8330078125 561.666992188 65 563 51 c 2
 563 49.9990234375 l 1xa0
EndSplineSet
Validated: 1
EndChar

StartChar: two
Encoding: 50 50 18
Width: 590
GlyphClass: 2
Flags: W
HStem: -18.0029 108.432<163.593 477.109> -12.0029 113.999<480.313 537.625> 506.999 21G<111.668 116.668> 612.998 109.001<223.89 387.111>
VStem: 412.002 126<456.851 587.935>
LayerCount: 2
Fore
SplineSet
480 101 m 1xb8
 486.666992188 109.666992188 493.669921875 109.99609375 501.002929688 101.99609375 c 0
 503.002929688 101.99609375 506.8359375 101.829101562 512.502929688 101.49609375 c 0
 518.169921875 101.163085938 522.669921875 100.163085938 526.002929688 98.49609375 c 0
 529.3359375 96.8291015625 532.668945312 94.99609375 536.001953125 92.99609375 c 0
 541.334960938 89.6630859375 545.001953125 85.6630859375 547.001953125 80.99609375 c 0
 551.001953125 72.99609375 553.001953125 63.6630859375 553.001953125 52.99609375 c 0
 553.001953125 33.6630859375 548.001953125 17.330078125 538.001953125 3.9970703125 c 0
 530.001953125 -6.669921875 519.668945312 -12.0029296875 507.001953125 -12.0029296875 c 0x78
 459.668945312 -12.0029296875 383.668945312 -14.0029296875 279.001953125 -18.0029296875 c 0
 243.668945312 -19.3359375 207.3359375 -20.0029296875 170.002929688 -20.0029296875 c 0
 135.3359375 -20.0029296875 108.3359375 -18.669921875 89.0029296875 -16.0029296875 c 0
 78.3359375 -14.669921875 69.0029296875 -10.3369140625 61.0029296875 -3.00390625 c 0
 55.0029296875 2.3291015625 50.3359375 9.3291015625 47.0029296875 17.99609375 c 0
 40.3359375 35.3291015625 37.0029296875 59.3291015625 37.0029296875 89.99609375 c 0
 37.0029296875 120.663085938 43.3359375 151.663085938 56.0029296875 182.99609375 c 0
 68.669921875 214.329101562 87.669921875 244.49609375 113.002929688 273.49609375 c 0
 138.3359375 302.49609375 168.668945312 325.99609375 204.001953125 343.99609375 c 0
 282.001953125 381.99609375 332.001953125 408.663085938 354.001953125 423.99609375 c 0
 380.668945312 442.663085938 398.001953125 462.330078125 406.001953125 482.997070312 c 0
 410.001953125 495.6640625 412.001953125 511.331054688 412.001953125 529.998046875 c 0
 412.001953125 559.331054688 403.001953125 580.331054688 385.001953125 592.998046875 c 0
 365.668945312 606.331054688 336.668945312 612.998046875 298.001953125 612.998046875 c 0
 272.001953125 612.998046875 247.168945312 605.665039062 223.501953125 590.998046875 c 0
 199.834960938 576.331054688 181.334960938 559.998046875 168.001953125 541.998046875 c 0
 161.334960938 532.665039062 154.334960938 524.83203125 147.001953125 518.499023438 c 0
 139.668945312 512.166015625 132.001953125 508.666015625 124.001953125 507.999023438 c 0
 121.334960938 507.999023438 118.334960938 507.666015625 115.001953125 506.999023438 c 0
 108.334960938 506.999023438 97.3349609375 510.33203125 82.001953125 516.999023438 c 0
 67.3349609375 524.999023438 58.001953125 536.33203125 54.001953125 550.999023438 c 0
 53.3349609375 554.999023438 53.001953125 558.666015625 53.001953125 561.999023438 c 0
 53.001953125 573.33203125 56.6689453125 586.999023438 64.001953125 602.999023438 c 0
 71.3349609375 616.999023438 82.001953125 630.83203125 96.001953125 644.499023438 c 0
 110.001953125 658.166015625 126.001953125 670.999023438 144.001953125 682.999023438 c 0
 163.334960938 694.999023438 186.334960938 704.499023438 213.001953125 711.499023438 c 0
 239.668945312 718.499023438 266.668945312 721.999023438 294.001953125 721.999023438 c 0
 376.001953125 721.999023438 437.334960938 704.999023438 478.001953125 670.999023438 c 0
 518.001953125 636.999023438 538.001953125 585.999023438 538.001953125 517.999023438 c 0
 538.001953125 461.999023438 523.001953125 416.666015625 493.001953125 381.999023438 c 0
 471.001953125 357.33203125 431.001953125 330.33203125 373.001953125 300.999023438 c 0
 358.334960938 293.666015625 333.001953125 281.666015625 297.001953125 264.999023438 c 0
 267.001953125 250.999023438 242.001953125 233.83203125 222.001953125 213.499023438 c 0
 202.001953125 193.166015625 187.334960938 172.333007812 178.001953125 151 c 0
 170.668945312 133 165.668945312 113.666992188 163.001953125 93 c 1
 196.71875 91.28515625 228.965820312 90.4287109375 259.743164062 90.4287109375 c 0
 264.870117188 90.4287109375 269.956054688 90.4521484375 275.000976562 90.5 c 0
 310.333984375 90.8330078125 337.666992188 91.3330078125 357 92 c 0
 377 93.3330078125 418 96.3330078125 480 101 c 1xb8
EndSplineSet
Validated: 1
EndChar

StartChar: three
Encoding: 51 51 19
Width: 590
GlyphClass: 2
Flags: W
HStem: -24.0166 108.017<212.007 372.042> 306 125<174.22 338.449> 520.002 21G<114.001 121.334> 613.001 109.001<207.346 371.71>
VStem: 398.002 126.997<479.219 589.309> 423 124<130.061 255.137>
LayerCount: 2
Fore
SplineSet
536 279.5 m 0xf8
 543.333007812 257.833007812 547 232.330078125 547 202.997070312 c 0
 547 133.6640625 524.666992188 78.3310546875 480 36.998046875 c 0
 434.73046875 -3.6787109375 369.768554688 -24.0166015625 285.11328125 -24.0166015625 c 0
 283.747070312 -24.0166015625 282.375976562 -24.01171875 281 -24.0009765625 c 0
 253.666992188 -24.0009765625 226.666992188 -20.333984375 200 -13.0009765625 c 0
 173.333007812 -5.66796875 150.833007812 3.6650390625 132.5 14.998046875 c 0
 114.166992188 26.3310546875 98 38.998046875 84 52.998046875 c 0
 70 66.998046875 59.5 80.8310546875 52.5 94.498046875 c 0
 45.5 108.165039062 42 120.998046875 42 132.998046875 c 0
 42 136.998046875 42.6669921875 140.998046875 44 144.998046875 c 0
 47.3330078125 161.665039062 56.3330078125 173.33203125 71 179.999023438 c 0
 81.6669921875 185.33203125 91.6669921875 187.999023438 101 187.999023438 c 0
 121 187.999023438 139 177.33203125 155 155.999023438 c 0
 169.666992188 136.666015625 188.666992188 119.833007812 212 105.5 c 0
 235.333007812 91.1669921875 260 84 286 84 c 0
 326.666992188 84 359.666992188 93.8330078125 385 113.5 c 0
 410.333007812 133.166992188 423 158 423 188 c 0xf4
 423 207.333007812 419.666992188 223.833007812 413 237.5 c 0
 406.333007812 251.166992188 395.833007812 263.166992188 381.5 273.5 c 0
 367.166992188 283.833007812 346.833984375 291.833007812 320.500976562 297.5 c 0
 294.16796875 303.166992188 262.000976562 306 224.000976562 306 c 0
 204.66796875 306 188.66796875 312.666992188 176.000976562 326 c 0
 162.66796875 339.333007812 156.000976562 354.333007812 156.000976562 371 c 0
 156.000976562 387.666992188 160.66796875 401.666992188 170.000976562 413 c 0
 180.66796875 425 196.000976562 431 216.000976562 431 c 0
 274.66796875 431 320.334960938 440.666992188 353.001953125 460 c 0
 383.001953125 478 398.001953125 504 398.001953125 538 c 2
 398.001953125 541 l 1
 398.001953125 545 l 2
 398.001953125 567.666992188 388.668945312 584.333984375 370.001953125 595.000976562 c 0
 348.001953125 607.000976562 316.001953125 613.000976562 274.001953125 613.000976562 c 0
 261.334960938 613.000976562 247.66796875 611.000976562 233.000976562 607.000976562 c 0
 229.000976562 605.66796875 224.333984375 603.16796875 219.000976562 599.500976562 c 0
 213.66796875 595.833984375 209.500976562 592.833984375 206.500976562 590.500976562 c 0
 203.500976562 588.16796875 199.500976562 584.334960938 194.500976562 579.001953125 c 0
 189.500976562 573.668945312 186.000976562 569.668945312 184.000976562 567.001953125 c 0
 180.000976562 554.334960938 176.333984375 549.66796875 173.000976562 553.000976562 c 1
 159.66796875 535.66796875 146.000976562 525.334960938 132.000976562 522.001953125 c 0
 128.000976562 520.668945312 123.66796875 520.001953125 119.000976562 520.001953125 c 0
 109.000976562 520.001953125 98.66796875 523.001953125 88.0009765625 529.001953125 c 0
 73.333984375 536.334960938 64.333984375 548.001953125 61.0009765625 564.001953125 c 0
 60.333984375 568.001953125 60.0009765625 572.001953125 60.0009765625 576.001953125 c 0
 60.0009765625 588.001953125 63.333984375 601.001953125 70.0009765625 615.001953125 c 0
 84.0009765625 643.668945312 105.66796875 668.001953125 135.000976562 688.001953125 c 0
 150.333984375 698.668945312 169.666992188 707.001953125 193 713.001953125 c 0
 216.333007812 719.001953125 241.666015625 722.001953125 268.999023438 722.001953125 c 0
 356.999023438 722.001953125 421.999023438 705.668945312 463.999023438 673.001953125 c 0
 504.666015625 640.334960938 524.999023438 592.66796875 524.999023438 530.000976562 c 2
 524.999023438 526.000976562 l 1
 524.999023438 523.000976562 l 2
 524.999023438 504.333984375 522.166015625 486.833984375 516.499023438 470.500976562 c 0
 510.83203125 454.16796875 503.165039062 440.334960938 493.498046875 429.001953125 c 0
 483.831054688 417.668945312 472.331054688 407.668945312 458.998046875 399.001953125 c 0
 445.665039062 390.334960938 431.998046875 383.66796875 417.998046875 379.000976562 c 1
 428.665039062 375.66796875 438.33203125 372.334960938 446.999023438 369.001953125 c 0
 467.666015625 360.334960938 485.833007812 348.66796875 501.5 334.000976562 c 0
 517.166992188 319.333984375 528.666992188 301.166992188 536 279.5 c 0xf8
EndSplineSet
Validated: 1
EndChar

StartChar: four
Encoding: 52 52 20
Width: 590
GlyphClass: 2
Flags: W
HStem: -23 21G<422.999 438.333> 218.999 90.001<165.215 366.998 468 536.168>
VStem: 360 98.999<456.567 587.448> 365.998 102.002<37.313 218 309 587.448> 366.998 109.002<-7.4969 213.685>
LayerCount: 2
Fore
SplineSet
474 59 m 0xd0
 475.333007812 51 476 43.6669921875 476 37 c 0xc8
 476 23.6669921875 473.333007812 12 468 2 c 0xd0
 459.333007812 -14.6669921875 446.666015625 -23 429.999023438 -23 c 0
 415.999023438 -23 402.166015625 -17.8330078125 388.499023438 -7.5 c 0
 374.83203125 2.8330078125 367.665039062 13.666015625 366.998046875 24.9990234375 c 0xc8
 366.331054688 32.9990234375 365.998046875 45.666015625 365.998046875 62.9990234375 c 2
 365.998046875 138.999023438 l 2xd0
 365.998046875 166.33203125 366.331054688 192.999023438 366.998046875 218.999023438 c 1xc8
 321.998046875 218.999023438 l 2
 223.331054688 218.999023438 153.6640625 214.666015625 112.997070312 205.999023438 c 0
 108.330078125 204.666015625 103.330078125 204.166015625 97.9970703125 204.499023438 c 0
 92.6640625 204.83203125 87.3310546875 205.665039062 81.998046875 206.998046875 c 0
 72.6650390625 210.331054688 65.1650390625 215.498046875 59.498046875 222.498046875 c 0
 53.8310546875 229.498046875 49.498046875 237.498046875 46.498046875 246.498046875 c 0
 43.498046875 255.498046875 41.998046875 264.665039062 41.998046875 273.998046875 c 0
 41.998046875 284.665039062 43.6650390625 294.665039062 46.998046875 303.998046875 c 0
 53.6650390625 323.331054688 71.6650390625 353.831054688 100.998046875 395.498046875 c 0
 130.331054688 437.165039062 168.998046875 488.998046875 216.998046875 550.998046875 c 0
 259.665039062 605.665039062 293.665039062 650.33203125 318.998046875 684.999023438 c 0
 328.331054688 697.666015625 338.998046875 707.499023438 350.998046875 714.499023438 c 0
 362.998046875 721.499023438 374.665039062 724.999023438 385.998046875 724.999023438 c 2
 392.998046875 724.999023438 l 2
 404.998046875 724.999023438 415.998046875 722.666015625 425.998046875 717.999023438 c 0
 438.665039062 711.33203125 446.33203125 699.999023438 448.999023438 683.999023438 c 2
 448.999023438 682.999023438 l 1
 452.999023438 659.666015625 456.33203125 624.166015625 458.999023438 576.499023438 c 0xe0
 461.666015625 528.83203125 463.333007812 488.33203125 464 454.999023438 c 0
 464.666992188 405.666015625 465.666992188 356.666015625 467 307.999023438 c 1
 477 307.33203125 488 306.999023438 500 306.999023438 c 0
 517.333007812 306.999023438 529.5 303.166015625 536.5 295.499023438 c 0
 543.5 287.83203125 547.333007812 277.999023438 548 265.999023438 c 2
 548 265 l 2
 548 251 544.666992188 240 538 232 c 0
 530 222 517.333007812 217 500 217 c 0
 488.666992188 217 478 217.333007812 468 218 c 1
 469.333007812 125.333007812 471.333007812 72.3330078125 474 59 c 0xd0
299 309 m 2
 366.998046875 309 l 1xc8
 366.998046875 424.333007812 364.666992188 517.666015625 360 588.999023438 c 1xe0
 265.333007812 469.666015625 200 375.333007812 164 306 c 1
 201.333007812 308 246.333007812 309 299 309 c 2
EndSplineSet
Validated: 1
EndChar

StartChar: five
Encoding: 53 53 21
Width: 590
GlyphClass: 2
Flags: W
HStem: -18.002 109.001<189.264 351.338> 407.998 113.043<225.815 395.174> 594.995 112.998<271.102 531.618> 605.995 103.998<164.999 494.386>
VStem: 43 118.999<466.431 602.995> 432.997 124.002<181.147 368.764>
LayerCount: 2
Fore
SplineSet
48 561 m 0xdc
 49.3330078125 581.666992188 49.994140625 596.993164062 49.994140625 606.993164062 c 1
 43.2724609375 617.9921875 39.912109375 630.672851562 39.912109375 645.033203125 c 0
 39.912109375 658.096679688 40.4404296875 681.393554688 59.9951171875 698.993164062 c 0
 69.328125 707.66015625 79.9951171875 711.993164062 91.9951171875 711.993164062 c 0
 116.662109375 711.993164062 178.662109375 711.326171875 277.995117188 709.993164062 c 0xdc
 378.662109375 708.66015625 452.995117188 707.993164062 500.995117188 707.993164062 c 0
 513.662109375 707.993164062 523.995117188 702.66015625 531.995117188 691.993164062 c 0
 541.995117188 678.66015625 546.995117188 662.327148438 546.995117188 642.994140625 c 0
 546.995117188 622.994140625 541.328125 609.661132812 529.995117188 602.994140625 c 0
 526.662109375 600.994140625 523.329101562 599.327148438 519.99609375 597.994140625 c 0
 516.663085938 596.661132812 512.163085938 595.828125 506.49609375 595.495117188 c 0
 500.829101562 595.162109375 496.829101562 594.995117188 494.49609375 594.995117188 c 0xec
 492.163085938 594.995117188 488.49609375 595.162109375 483.49609375 595.495117188 c 0
 478.49609375 595.828125 475.329101562 595.995117188 473.99609375 595.995117188 c 1
 464.663085938 595.995117188 447.330078125 597.328125 421.997070312 599.995117188 c 0
 395.330078125 601.995117188 371.830078125 603.495117188 351.497070312 604.495117188 c 0
 331.1640625 605.495117188 303.831054688 605.995117188 269.498046875 605.995117188 c 0
 235.165039062 605.995117188 200.33203125 604.995117188 164.999023438 602.995117188 c 1
 162.865234375 562.998046875 161.798828125 535.798828125 161.798828125 521.3984375 c 0
 161.798828125 517.796875 161.865234375 514.99609375 161.999023438 512.995117188 c 0
 161.999023438 500.995117188 161.83203125 492.495117188 161.499023438 487.495117188 c 0
 161.166015625 482.495117188 161.333007812 475.328125 162 465.995117188 c 1
 180 479.328125 201.666992188 490.995117188 227 500.995117188 c 0
 262 514.358398438 301.250976562 521.041015625 344.75390625 521.041015625 c 0
 346.826171875 521.041015625 348.908203125 521.025390625 351 520.995117188 c 0
 385.666992188 520.995117188 416.666992188 515.328125 444 503.995117188 c 0
 469.333007812 492.662109375 490.166015625 476.829101562 506.499023438 456.49609375 c 0
 522.83203125 436.163085938 535.33203125 412.830078125 543.999023438 386.497070312 c 0
 552.666015625 360.1640625 556.999023438 331.6640625 556.999023438 300.997070312 c 0
 556.999023438 251.6640625 550.666015625 206.831054688 537.999023438 166.498046875 c 0
 525.33203125 126.165039062 507.165039062 92.498046875 483.498046875 65.498046875 c 0
 459.831054688 38.498046875 430.331054688 17.998046875 394.998046875 3.998046875 c 0
 358.998046875 -10.6689453125 319.998046875 -18.001953125 277.998046875 -18.001953125 c 0
 244.665039062 -18.001953125 213.665039062 -14.6689453125 184.998046875 -8.001953125 c 0
 156.998046875 -1.3349609375 134.331054688 7.33203125 116.998046875 17.9990234375 c 0
 99.6650390625 28.666015625 84.998046875 40.3330078125 72.998046875 53 c 0
 60.998046875 65.6669921875 50.998046875 79 42.998046875 93 c 0
 35.6650390625 109 31.998046875 122.666992188 31.998046875 134 c 0
 31.998046875 138 32.6650390625 142 33.998046875 146 c 0
 37.3310546875 160.666992188 46.6640625 172 61.9970703125 180 c 0
 69.9970703125 183.333007812 76.4970703125 185.666015625 81.4970703125 186.999023438 c 0
 86.4970703125 188.33203125 90.830078125 188.999023438 94.4970703125 188.999023438 c 0
 98.1640625 188.999023438 100.997070312 188.666015625 102.997070312 187.999023438 c 0
 111.6640625 187.33203125 119.6640625 183.665039062 126.997070312 176.998046875 c 0
 132.997070312 171.665039062 139.330078125 164.33203125 145.997070312 154.999023438 c 0
 175.997070312 112.33203125 216.330078125 90.9990234375 266.997070312 90.9990234375 c 0
 317.6640625 90.9990234375 357.6640625 108.33203125 386.997070312 142.999023438 c 0
 417.6640625 178.999023438 432.997070312 227.666015625 432.997070312 288.999023438 c 0
 432.997070312 326.33203125 423.6640625 355.665039062 404.997070312 376.998046875 c 0
 387.6640625 397.665039062 360.331054688 407.998046875 322.998046875 407.998046875 c 0
 305.665039062 407.998046875 287.33203125 405.998046875 267.999023438 401.998046875 c 0
 258.666015625 399.998046875 245.666015625 395.331054688 228.999023438 387.998046875 c 0
 224.999023438 385.998046875 219.83203125 382.665039062 213.499023438 377.998046875 c 0
 207.166015625 373.331054688 202.999023438 369.998046875 200.999023438 367.998046875 c 0
 189.666015625 358.665039062 180.333007812 350.665039062 173 343.998046875 c 0
 157.666992188 331.331054688 140 323.998046875 120 321.998046875 c 2
 113 321.998046875 l 2
 103.666992188 321.998046875 94.6669921875 323.998046875 86 327.998046875 c 0
 72 333.998046875 61.3330078125 346.665039062 54 365.998046875 c 0
 48 382.665039062 44.3330078125 403.33203125 43 427.999023438 c 0
 42.666015625 433.33203125 42.5 438.666015625 42.5 444 c 0
 42.5 449.333007812 42.666015625 454.666015625 43 460 c 0
 43 483.333007812 44.6669921875 517 48 561 c 0xdc
EndSplineSet
Validated: 1
EndChar

StartChar: six
Encoding: 54 54 22
Width: 590
GlyphClass: 2
Flags: W
HStem: -22.002 107.997<221.313 362.936> 379.996 114.002<217.446 398.643>
VStem: 30.001 116<167.545 324.488> 437 123.001<163.55 341.372>
LayerCount: 2
Fore
SplineSet
545 361 m 0
 555 329.666992188 560.000976562 293.331054688 560.000976562 251.998046875 c 0
 560.000976562 213.998046875 553.333984375 178.331054688 540.000976562 144.998046875 c 0
 514.000976562 76.998046875 468.66796875 28.3310546875 404.000976562 -1.001953125 c 0
 371.479492188 -15.03125 336.82421875 -22.0458984375 300.033203125 -22.0458984375 c 0
 298.360351562 -22.0458984375 296.682617188 -22.03125 295.000976562 -22.001953125 c 0
 248.333984375 -22.001953125 207.000976562 -14.001953125 171.000976562 1.998046875 c 0
 137.000976562 18.6650390625 109.833984375 41.998046875 89.5009765625 71.998046875 c 0
 69.16796875 101.998046875 54.16796875 136.831054688 44.5009765625 176.498046875 c 0
 34.833984375 216.165039062 30.0009765625 259.665039062 30.0009765625 306.998046875 c 0
 30.0009765625 366.998046875 35.833984375 420.498046875 47.5009765625 467.498046875 c 0
 59.16796875 514.498046875 74.8349609375 553.831054688 94.501953125 585.498046875 c 0
 114.168945312 617.165039062 139.001953125 643.665039062 169.001953125 664.998046875 c 0
 200.334960938 686.998046875 234.334960938 703.665039062 271.001953125 714.998046875 c 0
 307.668945312 726.331054688 348.001953125 733.6640625 392.001953125 736.997070312 c 2
 403.001953125 736.997070312 l 2
 418.334960938 736.997070312 431.66796875 734.330078125 443.000976562 728.997070312 c 0
 458.333984375 721.6640625 467.333984375 709.997070312 470.000976562 693.997070312 c 2
 470.000976562 689.997070312 l 2
 470.000976562 679.997070312 465.000976562 669.6640625 455.000976562 658.997070312 c 0
 444.333984375 648.330078125 432.000976562 640.997070312 418.000976562 636.997070312 c 0
 410.000976562 634.997070312 397.66796875 632.497070312 381.000976562 629.497070312 c 0
 364.333984375 626.497070312 350.333984375 623.6640625 339.000976562 620.997070312 c 0
 327.66796875 618.330078125 314.66796875 614.330078125 300.000976562 608.997070312 c 0
 270.66796875 598.330078125 241.000976562 577.997070312 211.000976562 547.997070312 c 0
 195.66796875 531.997070312 181.66796875 510.330078125 169.000976562 482.997070312 c 0
 163.000976562 468.997070312 157.66796875 455.997070312 153.000976562 443.997070312 c 1
 171.000976562 456.6640625 191.333984375 466.6640625 214.000976562 473.997070312 c 0
 251.333984375 486.6640625 293.333984375 493.331054688 340.000976562 493.998046875 c 0
 375.333984375 493.998046875 406.666992188 489.331054688 434 479.998046875 c 0
 460 470.665039062 482.5 456.33203125 501.5 436.999023438 c 0
 520.5 417.666015625 535 392.333007812 545 361 c 0
245.000976562 94.9970703125 m 0
 260.333984375 88.9970703125 276.666992188 85.9951171875 294 85.9951171875 c 2
 296 85.9951171875 l 1
 297 85.9951171875 l 2
 320.333007812 85.9951171875 343 93.662109375 365 108.995117188 c 0
 387 124.328125 404.5 143.828125 417.5 167.495117188 c 0
 430.5 191.162109375 437 215.329101562 437 239.99609375 c 0
 437 297.329101562 426 335.329101562 404 353.99609375 c 0
 392.666992188 363.329101562 379.833984375 369.99609375 365.500976562 373.99609375 c 0
 351.16796875 377.99609375 333.000976562 379.99609375 311.000976562 379.99609375 c 0
 277.000976562 379.99609375 245.333984375 372.49609375 216.000976562 357.49609375 c 0
 186.66796875 342.49609375 163.000976562 323.329101562 145.000976562 299.99609375 c 1
 145.000976562 274.663085938 145.333984375 253.663085938 146.000976562 236.99609375 c 0
 148.66796875 208.99609375 158.334960938 181.663085938 175.001953125 154.99609375 c 0
 183.668945312 141.663085938 193.668945312 129.830078125 205.001953125 119.497070312 c 0
 216.334960938 109.1640625 229.66796875 100.997070312 245.000976562 94.9970703125 c 0
EndSplineSet
Validated: 1
EndChar

StartChar: seven
Encoding: 55 55 23
Width: 590
GlyphClass: 2
Flags: W
HStem: -23 21G<119.998 127.665> 601 113.001<81.733 409.999>
LayerCount: 2
Fore
SplineSet
223 601 m 0
 157 599.666992188 114.33203125 596.669921875 94.9990234375 592.002929688 c 0
 90.9990234375 590.669921875 86.4990234375 590.002929688 81.4990234375 590.002929688 c 0
 76.4990234375 590.002929688 71.33203125 591.002929688 65.9990234375 593.002929688 c 0
 57.33203125 596.3359375 50.6650390625 601.3359375 45.998046875 608.002929688 c 0
 36.6650390625 620.002929688 31.6650390625 633.669921875 30.998046875 649.002929688 c 1
 30.998046875 642.3359375 30.998046875 642.668945312 30.998046875 650.001953125 c 0
 30.998046875 664.001953125 34.998046875 675.668945312 42.998046875 685.001953125 c 0
 50.998046875 694.334960938 64.6650390625 700.66796875 83.998046875 704.000976562 c 0
 119.998046875 710.66796875 180.331054688 714.000976562 264.998046875 714.000976562 c 0
 299.665039062 714.000976562 347.33203125 712.66796875 407.999023438 710.000976562 c 0
 465.33203125 708.000976562 495.33203125 707.000976562 497.999023438 707.000976562 c 0
 506.666015625 707.000976562 515.166015625 705.16796875 523.499023438 701.500976562 c 0
 531.83203125 697.833984375 539.665039062 692.000976562 546.998046875 684.000976562 c 0
 554.331054688 675.333984375 558.331054688 664.000976562 558.998046875 650.000976562 c 0
 558.998046875 638.000976562 555.331054688 624.66796875 547.998046875 610.000976562 c 0
 538.665039062 590.000976562 521.665039062 560.500976562 496.998046875 521.500976562 c 0
 472.331054688 482.500976562 446.331054688 442.66796875 418.998046875 402.000976562 c 0
 390.331054688 361.333984375 355.331054688 307.166992188 313.998046875 239.5 c 0
 272.665039062 171.833007812 233.665039062 102.666015625 196.998046875 31.9990234375 c 0
 187.665039062 12.666015625 174.665039062 -1.6669921875 157.998046875 -11 c 0
 145.331054688 -19 133.331054688 -23 121.998046875 -23 c 0
 117.998046875 -23 113.998046875 -22.6669921875 109.998046875 -22 c 0
 91.998046875 -18 79.3310546875 -8 71.998046875 8 c 0
 68.6650390625 15.3330078125 66.998046875 23.166015625 66.998046875 31.4990234375 c 0
 66.998046875 39.83203125 69.3310546875 48.9990234375 73.998046875 58.9990234375 c 0
 107.998046875 125.666015625 145.665039062 191.999023438 186.998046875 257.999023438 c 0
 229.665039062 323.999023438 264.83203125 376.33203125 292.499023438 414.999023438 c 0
 320.166015625 453.666015625 344.499023438 489.333007812 365.499023438 522 c 0
 386.499023438 554.666992188 401.33203125 581 409.999023438 601 c 1
 381.33203125 601.666015625 351.416015625 602 320.25 602 c 0
 289.083007812 602 256.666015625 601.666015625 223 601 c 0
EndSplineSet
Validated: 1
EndChar

StartChar: eight
Encoding: 56 56 24
Width: 590
GlyphClass: 2
Flags: W
HStem: -28.001 110<198.683 380.136> 621.999 96.002<216.262 352.578>
VStem: 23.998 111.003<137.082 263.615> 50.998 121.003<482.059 579.145> 404 117.001<478.907 573.656> 448.001 116.998<140 269.94>
LayerCount: 2
Fore
SplineSet
213.000976562 96.9990234375 m 0xe4
 236.333984375 86.9990234375 261.333984375 81.9990234375 288.000976562 81.9990234375 c 0
 306.66796875 81.9990234375 325.500976562 84.666015625 344.500976562 89.9990234375 c 0
 363.500976562 95.33203125 380.833984375 102.999023438 396.500976562 112.999023438 c 0
 412.16796875 122.999023438 424.66796875 135.666015625 434.000976562 150.999023438 c 0
 443.333984375 166.33203125 448.000976562 182.999023438 448.000976562 200.999023438 c 0
 448.000976562 210.999023438 447.000976562 220.33203125 445.000976562 228.999023438 c 0
 443.000976562 237.666015625 439.000976562 247.666015625 433.000976562 258.999023438 c 0
 427.000976562 270.33203125 418.66796875 280.999023438 408.000976562 290.999023438 c 0
 397.333984375 300.999023438 382.500976562 311.33203125 363.500976562 321.999023438 c 0
 344.500976562 332.666015625 322.000976562 342.333007812 296.000976562 351 c 1
 248.000976562 339 209.000976562 318.666992188 179.000976562 290 c 0
 149.66796875 261.333007812 135.000976562 230.666015625 135.000976562 197.999023438 c 0
 135.000976562 175.999023438 142.000976562 155.999023438 156.000976562 137.999023438 c 0
 171.333984375 119.999023438 190.333984375 106.33203125 213.000976562 96.9990234375 c 0xe4
205.499023438 591.499023438 m 0
 183.166015625 571.166015625 172.000976562 549.333007812 172.000976562 526 c 0
 172.000976562 507.333007812 181.66796875 490.666015625 201.000976562 475.999023438 c 0
 221.000976562 460.666015625 254.66796875 444.999023438 302.000976562 428.999023438 c 1
 329.333984375 439.666015625 353.166992188 453.666015625 373.5 470.999023438 c 0
 393.833007812 488.33203125 404 503.33203125 404 515.999023438 c 0xd8
 404 532.666015625 398.833007812 548.999023438 388.5 564.999023438 c 0
 378.166992188 580.999023438 363.666992188 594.499023438 345 605.499023438 c 0
 326.333007812 616.499023438 306.666015625 621.999023438 285.999023438 621.999023438 c 2
 283.999023438 621.999023438 l 2
 253.999023438 621.999023438 227.83203125 611.83203125 205.499023438 591.499023438 c 0
561.5 246 m 0
 563.833007812 234 564.999023438 221.33203125 564.999023438 207.999023438 c 0
 564.999023438 185.999023438 561.999023438 164.33203125 555.999023438 142.999023438 c 0
 549.999023438 121.666015625 539.999023438 100.499023438 525.999023438 79.4990234375 c 0
 511.999023438 58.4990234375 494.666015625 40.33203125 473.999023438 24.9990234375 c 0
 453.33203125 9.666015625 426.165039062 -3.0009765625 392.498046875 -13.0009765625 c 0
 358.831054688 -23.0009765625 322.1640625 -28.0009765625 282.497070312 -28.0009765625 c 0
 242.830078125 -28.0009765625 207.330078125 -23.333984375 175.997070312 -14.0009765625 c 0
 145.997070312 -4.66796875 121.830078125 7.4990234375 103.497070312 22.4990234375 c 0
 85.1640625 37.4990234375 69.8310546875 55.166015625 57.498046875 75.4990234375 c 0
 45.1650390625 95.83203125 36.498046875 116.33203125 31.498046875 136.999023438 c 0
 26.498046875 157.666015625 23.998046875 179.333007812 23.998046875 202 c 0xe4
 23.998046875 224.666992188 29.998046875 249.166992188 41.998046875 275.5 c 0
 53.998046875 301.833007812 71.6650390625 326.333007812 94.998046875 349 c 0
 110.998046875 365 128.331054688 377.666992188 146.998046875 387 c 1
 120.331054688 402.333007812 98.998046875 420.666015625 82.998046875 441.999023438 c 0
 61.6650390625 469.999023438 50.998046875 498.666015625 50.998046875 527.999023438 c 0
 50.998046875 536.666015625 51.6650390625 545.666015625 52.998046875 554.999023438 c 0
 54.3310546875 564.33203125 57.1640625 575.33203125 61.4970703125 587.999023438 c 0
 65.830078125 600.666015625 71.330078125 612.83203125 77.9970703125 624.499023438 c 0
 84.6640625 636.166015625 93.8310546875 647.833007812 105.498046875 659.5 c 0
 117.165039062 671.166992188 130.33203125 681.000976562 144.999023438 689.000976562 c 0
 161.666015625 697.66796875 181.999023438 704.66796875 205.999023438 710.000976562 c 0
 229.999023438 715.333984375 256.33203125 718.000976562 284.999023438 718.000976562 c 0
 313.666015625 718.000976562 339.999023438 715.333984375 363.999023438 710.000976562 c 0
 387.999023438 704.66796875 408.33203125 698.000976562 424.999023438 690.000976562 c 0
 441.666015625 681.333984375 455.833007812 671.166992188 467.5 659.5 c 0
 479.166992188 647.833007812 488.333984375 636.166015625 495.000976562 624.499023438 c 0
 501.66796875 612.83203125 507.000976562 600.499023438 511.000976562 587.499023438 c 0
 515.000976562 574.499023438 517.66796875 563.166015625 519.000976562 553.499023438 c 0
 520.333984375 543.83203125 521.000976562 534.33203125 521.000976562 524.999023438 c 0
 521.000976562 515.666015625 519.833984375 506.833007812 517.500976562 498.5 c 0
 515.16796875 490.166992188 512.334960938 482.666015625 509.001953125 475.999023438 c 0
 505.668945312 469.33203125 501.000976562 462.5 495.000976562 455.5 c 0
 489.000976562 448.5 483.501953125 442.666992188 478.501953125 438 c 0
 473.501953125 433.333007812 467.168945312 428 459.501953125 422 c 0
 451.834960938 416 445.66796875 411.666992188 441.000976562 409 c 0
 436.333984375 406.333007812 430.333984375 402.333007812 423.000976562 397 c 1
 441.66796875 389 458.000976562 380 472.000976562 370 c 0
 491.333984375 356.666992188 506.833984375 343.166992188 518.500976562 329.5 c 0
 530.16796875 315.833007812 539.66796875 301.5 547.000976562 286.5 c 0
 554.333984375 271.5 559.166992188 258 561.5 246 c 0
EndSplineSet
Validated: 1
EndChar

StartChar: nine
Encoding: 57 57 25
Width: 590
GlyphClass: 2
Flags: W
HStem: -22.9951 21G<154.667 163.667> 223.002 113.005<206.64 388.074> 630.006 108.993<223.43 370.931>
VStem: 30 122.002<391.618 557.824> 446.002 113.997<379.658 542.364>
LayerCount: 2
Fore
SplineSet
172 555.004882812 m 0
 158.666992188 532.337890625 152.001953125 509.006835938 152.001953125 485.006835938 c 0
 152.001953125 385.673828125 199 336.006835938 293 336.006835938 c 0
 323 336.006835938 352.001953125 342.006835938 380.001953125 354.006835938 c 0
 408.001953125 366.006835938 430.001953125 381.33984375 446.001953125 400.006835938 c 1
 446.001953125 409.006835938 l 2
 446.001953125 427.006835938 445.001953125 450.673828125 443.001953125 480.006835938 c 0
 440.334960938 508.006835938 430.66796875 535.33984375 414.000976562 562.006835938 c 0
 405.333984375 575.33984375 395.500976562 587.172851562 384.500976562 597.505859375 c 0
 373.500976562 607.838867188 360.16796875 615.838867188 344.500976562 621.505859375 c 0
 328.833984375 627.172851562 312.666992188 630.005859375 296 630.005859375 c 2
 293 630.005859375 l 2
 269 630.005859375 246.166992188 623.172851562 224.5 609.505859375 c 0
 202.833007812 595.838867188 185.333007812 577.671875 172 555.004882812 c 0
172 -22 m 0
 168.666992188 -22 165.333984375 -22.328125 162.000976562 -22.9951171875 c 0
 147.333984375 -22.9951171875 134.333984375 -19.9951171875 123.000976562 -13.9951171875 c 0
 107.66796875 -6.662109375 99.0009765625 5.0048828125 97.0009765625 21.0048828125 c 0
 97.0009765625 22.337890625 96.66796875 23.337890625 96.0009765625 24.0048828125 c 0
 96.0009765625 34.671875 101.16796875 45.171875 111.500976562 55.5048828125 c 0
 121.833984375 65.837890625 133.333984375 73.0048828125 146.000976562 77.0048828125 c 0
 154.000976562 79.0048828125 167.16796875 81.671875 185.500976562 85.0048828125 c 0
 203.833984375 88.337890625 220.000976562 91.6708984375 234.000976562 95.00390625 c 0
 248.000976562 98.3369140625 263.333984375 102.669921875 280.000976562 108.002929688 c 0
 315.333984375 120.002929688 346.333984375 139.002929688 373.000976562 165.002929688 c 0
 390.333984375 183.002929688 406.000976562 203.669921875 420.000976562 227.002929688 c 0
 425.333984375 236.3359375 430.000976562 245.668945312 434.000976562 255.001953125 c 1
 419.333984375 247.001953125 403.333984375 240.668945312 386.000976562 236.001953125 c 0
 353.333984375 228.001953125 313.000976562 223.668945312 265.000976562 223.001953125 c 0
 231.000976562 223.001953125 198.66796875 230.001953125 168.000976562 244.001953125 c 0
 138.66796875 258.001953125 114.16796875 276.668945312 94.5009765625 300.001953125 c 0
 74.833984375 323.334960938 59.1669921875 350.16796875 47.5 380.500976562 c 0
 35.8330078125 410.833984375 30 441.666992188 30 473 c 0
 30 511 36.5 546.5 49.5 579.5 c 0
 62.5 612.5 80.1669921875 640.666992188 102.5 664 c 0
 124.833007812 687.333007812 152.666015625 705.666015625 185.999023438 718.999023438 c 0
 219.999023438 732.33203125 255.999023438 738.999023438 293.999023438 738.999023438 c 0
 387.999023438 738.999023438 456.33203125 706.999023438 498.999023438 642.999023438 c 0
 538.999023438 582.999023438 559.33203125 498.33203125 559.999023438 388.999023438 c 0
 559.999023438 331.666015625 553.33203125 280.999023438 539.999023438 236.999023438 c 0
 526.666015625 192.999023438 508.833007812 155.83203125 486.5 125.499023438 c 0
 464.166992188 95.166015625 436.666992188 69.3330078125 404 48 c 0
 370 26.6669921875 333.833007812 10.5 295.5 -0.5 c 0
 257.166992188 -11.5 216 -18.6669921875 172 -22 c 0
EndSplineSet
Validated: 1
EndChar

StartChar: colon
Encoding: 58 58 26
Width: 590
GlyphClass: 2
Flags: W
HStem: 27.001 180<237.159 351.079> 295.001 179<247.565 347.156>
VStem: 218 155<49.1377 186.712 322.001 455.644>
LayerCount: 2
Fore
SplineSet
370 404 m 0
 370 384.666992188 367 364.668945312 361 344.001953125 c 0
 357 327.334960938 348 314.66796875 334 306.000976562 c 0
 322 298.66796875 310 295.000976562 298 295.000976562 c 2
 295 295.000976562 l 2
 275 296.333984375 259 300.333984375 247 307.000976562 c 0
 230.333007812 317.000976562 221 332.000976562 219 352.000976562 c 1
 217.666992188 364.000976562 217 376.000976562 217 388.000976562 c 0
 217 400.66796875 217.333007812 412.334960938 218 423.001953125 c 0
 218.666992188 433.668945312 222 443.001953125 228 451.001953125 c 0
 234 458.334960938 241.333007812 463.66796875 250 467.000976562 c 0
 258.666992188 470.333984375 266.333984375 472.333984375 273.000976562 473.000976562 c 0
 279.66796875 473.66796875 284.66796875 474.000976562 288.000976562 474.000976562 c 0
 299.333984375 474.000976562 309.000976562 473.333984375 317.000976562 472.000976562 c 0
 324.333984375 470.66796875 331.666992188 468.000976562 339 464.000976562 c 0
 347 460.000976562 354 454.000976562 360 446.000976562 c 0
 365.333007812 438.000976562 368.333007812 428.66796875 369 418.000976562 c 0
 369.666992188 413.333984375 370 408.666992188 370 404 c 0
373 124.001953125 m 0
 373 108.001953125 370.66796875 91.6689453125 366.000976562 75.001953125 c 0
 362.000976562 58.3349609375 351.66796875 46.001953125 335.000976562 38.001953125 c 0
 321.000976562 31.3349609375 307.66796875 27.66796875 295.000976562 27.0009765625 c 0
 278.333984375 27.0009765625 262.000976562 32.0009765625 246.000976562 42.0009765625 c 0
 230.000976562 52.0009765625 221.333984375 66.0009765625 220.000976562 84.0009765625 c 0
 219.333984375 102.66796875 218.666992188 113.334960938 218 116.001953125 c 0
 218 118.668945312 218.333007812 124.668945312 219 134.001953125 c 0
 219.666992188 143.334960938 220.333984375 150.66796875 221.000976562 156.000976562 c 0
 221.000976562 166.66796875 224.000976562 176.000976562 230.000976562 184.000976562 c 0
 236.000976562 192.000976562 244.000976562 197.333984375 254.000976562 200.000976562 c 0
 267.333984375 204.66796875 280.333984375 207.000976562 293.000976562 207.000976562 c 0
 305.000976562 207.000976562 315.66796875 205.66796875 325.000976562 203.000976562 c 0
 334.333984375 200.333984375 343.666992188 194.333984375 353 185.000976562 c 0
 362.333007812 176.333984375 368 165.333984375 370 152.000976562 c 0
 372 142.66796875 373 133.334960938 373 124.001953125 c 0
EndSplineSet
Validated: 1
EndChar

StartChar: semicolon
Encoding: 59 59 27
Width: 590
GlyphClass: 2
Flags: W
HStem: 253 180.001<268.692 377.11>
VStem: 247.001 152.999<275.988 416.875>
LayerCount: 2
Fore
SplineSet
400 363 m 2
 400 343.666992188 396.999023438 323.333984375 390.999023438 302.000976562 c 0
 386.999023438 285.333984375 377.999023438 272.666992188 363.999023438 264 c 0
 351.999023438 256.666992188 339.999023438 253 327.999023438 253 c 0
 318.666015625 253 308.333007812 255 297 259 c 0
 285.666992188 263 275.333984375 269 266.000976562 277 c 0
 256.000976562 286.333007812 250.333984375 297.333007812 249.000976562 310 c 1
 247.66796875 322 247.000976562 334.333007812 247.000976562 347 c 0
 247.000976562 359.666992188 247.333984375 371 248.000976562 381 c 0
 248.66796875 391.666992188 252.000976562 401 258.000976562 409 c 0
 264.000976562 417 271.333984375 422.333007812 280.000976562 425 c 0
 294.66796875 429.666992188 308.66796875 432.333984375 322.000976562 433.000976562 c 0
 332.000976562 433.000976562 340.333984375 432.000976562 347.000976562 430.000976562 c 0
 354.333984375 428.66796875 362.000976562 426.000976562 370.000976562 422.000976562 c 0
 378.000976562 418.000976562 384.66796875 412.333984375 390.000976562 405.000976562 c 0
 395.333984375 396.333984375 398.666992188 386.666992188 400 376 c 2
 400 363 l 2
379.999023438 79 m 2
 380 73 l 2
 378 51 356.333007812 -36.6669921875 315 -190 c 0
 310.333007812 -206.666992188 301.666015625 -219 288.999023438 -227 c 0
 277.666015625 -234.333007812 266.333007812 -238 255 -238 c 0
 237.666992188 -238 222 -233 208 -223 c 0
 195.966796875 -214.133789062 189.950195312 -202.258789062 189.950195312 -187.375976562 c 0
 189.950195312 -168.400390625 200.454101562 -113.73046875 210 -65.9990234375 c 0
 223.333007812 0.0009765625 234 49.333984375 242 82.0009765625 c 0
 244.666992188 93.333984375 248.333984375 103.000976562 253.000976562 111.000976562 c 0
 258.333984375 119.000976562 264.333984375 124.000976562 271.000976562 126.000976562 c 0
 280.333984375 129.333984375 289.333984375 131.333984375 298.000976562 132.000976562 c 0
 301.333984375 132.000976562 304.666992188 131.66796875 308 131.000976562 c 0
 322 131.000976562 336.333007812 127.66796875 351 121.000976562 c 0
 360.333007812 117.000976562 367.666015625 110.66796875 372.999023438 102.000976562 c 0
 377.666015625 95.333984375 379.999023438 87.6669921875 379.999023438 79 c 2
EndSplineSet
Validated: 1
EndChar

StartChar: less
Encoding: 60 60 28
Width: 590
GlyphClass: 2
Flags: W
HStem: -25 21G<485.667 492.667>
LayerCount: 2
Fore
SplineSet
491 -25 m 0
 480.333007812 -25 468.333007812 -22.662109375 455 -17.9951171875 c 0
 437 -12.662109375 415.333007812 -0.662109375 390 18.0048828125 c 0
 364.666992188 36.671875 337.666992188 58.671875 309 84.0048828125 c 0
 280.333007812 109.337890625 252 135.004882812 224 161.004882812 c 0
 196 187.004882812 166.666992188 213.671875 136 241.004882812 c 0
 105.333007812 268.337890625 79.3330078125 290.004882812 58 306.004882812 c 0
 47.3330078125 314.004882812 40 325.004882812 36 339.004882812 c 0
 34.6669921875 345.004882812 34 351.671875 34 359.004882812 c 0
 34 365.671875 35 372.671875 37 380.004882812 c 0
 41 394.004882812 48.3330078125 404.004882812 59 410.004882812 c 0
 96.3330078125 438.004882812 140.666015625 473.004882812 191.999023438 515.004882812 c 0
 242.666015625 557.671875 289.333007812 596.004882812 332 630.004882812 c 0
 374.666992188 664.671875 413 692.004882812 447 712.004882812 c 0
 460.333007812 720.671875 473.666015625 725.004882812 486.999023438 725.004882812 c 0
 496.999023438 725.004882812 505.666015625 722.671875 512.999023438 718.004882812 c 0
 527.666015625 709.337890625 538.333007812 697.670898438 545 683.00390625 c 0
 548.333007812 676.336914062 550 669.00390625 550 661.00390625 c 0
 550 653.00390625 547.666992188 644.670898438 543 636.00390625 c 0
 535 622.670898438 518.666992188 607.670898438 494 591.00390625 c 0
 457.333007812 565.00390625 404 524.670898438 334 470.00390625 c 0
 264 415.336914062 216.666992188 378.669921875 192 360.002929688 c 1
 214.666992188 342.002929688 240.666992188 319.669921875 270 293.002929688 c 0
 300 266.3359375 327 241.668945312 351 219.001953125 c 0
 375 196.334960938 401 173.001953125 429 149.001953125 c 0
 457 125.001953125 481.666992188 106.334960938 503 93.001953125 c 0
 525 79.001953125 540 65.6689453125 548 53.001953125 c 0
 553.333007812 45.001953125 556 36.6689453125 556 28.001953125 c 0
 556 21.3349609375 554.666992188 14.66796875 552 8.0009765625 c 0
 543.333007812 -10.666015625 526 -21.3330078125 500 -24 c 0
 497.333007812 -24.6669921875 494.333007812 -25 491 -25 c 0
EndSplineSet
Validated: 1
EndChar

StartChar: equal
Encoding: 61 61 29
Width: 590
GlyphClass: 2
Flags: W
HStem: 235 107<107.503 484.62> 435 106<109.565 484.621>
LayerCount: 2
Fore
SplineSet
444 541 m 0
 463.333007812 541 477 536.333007812 485 527 c 0
 493 517.666992188 497.666992188 506 499 492 c 2
 499 491 l 2
 499 483.666992188 498.333007812 477 497 471 c 0
 495.666992188 465 493 459 489 453 c 0
 485 447 478.666992188 442 470 438 c 0
 464 435.333007812 457.666992188 434.333007812 451 435 c 2
 443 435 l 2
 419 435.666992188 394.333007812 436 369 436 c 2
 259 433 l 2
 212.333007812 431.666992188 178 431 156 431 c 0
 136.666992188 431 121 436 109 446 c 0
 97 456 91 468.666992188 91 484 c 2
 91 487 l 2
 91 501 95.6669921875 513.666992188 105 525 c 0
 115 535.666992188 129.333007812 541 148 541 c 2
 152 541 l 2
 191.599609375 539.799804688 234.91796875 539.200195312 281.95703125 539.200195312 c 0
 313.318359375 539.200195312 346.33203125 539.466796875 381 540 c 0
 415.666992188 540.666992188 436.666992188 541 444 541 c 0
451 239 m 2
 443 239 l 2
 427.666992188 239.666992188 413.666992188 240 401 240 c 0
 373 240 330 239.333007812 272 238 c 0
 214 236 174.666992188 235 154 235 c 0
 133.333007812 235 117.666015625 240.333007812 106.999023438 251 c 0
 96.33203125 261.666992188 90.9990234375 274.666992188 90.9990234375 290 c 2
 90.9990234375 292 l 2
 90.9990234375 306 96.33203125 318 106.999023438 328 c 0
 117.666015625 337.333007812 132.666015625 342 151.999023438 342 c 2
 169.999023438 342 l 2
 184.228515625 341.77734375 199.940429688 341.666015625 217.135742188 341.666015625 c 0
 251.5 341.666015625 291.788085938 342.110351562 337.999023438 342.999023438 c 2
 443.999023438 344.999023438 l 2
 463.33203125 344.999023438 476.999023438 340.33203125 484.999023438 330.999023438 c 0
 492.999023438 321.666015625 497.666015625 309.999023438 498.999023438 295.999023438 c 2
 498.999023438 294.999023438 l 2
 498.999023438 287.666015625 498.33203125 281.333007812 496.999023438 276 c 0
 495.666015625 270 492.999023438 264 488.999023438 258 c 0
 484.999023438 251.333007812 478.666015625 246 469.999023438 242 c 0
 464.666015625 240 458.333007812 239 451 239 c 2
EndSplineSet
Validated: 1
EndChar

StartChar: greater
Encoding: 62 62 30
Width: 590
GlyphClass: 2
Flags: W
HStem: -18 21G<98.3335 109.667>
LayerCount: 2
Fore
SplineSet
103 -18 m 0
 93.6669921875 -18 84.998046875 -15.6708984375 76.998046875 -11.00390625 c 0
 69.6650390625 -6.3369140625 62.998046875 -1.00390625 56.998046875 4.99609375 c 0
 51.6650390625 10.99609375 47.6650390625 17.6630859375 44.998046875 24.99609375 c 0
 41.6650390625 31.6630859375 39.6650390625 38.6630859375 38.998046875 45.99609375 c 0
 38.998046875 53.99609375 41.6650390625 62.3291015625 46.998046875 70.99609375 c 0
 54.998046875 84.3291015625 70.998046875 99.3291015625 94.998046875 115.99609375 c 0
 131.665039062 141.99609375 185.33203125 182.329101562 255.999023438 236.99609375 c 0
 325.999023438 291.663085938 373.33203125 328.330078125 397.999023438 346.997070312 c 1
 375.33203125 364.997070312 348.999023438 387.330078125 318.999023438 413.997070312 c 0
 288.999023438 440.6640625 262.33203125 465.331054688 238.999023438 487.998046875 c 0
 214.999023438 510.665039062 188.999023438 533.998046875 160.999023438 557.998046875 c 0
 132.999023438 581.998046875 108.33203125 600.665039062 86.9990234375 613.998046875 c 0
 64.9990234375 627.998046875 49.9990234375 641.331054688 41.9990234375 653.998046875 c 0
 36.666015625 661.998046875 33.9990234375 670.665039062 33.9990234375 679.998046875 c 0
 33.9990234375 686.665039062 35.33203125 692.998046875 37.9990234375 698.998046875 c 0
 46.666015625 717.665039062 63.9990234375 728.33203125 89.9990234375 730.999023438 c 0
 93.33203125 731.666015625 96.33203125 731.999023438 98.9990234375 731.999023438 c 0
 109.666015625 731.999023438 121.666015625 729.666015625 134.999023438 724.999023438 c 0
 152.999023438 719.666015625 174.666015625 707.666015625 199.999023438 688.999023438 c 0
 225.33203125 670.33203125 252.33203125 648.33203125 280.999023438 622.999023438 c 0
 309.666015625 597.666015625 337.999023438 571.999023438 365.999023438 545.999023438 c 0
 393.999023438 519.999023438 423.33203125 493.33203125 453.999023438 465.999023438 c 0
 484.666015625 438.666015625 510.666015625 417.333007812 531.999023438 402 c 0
 542.666015625 394 549.999023438 382.666992188 553.999023438 368 c 0
 555.33203125 362 555.999023438 355.333007812 555.999023438 348 c 0
 555.999023438 341.333007812 554.999023438 334.333007812 552.999023438 327 c 0
 548.999023438 313 541.666015625 303 530.999023438 297 c 0
 493.666015625 269.666992188 449.333007812 234.666992188 398 192 c 0
 347.333007812 149.333007812 300.666015625 111 257.999023438 77 c 0
 215.33203125 43 176.999023438 15.6669921875 142.999023438 -5 c 0
 129.666015625 -13.6669921875 116.333007812 -18 103 -18 c 0
EndSplineSet
Validated: 1
EndChar

StartChar: question
Encoding: 63 63 31
Width: 590
GlyphClass: 2
Flags: W
HStem: -26.002 178.001<214.892 331.37> 508.999 21G<135.334 150.001> 625 109.069<236.464 365.064>
VStem: 179.003 187.001<7.88811 117.73> 212.003 125.996<216.992 316.186> 390.038 124.961<484.855 602.144>
LayerCount: 2
Fore
SplineSet
282 201 m 0xec
 276 201 269.669921875 201.665039062 263.002929688 202.998046875 c 0
 229.669921875 211.665039062 212.669921875 232.33203125 212.002929688 264.999023438 c 0
 212.002929688 274.33203125 213.669921875 284.33203125 217.002929688 294.999023438 c 0
 221.669921875 314.33203125 228.669921875 332.33203125 238.002929688 348.999023438 c 0
 247.3359375 365.666015625 257.668945312 379.999023438 269.001953125 391.999023438 c 0
 279.668945312 403.999023438 291.001953125 414.999023438 303.001953125 424.999023438 c 0
 315.001953125 435.666015625 326.334960938 445.333007812 337.001953125 454 c 0
 347.668945312 462.666992188 357.001953125 471.666992188 365.001953125 481 c 0
 381.692382812 498.975585938 390.038085938 517.568359375 390.038085938 536.779296875 c 0
 390.038085938 554.662109375 388.403320312 586.278320312 365.000976562 605 c 0
 347.819335938 618.36328125 323.045898438 625.045898438 290.678710938 625.045898438 c 0
 289.13671875 625.045898438 287.577148438 625.030273438 286.000976562 625 c 0
 278.000976562 625 270.333984375 623.333007812 263.000976562 620 c 0
 255.000976562 616 247.66796875 611.666992188 241.000976562 607 c 0
 235.000976562 602.333007812 228.333984375 595.666015625 221.000976562 586.999023438 c 0
 213.66796875 578.33203125 208.000976562 570.999023438 204.000976562 564.999023438 c 0
 200.000976562 558.999023438 194.66796875 551.666015625 188.000976562 542.999023438 c 0
 182.000976562 533.666015625 175.333984375 525.999023438 168.000976562 519.999023438 c 0
 161.333984375 513.999023438 154.000976562 510.33203125 146.000976562 508.999023438 c 2
 137.000976562 508.999023438 l 2
 133.66796875 508.999023438 129.66796875 509.666015625 125.000976562 510.999023438 c 0
 120.333984375 512.33203125 113.666992188 514.665039062 105 517.998046875 c 0
 90.3330078125 525.998046875 81 537.331054688 77 551.998046875 c 2
 75 563.998046875 l 2
 75 575.331054688 78.6669921875 588.998046875 86 604.998046875 c 0
 93.3330078125 619.665039062 102.666015625 633.665039062 113.999023438 646.998046875 c 0
 125.33203125 660.998046875 138.999023438 674.665039062 154.999023438 687.998046875 c 0
 170.999023438 701.998046875 189.999023438 713.331054688 211.999023438 721.998046875 c 0
 232.426757812 730.045898438 254.00390625 734.069335938 276.731445312 734.069335938 c 0
 278.48046875 734.069335938 280.236328125 734.045898438 281.999023438 733.998046875 c 0
 357.33203125 733.998046875 414.999023438 716.331054688 454.999023438 680.998046875 c 0
 494.999023438 645.665039062 514.999023438 592.665039062 514.999023438 521.998046875 c 0
 514.999023438 502.665039062 511.666015625 484.998046875 504.999023438 468.998046875 c 0
 498.999023438 452.998046875 490.999023438 438.998046875 480.999023438 426.998046875 c 0
 470.999023438 415.665039062 459.999023438 405.33203125 447.999023438 395.999023438 c 2
 411.999023438 367.999023438 l 2
 399.999023438 358.666015625 388.999023438 349.333007812 378.999023438 340 c 0
 368.999023438 330.666992188 360.33203125 319 352.999023438 305 c 0
 345.666015625 291.666992188 340.666015625 276.666992188 337.999023438 260 c 0
 334.666015625 240 327.333007812 224.666992188 316 214 c 0
 307.333007812 205.333007812 296 201 282 201 c 0xec
265.002929688 -26.001953125 m 2
 241.669921875 -26.001953125 222.002929688 -18.0029296875 206.002929688 -2.0029296875 c 0
 188.002929688 16.6640625 179.002929688 38.3310546875 179.002929688 62.998046875 c 0
 179.002929688 87.6650390625 188.669921875 108.33203125 208.002929688 124.999023438 c 0
 228.669921875 142.999023438 252.336914062 151.999023438 279.00390625 151.999023438 c 0
 303.670898438 151.999023438 324.00390625 143.999023438 340.00390625 127.999023438 c 0
 357.336914062 110.666015625 366.00390625 89.9990234375 366.00390625 65.9990234375 c 0xf4
 366.00390625 41.33203125 357.670898438 20.6650390625 341.00390625 3.998046875 c 0
 324.336914062 -12.6689453125 302.669921875 -22.6689453125 276.002929688 -26.001953125 c 2
 265.002929688 -26.001953125 l 2
EndSplineSet
Validated: 1
EndChar

StartChar: at
Encoding: 64 64 32
Width: 590
GlyphClass: 2
Flags: W
HStem: -141.995 110<228.143 381.131> 105.006 104.999<257.361 317.779> 369.005 101.001<269.14 369.622> 601.005 113.998<250.093 388.154>
VStem: 25 110.996<95.6791 430.758> 148 100.998<212.861 350.422> 329.999 104.8<217.922 335.271> 467.997 97.002<192.56 481.464>
LayerCount: 2
Fore
SplineSet
368 148 m 1
 348.666992188 119.333007812 321 105.005859375 285 105.005859375 c 0
 241.666992188 105.005859375 208 118.672851562 184 146.005859375 c 0
 160 173.338867188 148 214.005859375 148 268.005859375 c 0
 148 294.672851562 151 319.005859375 157 341.005859375 c 0
 163 363.672851562 171 383.005859375 181 399.005859375 c 0
 191.666992188 415.005859375 204 428.672851562 218 440.005859375 c 0
 243.333007812 460.005859375 273 470.005859375 307 470.005859375 c 0
 327.666992188 470.005859375 348 466.338867188 368 459.005859375 c 0
 385.333007812 452.338867188 399 443.005859375 409 431.005859375 c 0
 417 421.672851562 421 412.672851562 421 404.005859375 c 0
 421 399.338867188 419.666992188 394.338867188 417 389.005859375 c 0
 414.333007812 383.672851562 410.666015625 378.672851562 405.999023438 374.005859375 c 0
 401.33203125 369.338867188 395.999023438 366.005859375 389.999023438 364.005859375 c 0
 381.33203125 361.338867188 374.665039062 360.005859375 369.998046875 360.005859375 c 0
 361.998046875 360.005859375 352.331054688 361.338867188 340.998046875 364.005859375 c 0
 337.665039062 364.672851562 332.665039062 366.005859375 325.998046875 368.005859375 c 0
 318.665039062 369.338867188 311.665039062 369.671875 304.998046875 369.004882812 c 0
 298.331054688 368.337890625 291.6640625 366.004882812 284.997070312 362.004882812 c 0
 278.330078125 358.004882812 272.330078125 352.671875 266.997070312 346.004882812 c 0
 261.6640625 339.337890625 257.331054688 330.337890625 253.998046875 319.004882812 c 0
 250.665039062 307.671875 248.998046875 294.671875 248.998046875 280.004882812 c 0
 248.998046875 272.004882812 249.665039062 264.337890625 250.998046875 257.004882812 c 0
 251.665039062 249.671875 253.33203125 242.004882812 255.999023438 234.004882812 c 0
 261.33203125 218.004882812 269.999023438 210.004882812 281.999023438 210.004882812 c 0
 289.33203125 210.004882812 295.999023438 211.337890625 301.999023438 214.004882812 c 0
 307.999023438 216.671875 312.666015625 221.338867188 315.999023438 228.005859375 c 0
 323.999023438 242.672851562 328.666015625 268.005859375 329.999023438 304.005859375 c 0
 330.666015625 320.005859375 341.666015625 332.338867188 362.999023438 341.005859375 c 0
 374.2578125 345.74609375 384.462890625 348.116210938 393.614257812 348.116210938 c 0
 394.758789062 348.116210938 395.887695312 348.079101562 396.999023438 348.004882812 c 0
 404.999023438 348.004882812 411.999023438 347.004882812 417.999023438 345.004882812 c 0
 431.33203125 339.671875 438.33203125 330.004882812 438.999023438 316.004882812 c 0
 438.999023438 314.671875 438.666015625 313.338867188 437.999023438 312.005859375 c 0
 435.865234375 293.340820312 434.798828125 277.021484375 434.798828125 263.048828125 c 0
 434.798828125 259.5546875 434.865234375 256.20703125 434.999023438 253.005859375 c 0
 434.999023438 234.338867188 436.666015625 219.005859375 439.999023438 207.005859375 c 0
 441.33203125 202.338867188 442.665039062 199.005859375 443.998046875 197.005859375 c 0
 445.998046875 193.672851562 448.665039062 192.005859375 451.998046875 192.005859375 c 0
 453.331054688 193.338867188 454.6640625 195.338867188 455.997070312 198.005859375 c 0
 459.330078125 206.005859375 461.997070312 216.338867188 463.997070312 229.005859375 c 0
 466.6640625 253.005859375 467.997070312 275.005859375 467.997070312 295.005859375 c 0
 467.997070312 328.338867188 466.330078125 359.338867188 462.997070312 388.005859375 c 0
 460.330078125 416.005859375 456.663085938 440.005859375 451.99609375 460.005859375 c 0
 447.329101562 480.005859375 441.662109375 497.672851562 434.995117188 513.005859375 c 0
 427.662109375 529.005859375 421.329101562 541.672851562 415.99609375 551.005859375 c 0
 409.99609375 560.338867188 402.663085938 568.338867188 393.99609375 575.005859375 c 0
 385.329101562 581.672851562 377.99609375 586.672851562 371.99609375 590.005859375 c 0
 365.99609375 593.338867188 358.99609375 595.671875 350.99609375 597.004882812 c 0
 342.99609375 599.004882812 336.663085938 600.004882812 331.99609375 600.004882812 c 0
 327.99609375 600.004882812 322.663085938 600.337890625 315.99609375 601.004882812 c 0
 291.99609375 601.004882812 269.329101562 593.337890625 247.99609375 578.004882812 c 0
 226.663085938 562.671875 207.663085938 540.671875 190.99609375 512.004882812 c 0
 174.329101562 483.337890625 160.99609375 447.670898438 150.99609375 405.00390625 c 0
 140.99609375 362.336914062 135.99609375 315.336914062 135.99609375 264.00390625 c 0
 135.99609375 219.336914062 139.329101562 179.336914062 145.99609375 144.00390625 c 0
 152.663085938 108.670898438 161.330078125 80.337890625 171.997070312 59.0048828125 c 0
 182.6640625 37.671875 194.997070312 20.0048828125 208.997070312 6.0048828125 c 0
 222.997070312 -7.9951171875 236.6640625 -17.9951171875 249.997070312 -23.9951171875 c 0
 263.330078125 -29.328125 277.997070312 -31.9951171875 293.997070312 -31.9951171875 c 0
 309.997070312 -31.9951171875 324.6640625 -30.328125 337.997070312 -26.9951171875 c 0
 351.330078125 -23.662109375 362.330078125 -19.9951171875 370.997070312 -15.9951171875 c 0
 379.6640625 -11.9951171875 387.6640625 -6.328125 394.997070312 1.0048828125 c 0
 402.997070312 8.337890625 409.330078125 15.337890625 413.997070312 22.0048828125 c 0
 418.6640625 28.671875 423.997070312 36.671875 429.997070312 46.0048828125 c 0
 432.6640625 51.337890625 434.997070312 55.337890625 436.997070312 58.0048828125 c 0
 438.997070312 60.671875 441.6640625 64.0048828125 444.997070312 68.0048828125 c 0
 447.6640625 72.0048828125 450.331054688 75.337890625 452.998046875 78.0048828125 c 0
 455.665039062 80.0048828125 458.998046875 82.0048828125 462.998046875 84.0048828125 c 0
 466.998046875 86.0048828125 471.665039062 87.0048828125 476.998046875 87.0048828125 c 0
 481.665039062 87.0048828125 486.665039062 86.0048828125 491.998046875 84.0048828125 c 0
 498.665039062 81.337890625 504.33203125 78.0048828125 508.999023438 74.0048828125 c 0
 513.666015625 70.0048828125 517.333007812 65.0048828125 520 59.0048828125 c 0
 522.666992188 53.671875 523.666992188 48.0048828125 523 42.0048828125 c 0
 523 30.671875 520 17.0048828125 514 1.0048828125 c 0
 510 -8.9951171875 506.333007812 -17.662109375 503 -24.9951171875 c 0
 499 -32.328125 493.666992188 -41.328125 487 -51.9951171875 c 0
 480.333007812 -62.662109375 473 -71.9951171875 465 -79.9951171875 c 0
 457 -87.9951171875 447.333007812 -95.9951171875 436 -103.995117188 c 0
 424 -111.995117188 411 -118.995117188 397 -124.995117188 c 0
 383 -130.328125 367 -134.328125 349 -136.995117188 c 0
 331 -140.328125 312.333007812 -141.995117188 293 -141.995117188 c 2
 287 -141.995117188 l 2
 249.666992188 -141.995117188 215 -132.662109375 183 -113.995117188 c 0
 150.333007812 -95.328125 122.333007812 -69.9951171875 99 -37.9951171875 c 0
 75.6669921875 -5.9951171875 57.6669921875 33.0048828125 45 79.0048828125 c 0
 31.6669921875 125.004882812 25 174.671875 25 228.004882812 c 0
 25 287.337890625 29.6669921875 342.670898438 39 394.00390625 c 0
 48.3330078125 445.336914062 61.3330078125 490.669921875 78 530.002929688 c 0
 95.3330078125 568.669921875 115.666015625 602.002929688 138.999023438 630.002929688 c 0
 162.33203125 658.002929688 188.33203125 679.002929688 216.999023438 693.002929688 c 0
 245.666015625 707.002929688 276.333007812 714.3359375 309 715.002929688 c 0
 332.333007812 715.002929688 353.333007812 713.002929688 372 709.002929688 c 0
 391.333007812 705.669921875 410 699.669921875 428 691.002929688 c 0
 446 681.669921875 462 669.669921875 476 655.002929688 c 0
 490 640.3359375 502.666992188 622.002929688 514 600.002929688 c 0
 525.333007812 578.002929688 534.666015625 552.3359375 541.999023438 523.002929688 c 0
 557.33203125 461.669921875 564.999023438 385.002929688 564.999023438 293.002929688 c 0
 564.999023438 242.3359375 557.666015625 197.668945312 542.999023438 159.001953125 c 0
 534.999023438 138.334960938 523.33203125 121.66796875 507.999023438 109.000976562 c 0
 492.666015625 96.333984375 474.333007812 89.6669921875 453 89 c 0
 422.333007812 89 399 99.3330078125 383 120 c 0
 377 128 372 137.333007812 368 148 c 1
EndSplineSet
Validated: 1
EndChar

StartChar: A
Encoding: 65 65 33
Width: 590
GlyphClass: 2
Flags: W
HStem: -5.99902 21G<54.9961 62.9961 522.666 528.666> 251.001 91.998<232.71 388.995>
LayerCount: 2
Fore
SplineSet
229.995117188 331.999023438 m 1
 287.995117188 337.999023438 340.995117188 341.666015625 388.995117188 342.999023438 c 1
 338.995117188 568.999023438 l 1
 310.328125 520.33203125 273.995117188 441.33203125 229.995117188 331.999023438 c 1
118 49 m 0
 110.666992188 25 99.3291015625 8.9990234375 83.99609375 0.9990234375 c 0
 75.3291015625 -3.66796875 66.99609375 -5.9990234375 58.99609375 -5.9990234375 c 0
 50.99609375 -5.9990234375 43.3291015625 -4.333984375 35.99609375 -1.0009765625 c 0
 23.99609375 4.33203125 15.3291015625 12.6650390625 9.99609375 23.998046875 c 0
 5.99609375 32.6650390625 3.99609375 42.1650390625 3.99609375 52.498046875 c 0
 3.99609375 62.8310546875 5.3291015625 73.998046875 7.99609375 85.998046875 c 0
 11.99609375 106.665039062 30.3291015625 154.665039062 62.99609375 229.998046875 c 1
 53.6630859375 238.665039062 48.330078125 249.33203125 46.9970703125 261.999023438 c 2
 46.9970703125 263.999023438 l 2
 46.9970703125 275.33203125 52.6640625 285.999023438 63.9970703125 295.999023438 c 0
 73.330078125 304.666015625 84.9970703125 311.333007812 98.9970703125 316 c 1
 184.997070312 498.666992188 251.6640625 621 298.997070312 683 c 0
 310.330078125 697 320.997070312 707.333007812 330.997070312 714 c 0
 340.997070312 721.333007812 352.330078125 725 364.997070312 725 c 2
 372.997070312 725 l 2
 386.330078125 725 398.330078125 722 408.997070312 716 c 0
 423.6640625 708 432.6640625 695.333007812 435.997070312 678 c 0
 450.6640625 598 474.6640625 485 507.997070312 339 c 0
 526.6640625 257.666992188 541.331054688 197.833984375 551.998046875 159.500976562 c 0
 562.665039062 121.16796875 570.665039062 97.66796875 575.998046875 89.0009765625 c 0
 582.665039062 77.0009765625 585.998046875 65.66796875 585.998046875 55.0009765625 c 2
 585.998046875 49 l 2
 584.665039062 37 580.498046875 26.66796875 573.498046875 18.0009765625 c 0
 566.498046875 9.333984375 558.331054688 2.9990234375 548.998046875 -1.0009765625 c 0
 537.665039062 -4.333984375 530.33203125 -5.9990234375 526.999023438 -5.9990234375 c 0
 518.33203125 -5.9990234375 509.665039062 -3.66796875 500.998046875 0.9990234375 c 0
 485.665039062 8.9990234375 473.33203125 24.66796875 463.999023438 48.0009765625 c 0
 454.666015625 69.333984375 436.999023438 137.000976562 410.999023438 251.000976562 c 1
 327.666015625 247.66796875 252.333007812 241.000976562 185 231.000976562 c 1
 162.333007812 178.333984375 140 117.666992188 118 49 c 0
EndSplineSet
Validated: 1
EndChar

StartChar: B
Encoding: 66 66 34
Width: 590
GlyphClass: 2
Flags: W
HStem: -23 21G<108.333 115.666> -9.65137 90.1543<200.37 240.727> 285.003 96.4492<152 343.74> 605.004 103.999<156.533 348.001>
VStem: 28 121<82.114 137.826 144.104 285.003 383.002 598.597> 403.001 119<431.807 557.715> 440 124.001<157.259 228.28>
LayerCount: 2
Fore
SplineSet
31 41 m 2xba
 32.3330078125 60.3330078125 33.3330078125 93.3369140625 34 140.00390625 c 0
 34 227.336914062 32 324.00390625 28 430.00390625 c 1
 26.6669921875 473.336914062 26 502.50390625 26 517.50390625 c 0
 26 532.50390625 26.5 552.50390625 27.5 577.50390625 c 0
 28.5 602.50390625 29 620.00390625 29 630.00390625 c 0
 29.6669921875 650.670898438 35.833984375 666.50390625 47.5009765625 677.50390625 c 0
 59.16796875 688.50390625 73.66796875 694.00390625 91.0009765625 694.00390625 c 2
 94.0009765625 694.00390625 l 1
 112.000976562 699.336914062 134.333984375 703.336914062 161.000976562 706.00390625 c 0
 171.66796875 707.336914062 183.16796875 708.169921875 195.500976562 708.502929688 c 0
 207.833984375 708.8359375 217.333984375 709.002929688 224.000976562 709.002929688 c 2
 246.000976562 709.002929688 l 1
 258.000976562 709.002929688 l 2
 309.333984375 709.002929688 355.333984375 700.669921875 396.000976562 684.002929688 c 0
 436.000976562 666.669921875 466.66796875 642.002929688 488.000976562 610.002929688 c 0
 510.66796875 576.669921875 522.000976562 537.669921875 522.000976562 493.002929688 c 0xbc
 522.000976562 455.002929688 512.66796875 422.002929688 494.000976562 394.002929688 c 0
 479.333984375 372.669921875 461.000976562 355.669921875 439.000976562 343.002929688 c 1
 453.66796875 336.3359375 468.000976562 328.668945312 482.000976562 320.001953125 c 0
 504.66796875 305.334960938 524.000976562 288.66796875 540.000976562 270.000976562 c 0
 556.000976562 251.333984375 564.000976562 233.000976562 564.000976562 215.000976562 c 2
 564.000976562 214.000976562 l 2
 564.000976562 188.000976562 557.16796875 162.333984375 543.500976562 137.000976562 c 0
 529.833984375 111.66796875 510.166992188 88.5009765625 484.5 67.5009765625 c 0
 458.833007812 46.5009765625 424.666015625 28.66796875 381.999023438 14.0009765625 c 0
 339.33203125 -0.666015625 292.33203125 -9.9990234375 240.999023438 -13.9990234375 c 1
 235.202148438 -11.1005859375 229.341796875 -9.6513671875 223.418945312 -9.6513671875 c 0x7a
 215.71875 -9.6513671875 207.912109375 -12.1005859375 199.999023438 -16.9990234375 c 1
 165.33203125 -19.666015625 143.999023438 -21.3330078125 135.999023438 -22 c 0
 127.33203125 -22.6669921875 119.33203125 -23 111.999023438 -23 c 0
 104.666015625 -23 97.3330078125 -22.3330078125 90 -21 c 2
 88 -21 l 2
 71.3330078125 -21 57.3330078125 -15.3330078125 46 -4 c 0
 36 6 31 19 31 35 c 2
 31 41 l 2xba
149 403.00390625 m 2
 149 383.001953125 l 1
 178.333007812 382.334960938 205 381.834960938 229 381.501953125 c 0
 231.3984375 381.46875 233.76171875 381.452148438 236.090820312 381.452148438 c 0
 257.0625 381.452148438 275.19921875 382.801757812 290.5 385.501953125 c 0
 307.5 388.501953125 321.666992188 392.334960938 333 397.001953125 c 0
 344.333007812 401.668945312 354.333007812 407.3359375 363 414.002929688 c 0
 371.666992188 420.669921875 378.333984375 427.336914062 383.000976562 434.00390625 c 0
 387.66796875 440.670898438 391.500976562 448.170898438 394.500976562 456.50390625 c 0
 397.500976562 464.836914062 399.66796875 472.336914062 401.000976562 479.00390625 c 0
 402.333984375 485.670898438 403.000976562 492.670898438 403.000976562 500.00390625 c 0
 403.000976562 514.670898438 399.66796875 528.170898438 393.000976562 540.50390625 c 0
 386.333984375 552.836914062 377.833984375 563.00390625 367.500976562 571.00390625 c 0
 357.16796875 579.00390625 345.334960938 585.670898438 332.001953125 591.00390625 c 0
 309.502929688 600.37890625 285.831054688 605.06640625 260.98828125 605.06640625 c 0
 259.331054688 605.06640625 257.668945312 605.045898438 256.001953125 605.00390625 c 0
 221.334960938 605.00390625 187.66796875 602.00390625 155.000976562 596.00390625 c 1
 154.333984375 584.00390625 153.666992188 566.00390625 153 542.00390625 c 0
 150.333007812 493.336914062 149 447.00390625 149 403.00390625 c 2
425.5 165.501953125 m 0
 435.166992188 177.834960938 440 189.004882812 440 199.004882812 c 0
 440 204.337890625 436.666992188 210.670898438 430 218.00390625 c 0
 423.333007812 225.336914062 412.666015625 233.169921875 397.999023438 241.502929688 c 0
 383.33203125 249.8359375 362.33203125 258.002929688 334.999023438 266.002929688 c 0
 307.666015625 274.002929688 276.333007812 280.3359375 241 285.002929688 c 1
 152 285.002929688 l 1
 154.666992188 193.002929688 157 124.669921875 159 80.0029296875 c 1
 166.333007812 80.0029296875 177 80.169921875 191 80.5029296875 c 0x7a
 205 80.8359375 217 81.3359375 227 82.0029296875 c 0
 259 83.3359375 289 88.3359375 317 97.0029296875 c 0
 345 105.669921875 367.666992188 116.169921875 385 128.502929688 c 0
 402.333007812 140.8359375 415.833007812 153.168945312 425.5 165.501953125 c 0
EndSplineSet
Validated: 1
EndChar

StartChar: C
Encoding: 67 67 35
Width: 590
GlyphClass: 2
Flags: W
HStem: -30.998 114.001<207.46 387.023> 494.006 246.994<461.919 552.66> 608.006 104.995<323.246 449.261>
VStem: 13.001 124<159.984 372.712> 449.002 127<517.69 584.105>
LayerCount: 2
Fore
SplineSet
568 692 m 0xd8
 574 666 577.001953125 638.338867188 577.001953125 609.005859375 c 0
 577.001953125 589.005859375 576.668945312 577.005859375 576.001953125 573.005859375 c 0
 576.001953125 556.338867188 570.001953125 539.505859375 558.001953125 522.505859375 c 0
 546.001953125 505.505859375 533.001953125 496.338867188 519.001953125 495.005859375 c 0
 516.334960938 494.338867188 513.334960938 494.005859375 510.001953125 494.005859375 c 0xd8
 498.001953125 494.005859375 486.001953125 498.005859375 474.001953125 506.005859375 c 0
 457.334960938 516.672851562 449.001953125 531.005859375 449.001953125 549.005859375 c 0
 449.001953125 553.672851562 449.668945312 565.672851562 451.001953125 585.005859375 c 1
 441.668945312 591.005859375 435.668945312 594.672851562 433.001953125 596.005859375 c 0
 430.334960938 597.338867188 426.66796875 599.338867188 422.000976562 602.005859375 c 0
 413.333984375 606.005859375 404.666992188 608.005859375 396 608.005859375 c 0
 376 608.005859375 354 602.005859375 330 590.005859375 c 0
 306 578.005859375 282.666992188 560.505859375 260 537.505859375 c 0
 237.333007812 514.505859375 216.833007812 488.172851562 198.5 458.505859375 c 0
 180.166992188 428.838867188 165.333984375 395.171875 154.000976562 357.504882812 c 0
 142.66796875 319.837890625 137.000976562 282.004882812 137.000976562 244.004882812 c 0
 137.000976562 217.337890625 143.000976562 191.670898438 155.000976562 167.00390625 c 0
 167.000976562 142.336914062 183.500976562 122.169921875 204.500976562 106.502929688 c 0
 225.500976562 90.8359375 247.333984375 83.0029296875 270.000976562 83.0029296875 c 0
 292.66796875 83.0029296875 314.66796875 85.169921875 336.000976562 89.5029296875 c 0
 357.333984375 93.8359375 376.500976562 99.3359375 393.500976562 106.002929688 c 0
 410.500976562 112.669921875 425.16796875 119.502929688 437.500976562 126.502929688 c 0
 449.833984375 133.502929688 460.666992188 140.669921875 470 148.002929688 c 0
 479.333007812 154.669921875 487.666015625 159.669921875 494.999023438 163.002929688 c 0
 502.999023438 167.002929688 511.83203125 169.002929688 521.499023438 169.002929688 c 0
 531.166015625 169.002929688 540.333007812 166.002929688 549 160.002929688 c 0
 563.666992188 148.669921875 571 135.169921875 571 119.502929688 c 0
 571 103.8359375 562.666992188 86.6689453125 546 68.001953125 c 0
 488 2.001953125 395.333007812 -30.998046875 268 -30.998046875 c 2
 258 -30.998046875 l 2
 226.666992188 -30.998046875 197.333984375 -26.3310546875 170.000976562 -16.998046875 c 0
 142.66796875 -7.6650390625 119.66796875 5.16796875 101.000976562 21.5009765625 c 0
 82.333984375 37.833984375 66.333984375 56.333984375 53.0009765625 77.0009765625 c 0
 39.66796875 97.66796875 29.66796875 119.500976562 23.0009765625 142.500976562 c 0
 16.333984375 165.500976562 13.0009765625 188.66796875 13.0009765625 212.000976562 c 0
 13.0009765625 260.000976562 18.16796875 306.500976562 28.5009765625 351.500976562 c 0
 38.833984375 396.500976562 52.6669921875 437.000976562 70 473.000976562 c 0
 87.3330078125 509.000976562 107.666015625 542.333984375 130.999023438 573.000976562 c 0
 156.33203125 603.66796875 182.999023438 629.000976562 210.999023438 649.000976562 c 0
 238.999023438 669.000976562 268.33203125 684.66796875 298.999023438 696.000976562 c 0
 329.666015625 707.333984375 359.333007812 713.000976562 388 713.000976562 c 0xb8
 411.333007812 713.000976562 433 711.000976562 453 707.000976562 c 1
 457 714.333984375 462 720.666992188 468 726 c 0
 477.333007812 734 487.666015625 738.666992188 498.999023438 740 c 0
 503.666015625 740.666992188 506.333007812 741 507 741 c 2
 508 741 l 2
 518.666992188 741 529.666992188 737.666992188 541 731 c 0
 555 721.666992188 564 708.666992188 568 692 c 0xd8
EndSplineSet
Validated: 1
EndChar

StartChar: D
Encoding: 68 68 36
Width: 590
GlyphClass: 2
Flags: W
HStem: -31 109.998<163.457 388.05> 694 20G<66.3364 86.3364>
VStem: 10.4043 121.477<109.381 166.726 194.179 614.997> 18.0039 125<100.593 519.491> 459.006 119.992<169.195 388.265>
LayerCount: 2
Fore
SplineSet
16 62 m 2xe8
 17.3330078125 84.6669921875 18.00390625 120.331054688 18.00390625 168.998046875 c 0xd8
 18.00390625 256.998046875 16.00390625 361.331054688 12.00390625 481.998046875 c 1
 11.3369140625 517.998046875 10.8369140625 541.831054688 10.50390625 553.498046875 c 0
 10.4375 555.830078125 10.404296875 558.401367188 10.404296875 561.212890625 c 0
 10.404296875 572.467773438 10.9375 587.5625 12.00390625 606.499023438 c 0
 13.3369140625 630.166015625 14.00390625 644.666015625 14.00390625 649.999023438 c 1
 14.6708984375 670.666015625 20.6708984375 686.333007812 32.00390625 697 c 0
 43.3369140625 708.333007812 57.669921875 714 75.0029296875 714 c 0
 97.669921875 714 127.669921875 710.666992188 165.002929688 704 c 0
 188.3359375 700 212.168945312 694.5 236.501953125 687.5 c 0
 260.834960938 680.5 287.16796875 670.666992188 315.500976562 658 c 0
 343.833984375 645.333007812 370.666992188 630.833007812 396 614.5 c 0
 421.333007812 598.166992188 445.666015625 577.333984375 468.999023438 552.000976562 c 0
 490.999023438 527.333984375 510.166015625 500.166992188 526.499023438 470.5 c 0
 542.83203125 440.833007812 555.665039062 405.833007812 564.998046875 365.5 c 0
 574.331054688 325.166992188 578.998046875 281.666992188 578.998046875 235 c 0
 578.998046875 211.666992188 575.665039062 187.666992188 568.998046875 163 c 0
 562.331054688 138.333007812 552.331054688 114.666015625 538.998046875 91.9990234375 c 0
 525.665039062 69.33203125 509.83203125 48.83203125 491.499023438 30.4990234375 c 0
 473.166015625 12.166015625 450.333007812 -2.6669921875 423 -14 c 0
 395 -25.3330078125 365.333007812 -31 334 -31 c 2
 324 -31 l 2
 291.333007812 -31 258.333007812 -29.5 225 -26.5 c 0
 191.666992188 -23.5 165 -20 145 -16 c 0
 125 -12 108.5 -8.3330078125 95.5 -5 c 0
 82.5 -1.6669921875 74.6669921875 0 72 0 c 0
 55.3330078125 0 41.3330078125 5.6669921875 30 17 c 0
 20.625 26.375 15.9375 38.09375 15.9375 52.1552734375 c 0
 15.9375 53.0927734375 15.9580078125 54.041015625 16 55 c 2
 16 62 l 2xe8
227.50390625 85.9970703125 m 0
 257.836914062 81.330078125 293.005859375 78.998046875 333.005859375 78.998046875 c 0
 350.338867188 78.998046875 366.838867188 84.6650390625 382.505859375 95.998046875 c 0
 398.172851562 107.331054688 411.505859375 122.1640625 422.505859375 140.497070312 c 0
 433.505859375 158.830078125 442.338867188 179.330078125 449.005859375 201.997070312 c 0
 455.672851562 224.6640625 459.005859375 246.6640625 459.005859375 267.997070312 c 0
 459.005859375 388.6640625 405.672851562 480.997070312 299.005859375 544.997070312 c 0
 261.005859375 567.6640625 205.672851562 590.997070312 133.005859375 614.997070312 c 1
 132.255859375 584.499023438 131.880859375 553.485351562 131.880859375 521.955078125 c 0xe8
 131.880859375 469.401367188 132.922851562 415.416015625 135.005859375 359.997070312 c 0
 136.338867188 331.330078125 137.671875 289.497070312 139.004882812 234.497070312 c 0
 140.337890625 179.497070312 141.670898438 137.330078125 143.00390625 107.997070312 c 1
 169.00390625 97.9970703125 197.170898438 90.6640625 227.50390625 85.9970703125 c 0
EndSplineSet
Validated: 1
EndChar

StartChar: E
Encoding: 69 69 37
Width: 590
GlyphClass: 2
Flags: W
HStem: -20 112.001<150.752 494.955> -6 115<234.933 552.529> 301.002 108.999<146.002 419.637> 319.002 106<226.85 539.107> 590 107.999<151.198 554.709>
VStem: 23.001 124.001<95.1892 301.002 410.001 581.907>
LayerCount: 2
Fore
SplineSet
90 704 m 2x8c
 106.666992188 704 120.672851562 698.666015625 132.005859375 687.999023438 c 1
 189.338867188 694.666015625 263.002929688 697.999023438 353.002929688 697.999023438 c 0
 376.3359375 697.999023438 398.005859375 697.666015625 418.005859375 696.999023438 c 0
 459.338867188 695.666015625 491.671875 693.666015625 515.004882812 690.999023438 c 0
 533.671875 688.999023438 547.171875 683.83203125 555.504882812 675.499023438 c 0
 563.837890625 667.166015625 568.337890625 655.999023438 569.004882812 641.999023438 c 0
 569.004882812 634.666015625 568.171875 627.833007812 566.504882812 621.5 c 0
 564.837890625 615.166992188 562.337890625 609.333984375 559.004882812 604.000976562 c 0
 555.004882812 597.333984375 548.671875 592.333984375 540.004882812 589.000976562 c 0
 534.004882812 586.333984375 527.671875 585.000976562 521.004882812 585.000976562 c 0
 518.337890625 585.000976562 515.670898438 585.333984375 513.00390625 586.000976562 c 0
 474.673828125 588.778320312 434.724609375 590.166992188 393.155273438 590.166992188 c 0
 384.8359375 590.166992188 376.452148438 590.111328125 368.00390625 590 c 2
 314.00390625 590 l 2
 250.670898438 588.666992188 195.670898438 585.333984375 149.00390625 580.000976562 c 1
 146.336914062 522.000976562 145.00390625 465.333984375 145.00390625 410.000976562 c 1xac
 196.336914062 410.66796875 265.669921875 413.334960938 353.002929688 418.001953125 c 0
 439.002929688 422.668945312 487.334960938 425.001953125 498.001953125 425.001953125 c 0
 517.334960938 425.001953125 531.168945312 420.334960938 539.501953125 411.001953125 c 0
 547.834960938 401.668945312 552.001953125 390.001953125 552.001953125 376.001953125 c 0
 552.001953125 360.001953125 548.668945312 347.334960938 542.001953125 338.001953125 c 0
 532.668945312 326.001953125 518.001953125 319.668945312 498.001953125 319.001953125 c 0x1c
 486.001953125 319.001953125 434.334960938 316.334960938 343.001953125 311.001953125 c 0
 249.668945312 305.001953125 184.001953125 301.668945312 146.001953125 301.001953125 c 1
 146.668945312 284.334960938 147.001953125 268.16796875 147.001953125 252.500976562 c 2
 147.001953125 203.000976562 l 2
 147.668945312 158.333984375 149.001953125 127.333984375 151.001953125 110.000976562 c 0
 151.668945312 104.000976562 152.3359375 99.0009765625 153.002929688 95.0009765625 c 0
 166.3359375 93.0009765625 186.168945312 92.0009765625 212.501953125 92.0009765625 c 0xac
 238.834960938 92.0009765625 272.001953125 92.66796875 312.001953125 94.0009765625 c 0
 405.334960938 97.333984375 464.001953125 101.666992188 488.001953125 107 c 0
 498.001953125 108.333007812 507.168945312 109 515.501953125 109 c 0
 523.834960938 109 531.16796875 107.333007812 537.500976562 104 c 0
 543.833984375 100.666992188 549.000976562 97.1669921875 553.000976562 93.5 c 0
 557.000976562 89.8330078125 560.16796875 85.3330078125 562.500976562 80 c 0
 564.833984375 74.6669921875 566.500976562 70 567.500976562 66 c 0
 568.500976562 62 569.004882812 57.6669921875 569.004882812 53 c 0
 569.004882812 37 563.66796875 23 553.000976562 11 c 0
 543.000976562 -0.3330078125 529.000976562 -6.3330078125 511.000976562 -7 c 1
 505.66796875 1.6669921875 500.334960938 2 495.001953125 -6 c 1
 492.001953125 -6 l 2x4c
 476.668945312 -6 447.668945312 -7.3330078125 405.001953125 -10 c 0
 361.001953125 -12.6669921875 316.168945312 -15 270.501953125 -17 c 0
 224.834960938 -19 190.334960938 -20 167.001953125 -20 c 0
 144.334960938 -20 125.66796875 -19.3330078125 111.000976562 -18 c 0
 92.333984375 -16.6669921875 74.333984375 -8 57.0009765625 8 c 0
 39.66796875 24 29.66796875 43 27.0009765625 65 c 0
 25.0009765625 81 23.66796875 109 23.0009765625 149 c 0
 23.0009765625 185.666992188 23.333984375 222.5 24.0009765625 259.5 c 0
 24.66796875 296.5 25.0009765625 327.833007812 25.0009765625 353.5 c 0
 25.0009765625 379.166992188 24.333984375 415 23.0009765625 461 c 0
 22.333984375 499.666992188 21.833984375 525.5 21.5009765625 538.5 c 0
 21.4345703125 541.098632812 21.4013671875 543.916992188 21.4013671875 546.955078125 c 0
 21.4013671875 559.115234375 21.9345703125 574.796875 23.0009765625 594 c 0
 24.333984375 618 25.0009765625 633 25.0009765625 639 c 2
 25.0009765625 640 l 2
 25.66796875 660.666992188 31.66796875 676.5 43.0009765625 687.5 c 0
 54.333984375 698.5 68.6669921875 704 86 704 c 2
 90 704 l 2x8c
EndSplineSet
Validated: 1
EndChar

StartChar: F
Encoding: 70 70 38
Width: 590
GlyphClass: 2
Flags: W
HStem: -22.002 21G<85.3325 93.6655> 313.498 106.502<145.999 502.152> 597 109.099<152.966 554.043> 695 20G<90.6665 99.6665>
VStem: 23 121.749<39.4946 142.728 166.745 310.581 416 589> 27 127.999<-3.56057 304.932>
LayerCount: 2
Fore
SplineSet
91 715 m 0xd8
 108.333007812 715 122.333007812 709.33203125 133 697.999023438 c 1
 210.397460938 703.3984375 285.905273438 706.098632812 359.522460938 706.098632812 c 0
 367.705078125 706.098632812 375.864257812 706.065429688 384 705.999023438 c 0
 437.333007812 705.999023438 481 704.666015625 515 701.999023438 c 0
 533.666992188 700.666015625 547.166992188 695.666015625 555.5 686.999023438 c 0
 563.833007812 678.33203125 568.333007812 666.999023438 569 652.999023438 c 2
 569 651.999023438 l 2
 569 636.666015625 564.166992188 623.333007812 554.5 612 c 0
 544.833007812 600.666992188 530.333007812 595 511 595 c 2
 509 595 l 2
 481.500976562 596.5 452.688476562 597.25 422.565429688 597.25 c 0
 412.522460938 597.25 402.333984375 597.166992188 392 597 c 0
 314.666992188 597 233.666992188 594.333007812 149 589 c 1
 148.333007812 579 147.666015625 563.666992188 146.999023438 543 c 0
 145.499023438 513.500976562 144.749023438 485.501953125 144.749023438 459.002929688 c 0xe8
 144.749023438 450.16796875 144.83203125 441.500976562 144.999023438 433 c 2
 144.999023438 416 l 1
 172.33203125 418.666992188 201.999023438 420 233.999023438 420 c 0
 242.666015625 420 251.333007812 419.666992188 260 419 c 0
 308 418.333007812 351.333007812 416.666015625 390 413.999023438 c 0
 429.333007812 411.33203125 458.833007812 408.165039062 478.5 404.498046875 c 0
 498.166992188 400.831054688 511.833984375 395.1640625 519.500976562 387.497070312 c 0
 527.16796875 379.830078125 531.66796875 369.330078125 533.000976562 355.997070312 c 0
 533.000976562 341.997070312 529.66796875 329.6640625 523.000976562 318.997070312 c 0
 518.333984375 312.330078125 511.666992188 307.330078125 503 303.997070312 c 0
 497 301.997070312 490.333007812 300.997070312 483 300.997070312 c 2
 476 300.997070312 l 2
 455.333007812 304.330078125 425.333007812 307.330078125 386 309.997070312 c 0
 348.662109375 312.368164062 310.270507812 313.553710938 270.825195312 313.553710938 c 0
 265.899414062 313.553710938 260.958007812 313.53515625 256 313.498046875 c 0
 211.333007812 313.165039062 174.666015625 311.665039062 145.999023438 308.998046875 c 1
 149.33203125 222.331054688 152.33203125 130.998046875 154.999023438 34.998046875 c 0
 152.999023438 16.998046875 144.33203125 2.998046875 128.999023438 -7.001953125 c 0
 115.666015625 -16.3349609375 101.33203125 -21.3349609375 85.9990234375 -22.001953125 c 0
 84.666015625 -22.001953125 83.6669921875 -21.6689453125 83 -21.001953125 c 0
 66.3330078125 -21.001953125 52.3330078125 -15.3349609375 41 -4.001953125 c 0
 31.625 5.373046875 26.9375 17.3837890625 26.9375 32.0322265625 c 0
 26.9375 33.0087890625 26.9580078125 33.998046875 27 34.998046875 c 2
 27 40.998046875 l 2xe4
 28.3330078125 61.6650390625 29 96.33203125 29 144.999023438 c 0
 29 236.999023438 27 338.999023438 23 450.999023438 c 0
 21.6669921875 494.33203125 21 523.499023438 21 538.499023438 c 0
 21 553.499023438 21.5 573.499023438 22.5 598.499023438 c 0
 23.5 623.499023438 24.3330078125 640.666015625 25 649.999023438 c 0
 25.6669921875 670.666015625 31.6669921875 686.333007812 43 697 c 0
 54.3330078125 708.333007812 68.666015625 714 85.9990234375 714 c 0
 88.666015625 714.666992188 90.3330078125 715 91 715 c 0xd8
EndSplineSet
Validated: 1
EndChar

StartChar: G
Encoding: 71 71 39
Width: 590
GlyphClass: 2
Flags: W
HStem: -30.9951 113.997<205.076 329.133> 619.005 104.999<322.596 460.145>
VStem: 11.0049 123.998<160.189 376.151>
LayerCount: 2
Fore
SplineSet
339 -16 m 0
 312.333007812 -26 285.671875 -30.9951171875 259.004882812 -30.9951171875 c 0
 226.337890625 -30.9951171875 196.004882812 -26.328125 168.004882812 -16.9951171875 c 0
 140.671875 -7.662109375 117.838867188 5.1708984375 99.505859375 21.50390625 c 0
 81.1728515625 37.8369140625 65.1728515625 56.3369140625 51.505859375 77.00390625 c 0
 37.8388671875 97.6708984375 27.671875 119.50390625 21.0048828125 142.50390625 c 0
 14.337890625 165.50390625 11.0048828125 188.670898438 11.0048828125 212.00390625 c 0
 11.0048828125 260.670898438 16.171875 308.00390625 26.5048828125 354.00390625 c 0
 36.837890625 400.00390625 50.6708984375 441.336914062 68.00390625 478.00390625 c 0
 85.3369140625 514.670898438 105.669921875 548.670898438 129.002929688 580.00390625 c 0
 154.3359375 610.670898438 181.168945312 636.50390625 209.501953125 657.50390625 c 0
 237.834960938 678.50390625 267.001953125 694.670898438 297.001953125 706.00390625 c 0
 327.668945312 718.00390625 358.001953125 724.00390625 388.001953125 724.00390625 c 0
 418.001953125 724.00390625 451.668945312 717.336914062 489.001953125 704.00390625 c 0
 525.001953125 690.670898438 548.668945312 678.337890625 560.001953125 667.004882812 c 0
 572.001953125 655.004882812 578.334960938 640.671875 579.001953125 624.004882812 c 0
 579.001953125 616.004882812 577.334960938 607.337890625 574.001953125 598.004882812 c 0
 570.001953125 586.004882812 561.334960938 577.337890625 548.001953125 572.004882812 c 0
 541.334960938 569.337890625 534.66796875 568.004882812 528.000976562 568.004882812 c 0
 520.66796875 568.004882812 514.334960938 569.004882812 509.001953125 571.004882812 c 0
 503.668945312 573.004882812 493.668945312 578.337890625 479.001953125 587.004882812 c 0
 464.334960938 595.671875 449.334960938 603.171875 434.001953125 609.504882812 c 0
 418.668945312 615.837890625 405.3359375 619.004882812 394.002929688 619.004882812 c 0
 374.002929688 619.004882812 352.002929688 612.837890625 328.002929688 600.504882812 c 0
 304.002929688 588.171875 280.8359375 570.171875 258.502929688 546.504882812 c 0
 236.169921875 522.837890625 215.669921875 495.670898438 197.002929688 465.00390625 c 0
 178.3359375 434.336914062 163.3359375 399.669921875 152.002929688 361.002929688 c 0
 140.669921875 322.3359375 135.002929688 283.668945312 135.002929688 245.001953125 c 0
 135.002929688 218.334960938 141.002929688 192.501953125 153.002929688 167.501953125 c 0
 165.002929688 142.501953125 181.502929688 122.168945312 202.502929688 106.501953125 c 0
 223.502929688 90.8349609375 245.669921875 83.001953125 269.002929688 83.001953125 c 0
 284.3359375 83.001953125 300.002929688 87.501953125 316.002929688 96.501953125 c 0
 332.002929688 105.501953125 347.002929688 117.334960938 361.002929688 132.001953125 c 0
 375.002929688 146.668945312 388.3359375 163.3359375 401.002929688 182.002929688 c 0
 420.3359375 210.669921875 435.668945312 240.002929688 447.001953125 270.002929688 c 1
 408.334960938 268.002929688 369.334960938 264.502929688 330.001953125 259.502929688 c 0
 290.668945312 254.502929688 263.3359375 248.3359375 248.002929688 241.002929688 c 0
 240.002929688 237.002929688 232.002929688 235.002929688 224.002929688 235.002929688 c 0
 216.002929688 235.002929688 208.002929688 237.3359375 200.002929688 242.002929688 c 0
 185.3359375 250.002929688 176.668945312 261.3359375 174.001953125 276.002929688 c 0
 173.334960938 279.3359375 173.001953125 282.668945312 173.001953125 286.001953125 c 0
 173.001953125 300.001953125 178.668945312 312.668945312 190.001953125 324.001953125 c 0
 198.001953125 332.001953125 209.001953125 339.001953125 223.001953125 345.001953125 c 0
 245.001953125 355.001953125 290.334960938 362.334960938 359.001953125 367.001953125 c 0
 408.334960938 370.334960938 449.66796875 372.001953125 483.000976562 372.001953125 c 2
 516.000976562 372.001953125 l 2
 535.333984375 370.668945312 549.333984375 366.668945312 558.000976562 360.001953125 c 0
 569.333984375 351.334960938 575.000976562 337.66796875 575.000976562 319.000976562 c 0
 575.000976562 299.000976562 567.66796875 284.66796875 553.000976562 276.000976562 c 0
 553.000976562 274.000976562 552.333984375 270.000976562 551.000976562 264.000976562 c 0
 550.333984375 260.66796875 549.666992188 255.000976562 549 247.000976562 c 0
 545.666992188 218.333984375 532.333984375 181.666992188 509.000976562 137 c 0
 497.66796875 116.333007812 483.66796875 96 467.000976562 76 c 0
 449.66796875 56 430.66796875 38.1669921875 410.000976562 22.5 c 0
 389.333984375 6.8330078125 365.666992188 -6 339 -16 c 0
EndSplineSet
Validated: 1
EndChar

StartChar: H
Encoding: 72 72 40
Width: 590
GlyphClass: 2
Flags: W
HStem: -21.999 21G<90.3335 98.6665 482.333 491> 312.001 86.0049<162.997 369.943> 694.003 20G<93.3306 112.997 485.666 505.333>
VStem: 38.498 122.499<-3.04591 184.934 189.06 312.001 398.006 696.499> 422.999 128.001<-5.04489 337.626> 432.999 124<32.915 341.001 420.784 696.468>
LayerCount: 2
Fore
SplineSet
31.998046875 33 m 2xf4
 31.998046875 41.0048828125 l 2
 33.3310546875 59.0048828125 33.998046875 103.671875 33.998046875 175.004882812 c 0
 33.998046875 215.671875 34.8310546875 265.171875 36.498046875 323.504882812 c 0
 38.1650390625 381.837890625 38.998046875 416.837890625 38.998046875 428.504882812 c 2
 38.998046875 463.504882812 l 2
 38.998046875 475.171875 38.8310546875 494.671875 38.498046875 522.004882812 c 0
 38.1650390625 549.337890625 37.998046875 567.504882812 37.998046875 576.504882812 c 0
 37.998046875 585.504882812 38.1650390625 594.671875 38.498046875 604.004882812 c 0
 38.8310546875 613.337890625 38.998046875 619.004882812 38.998046875 621.004882812 c 0
 38.998046875 623.004882812 39.1650390625 625.671875 39.498046875 629.004882812 c 0
 39.8310546875 632.337890625 39.998046875 635.504882812 39.998046875 638.504882812 c 2
 39.998046875 646.504882812 l 1
 39.998046875 650.004882812 l 2
 40.6650390625 670.671875 46.998046875 686.3359375 58.998046875 697.002929688 c 0
 70.3310546875 708.3359375 84.6640625 714.002929688 101.997070312 714.002929688 c 2
 104.997070312 714.002929688 l 2
 120.997070312 714.002929688 134.6640625 709.3359375 145.997070312 700.002929688 c 0
 159.330078125 689.3359375 166.330078125 673.005859375 166.997070312 651.005859375 c 0
 166.997070312 643.672851562 165.997070312 629.005859375 163.997070312 607.005859375 c 0
 161.997070312 585.005859375 160.997070312 565.172851562 160.997070312 547.505859375 c 0
 160.997070312 529.838867188 161.330078125 505.005859375 161.997070312 473.005859375 c 0
 162.6640625 441.005859375 162.997070312 416.005859375 162.997070312 398.005859375 c 1
 220.997070312 399.338867188 291.6640625 405.338867188 374.997070312 416.005859375 c 0
 399.6640625 419.338867188 418.331054688 421.671875 430.998046875 423.004882812 c 0
 430.998046875 425.671875 430.831054688 430.171875 430.498046875 436.504882812 c 0
 430.165039062 442.837890625 429.83203125 457.670898438 429.499023438 481.00390625 c 0
 429.166015625 504.336914062 428.999023438 522.50390625 428.999023438 535.50390625 c 0
 428.999023438 548.50390625 429.498046875 569.00390625 430.498046875 597.00390625 c 0
 431.498046875 625.00390625 432.33203125 642.00390625 432.999023438 648.00390625 c 0
 433.666015625 669.336914062 439.666015625 685.669921875 450.999023438 697.002929688 c 0
 462.999023438 708.3359375 477.33203125 714.002929688 493.999023438 714.002929688 c 2
 496.999023438 714.002929688 l 2
 513.666015625 714.002929688 527.666015625 709.3359375 538.999023438 700.002929688 c 0
 551.666015625 689.3359375 557.999023438 673.668945312 557.999023438 653.001953125 c 0
 557.999023438 640.334960938 557.666015625 615.001953125 556.999023438 577.001953125 c 0
 556.33203125 530.334960938 555.83203125 488.501953125 555.499023438 451.501953125 c 0
 555.387695312 439.180664062 555.333007812 427.709960938 555.333007812 417.088867188 c 0
 555.333007812 395.815429688 555.5546875 377.954101562 556 363.501953125 c 0
 556.666992188 341.834960938 556.999023438 321.66796875 556.999023438 303.000976562 c 0xf4
 556.999023438 266.333984375 556 219.500976562 554 162.500976562 c 0
 552 105.500976562 551 65.66796875 551 43.0009765625 c 2
 551 35.0009765625 l 2
 549 17.0009765625 541 3.0009765625 527 -6.9990234375 c 0
 513.666992188 -16.33203125 499 -21.33203125 483 -21.9990234375 c 0
 481.666992188 -21.9990234375 480.666992188 -21.666015625 480 -20.9990234375 c 0
 463.333007812 -20.9990234375 449.666015625 -15.33203125 438.999023438 -3.9990234375 c 0
 428.33203125 6.0009765625 422.999023438 19.333984375 422.999023438 36.0009765625 c 2
 422.999023438 43.0009765625 l 1xf8
 429.666015625 127.000976562 432.999023438 220.333984375 432.999023438 323.000976562 c 2
 432.999023438 341.000976562 l 1
 410.999023438 339.000976562 368.499023438 333.833984375 305.499023438 325.500976562 c 0
 242.499023438 317.16796875 193.999023438 312.66796875 159.999023438 312.000976562 c 1
 159.999023438 303.000976562 l 2
 157.999023438 269.66796875 156.999023438 231.000976562 156.999023438 187.000976562 c 0
 156.999023438 143.000976562 157.999023438 92.66796875 159.999023438 36.0009765625 c 0
 157.999023438 17.333984375 149.33203125 3.0009765625 133.999023438 -6.9990234375 c 0
 120.666015625 -16.33203125 106.333007812 -21.33203125 91 -21.9990234375 c 0
 89.6669921875 -21.9990234375 88.6669921875 -21.666015625 88 -20.9990234375 c 0
 71.3330078125 -20.9990234375 57.3330078125 -15.33203125 46 -3.9990234375 c 0
 36.6669921875 5.333984375 31.998046875 17.6669921875 31.998046875 33 c 2xf4
EndSplineSet
Validated: 1
EndChar

StartChar: I
Encoding: 73 73 41
Width: 590
GlyphClass: 2
Flags: W
HStem: -11.001 102.999<37.5044 216.312 360 420.94 424.959 511 514 556.104> -7.00098 98.999<360 511 514 556.104> 599.998 110.001<45.0194 230.002>
VStem: 224.002 135.998<92.998 192.728> 231.002 134.999<94.249 597.999>
LayerCount: 2
Fore
SplineSet
174 -12 m 1x70
 130 -13.3330078125 99.66796875 -14.001953125 83.0009765625 -14.001953125 c 0
 63.0009765625 -14.001953125 47.66796875 -9.6689453125 37.0009765625 -1.001953125 c 0
 25.66796875 7.6650390625 20.0009765625 18.998046875 20.0009765625 32.998046875 c 2
 20.0009765625 35.998046875 l 2
 20.0009765625 49.3310546875 24.833984375 60.998046875 34.5009765625 70.998046875 c 0
 44.16796875 80.998046875 59.3349609375 86.3310546875 80.001953125 86.998046875 c 0
 106.668945312 88.3310546875 154.668945312 89.6640625 224.001953125 90.9970703125 c 1x70
 228.668945312 160.330078125 231.001953125 232.330078125 231.001953125 306.997070312 c 0
 231.001953125 346.330078125 230.334960938 386.330078125 229.001953125 426.997070312 c 0
 227.668945312 455.6640625 227.001953125 486.6640625 227.001953125 519.997070312 c 2
 227.001953125 540.997070312 l 2
 227.001953125 547.6640625 227.501953125 557.831054688 228.501953125 571.498046875 c 0
 229.501953125 585.165039062 230.001953125 594.665039062 230.001953125 599.998046875 c 1
 191.334960938 600.665039062 162.66796875 600.998046875 144.000976562 600.998046875 c 0
 126.66796875 600.998046875 109.000976562 600.665039062 91.0009765625 599.998046875 c 2
 89.0009765625 599.998046875 l 2
 70.333984375 599.998046875 55.5009765625 604.665039062 44.5009765625 613.998046875 c 0
 33.5009765625 623.331054688 27.66796875 635.998046875 27.0009765625 651.998046875 c 2
 27.0009765625 653.998046875 l 2
 27.0009765625 667.998046875 32.16796875 680.331054688 42.5009765625 690.998046875 c 0
 52.833984375 701.665039062 68.333984375 707.33203125 89.0009765625 707.999023438 c 0
 146.333984375 709.33203125 201.333984375 709.999023438 254.000976562 709.999023438 c 0
 358.66796875 709.999023438 444.333007812 706.999023438 511 700.999023438 c 0
 526.333007812 699.666015625 538.66796875 695.333007812 548.000976562 688 c 0
 560.66796875 678.666992188 567.334960938 665.666992188 568.001953125 649 c 2
 568.001953125 648 l 2
 568.001953125 633.333007812 563.668945312 619.666015625 555.001953125 606.999023438 c 0
 550.334960938 599.666015625 543.66796875 593.999023438 535.000976562 589.999023438 c 0
 529.66796875 587.33203125 523.66796875 585.999023438 517.000976562 585.999023438 c 0
 513.66796875 585.999023438 509.66796875 586.666015625 505.000976562 587.999023438 c 0
 486.333984375 590.666015625 440.333984375 593.999023438 367.000976562 597.999023438 c 1
 367.000976562 590.666015625 366.333984375 577.333007812 365.000976562 558 c 0
 364.333984375 539.333007812 364.000976562 524.833007812 364.000976562 514.5 c 2
 364.000976562 484 l 2
 364.000976562 444.666992188 364.333984375 412.166992188 365.000976562 386.5 c 0
 365.66796875 360.833007812 366.000976562 334.666015625 366.000976562 307.999023438 c 0x68
 366.000976562 281.33203125 365.16796875 243.665039062 363.500976562 194.998046875 c 0
 361.833984375 146.331054688 360.666992188 112.331054688 360 92.998046875 c 1
 388 92.998046875 411 92.6650390625 429 91.998046875 c 2
 511 91.998046875 l 1xb0
 511 97.3310546875 511.333007812 97.3310546875 512 91.998046875 c 1
 512 97.3310546875 512.33203125 97.3310546875 512.999023438 91.998046875 c 1
 512.999023438 97.3310546875 513.333007812 97.3310546875 514 91.998046875 c 1x70
 514 97.3310546875 514.333007812 97.3310546875 515 91.998046875 c 1
 534.333007812 91.998046875 548.166015625 87.498046875 556.499023438 78.498046875 c 0
 564.83203125 69.498046875 569.33203125 58.3310546875 569.999023438 44.998046875 c 2
 569.999023438 43.9990234375 l 2
 569.999023438 37.33203125 569.334960938 30.9990234375 568.001953125 24.9990234375 c 0
 566.668945312 18.9990234375 564.333007812 12.9990234375 561 6.9990234375 c 0
 556.333007812 -0.333984375 549.666015625 -5.333984375 540.999023438 -8.0009765625 c 0
 535.666015625 -10.0009765625 530.666015625 -11.0009765625 525.999023438 -11.0009765625 c 2
 512.999023438 -11.0009765625 l 2xb0
 494.999023438 -8.333984375 464.999023438 -7.0009765625 422.999023438 -7.0009765625 c 0
 378.999023438 -7.0009765625 339.33203125 -7.333984375 303.999023438 -8.0009765625 c 1
 285.942382812 -5.22265625 267.88671875 -3.833984375 249.830078125 -3.833984375 c 0
 174 -12 l 1x70
EndSplineSet
Validated: 1
EndChar

StartChar: J
Encoding: 74 74 42
Width: 590
GlyphClass: 2
Flags: W
HStem: -35 125.998<189.069 291.459> 599.998 110.002<49.5039 292.002 413 520.844>
VStem: 17.5029 114.499<150.857 256.964> 291.752 121.248<425.658 596.001> 295.002 125.998<103.937 595.189>
LayerCount: 2
Fore
SplineSet
418 217 m 0xe8
 406.666992188 101 383.002929688 26.3330078125 347.002929688 -7 c 0
 327.669921875 -25.6669921875 304.669921875 -35 278.002929688 -35 c 0
 251.3359375 -35 225.502929688 -30.6669921875 200.502929688 -22 c 0
 175.502929688 -13.3330078125 154.002929688 -2.3330078125 136.002929688 11 c 0
 118.669921875 25 102.836914062 40.1669921875 88.50390625 56.5 c 0
 74.1708984375 72.8330078125 62.1708984375 89 52.50390625 105 c 0
 42.8369140625 121 35.169921875 135.666992188 29.5029296875 149 c 0
 23.8359375 162.333007812 20.3359375 173 19.0029296875 181 c 0
 17.0029296875 188.333007812 16.5029296875 196.5 17.5029296875 205.5 c 0
 18.5029296875 214.5 20.0029296875 223 22.0029296875 231 c 0
 24.669921875 240.333007812 30.0029296875 248.666015625 38.0029296875 255.999023438 c 0
 46.0029296875 263.33203125 56.3359375 267.999023438 69.0029296875 269.999023438 c 0
 73.0029296875 270.666015625 77.0029296875 270.999023438 81.0029296875 270.999023438 c 0
 94.3359375 270.999023438 105.668945312 266.999023438 115.001953125 258.999023438 c 0
 126.334960938 248.33203125 132.001953125 234.665039062 132.001953125 217.998046875 c 0
 132.001953125 201.998046875 137.334960938 182.998046875 148.001953125 160.998046875 c 0
 154.668945312 148.331054688 162.668945312 136.998046875 172.001953125 126.998046875 c 0
 181.334960938 116.998046875 194.001953125 108.498046875 210.001953125 101.498046875 c 0
 226.001953125 94.498046875 244.001953125 90.998046875 264.001953125 90.998046875 c 0
 264.668945312 90.998046875 265.3359375 91.3310546875 266.002929688 91.998046875 c 0
 270.669921875 95.3310546875 275.002929688 102.998046875 279.002929688 114.998046875 c 0
 288.3359375 143.665039062 293.668945312 186.998046875 295.001953125 244.998046875 c 2
 295.001953125 246.998046875 l 1
 295.001953125 267.498046875 l 2xe8
 295.001953125 279.831054688 294.668945312 312.998046875 294.001953125 366.998046875 c 0
 292.501953125 426.99609375 291.751953125 485.682617188 291.751953125 543.055664062 c 0
 291.751953125 562.182617188 291.834960938 581.163085938 292.001953125 599.998046875 c 1
 254.3359375 600.998046875 219.0859375 601.498046875 186.251953125 601.498046875 c 0
 153.418945312 601.498046875 123.001953125 600.998046875 95.001953125 599.998046875 c 2
 93.001953125 599.998046875 l 2
 74.3349609375 599.998046875 59.66796875 604.665039062 49.0009765625 613.998046875 c 0
 38.333984375 623.331054688 32.6669921875 635.998046875 32 651.998046875 c 0
 32 652.665039062 31.6669921875 653.33203125 31 653.999023438 c 0
 31 667.999023438 36.3330078125 680.33203125 47 690.999023438 c 0
 57.6669921875 701.666015625 73.333984375 707.333007812 94.0009765625 708 c 0
 152.000976562 709.333007812 207.000976562 710 259.000976562 710 c 0
 363.000976562 710 448.333984375 707 515.000976562 701 c 0
 530.333984375 699.666992188 542.666992188 695.333984375 552 688.000976562 c 0
 564.666992188 678.66796875 571.666992188 665.334960938 573 648.001953125 c 0
 573 633.334960938 568.666992188 619.66796875 560 607.000976562 c 0
 555.333007812 599.66796875 548.333007812 594.000976562 539 590.000976562 c 0
 533.666992188 587.333984375 527.666992188 586.000976562 521 586.000976562 c 0
 517.666992188 586.000976562 514 586.66796875 510 588.000976562 c 0
 489.333007812 591.333984375 457 594.000976562 413 596.000976562 c 1xf0
 413 579.333984375 415.333007812 521.000976562 420 421.000976562 c 0
 421.06640625 399.131835938 421.599609375 380.036132812 421.599609375 363.713867188 c 0
 421.599609375 359.63671875 421.56640625 355.732421875 421.5 352.000976562 c 0
 421.166992188 333.333984375 421 321.666992188 421 317 c 0
 421 275 420 241.666992188 418 217 c 0xe8
EndSplineSet
Validated: 1
EndChar

StartChar: K
Encoding: 75 75 43
Width: 590
GlyphClass: 2
Flags: W
HStem: -22 21G<87.3335 96 511.155 514.004> 694.065 20G<76.6699 85.1362 475.667 480.333>
VStem: 31.001 116.999<107.028 271.001 452.999 540.271 541.723 700.529>
LayerCount: 2
Fore
SplineSet
88 -22 m 0
 86.6669921875 -22 85.3349609375 -21.666015625 84.001953125 -20.9990234375 c 0
 67.3349609375 -20.9990234375 53.66796875 -16.666015625 43.0009765625 -7.9990234375 c 0
 33.0009765625 0.0009765625 28.0009765625 10.66796875 28.0009765625 24.0009765625 c 0
 28.0009765625 26.66796875 28.333984375 29.3349609375 29.0009765625 32.001953125 c 0
 30.333984375 53.3349609375 31.0009765625 88.66796875 31.0009765625 138.000976562 c 0
 31.0009765625 233.333984375 29.0009765625 338.666992188 25.0009765625 454 c 0
 23.66796875 496.666992188 23.0009765625 525.666992188 23.0009765625 541 c 0
 23.0009765625 556.333007812 23.66796875 578 25.0009765625 606 c 0
 26.333984375 634.666992188 27.0009765625 652.666992188 27.0009765625 660 c 1
 27.66796875 677.333007812 33.66796875 691 45.0009765625 701 c 0
 55.578125 709.7109375 68.7685546875 714.065429688 84.5712890625 714.065429688 c 0
 85.701171875 714.065429688 86.84375 714.043945312 88 713.999023438 c 2
 91 713.999023438 l 2
 107 713.999023438 121 710.33203125 133 702.999023438 c 0
 145.698242188 694.745117188 152.046875 682.258789062 152.046875 665.540039062 c 0
 152.046875 651.19921875 151.41015625 618.120117188 149.999023438 567.999023438 c 0
 148.666015625 521.33203125 147.666015625 482.999023438 146.999023438 452.999023438 c 1
 171.666015625 472.999023438 206.999023438 501.666015625 252.999023438 538.999023438 c 0
 351.666015625 627.666015625 409.999023438 679.333007812 427.999023438 694 c 0
 439.33203125 702.666992188 450.33203125 708.666992188 460.999023438 712 c 0
 467.666015625 714 473.333007812 715 478 715 c 0
 482.666992188 715 487 714.666992188 491 714 c 0
 499.666992188 712 507.333984375 708 514.000976562 702 c 0
 523.333984375 694 528.000976562 685.333007812 528.000976562 676 c 0
 528.000976562 658 520.66796875 638.666992188 506.000976562 618 c 0
 496.000976562 605.333007812 460.000976562 569 398.000976562 509 c 1
 334.000976562 453 277.66796875 404.333007812 229.000976562 363 c 1
 254.333984375 339 294.666992188 303.333007812 350 256 c 0
 405.333007812 211.333007812 453.333007812 171 494 135 c 0
 516.666992188 113 533.333984375 95.6669921875 544.000976562 83 c 0
 555.333984375 67.6669921875 562.000976562 57 564.000976562 51 c 0
 566.66796875 42.3330078125 567.66796875 34 567.000976562 26 c 0
 567.000976562 20.6669921875 566.000976562 15.333984375 564.000976562 10.0009765625 c 0
 559.333984375 0.66796875 551.666992188 -6.6650390625 541 -11.998046875 c 0
 526.455078125 -18.05859375 516.59375 -21.0888671875 511.4140625 -21.0888671875 c 0
 510.895507812 -21.0888671875 510.424804688 -21.05859375 510 -20.998046875 c 2
 509 -20.998046875 l 2
 491 -20.998046875 474 -12.6650390625 458 4.001953125 c 0
 451.333007812 12.001953125 426 35.001953125 382 73.001953125 c 0
 338 110.334960938 290 151.66796875 238 197.000976562 c 0
 200.666992188 226.333984375 170.666992188 251.000976562 148 271.000976562 c 1
 157 25.0009765625 l 2
 155 10.333984375 146.333007812 -1.3330078125 131 -10 c 0
 118.333007812 -18 104 -22 88 -22 c 0
EndSplineSet
Validated: 1
EndChar

StartChar: L
Encoding: 76 76 44
Width: 590
GlyphClass: 2
Flags: W
HStem: -14.999 116.996<151.011 151.996 152.996 435.635>
VStem: 22.999 127.996<95.9971 265.875> 49.998 127.048<172.937 688.982>
LayerCount: 2
Fore
SplineSet
158 209 m 0xa0
 154 161 151.662109375 123.330078125 150.995117188 95.9970703125 c 1
 151.328125 99.9970703125 151.662109375 101.997070312 151.99609375 101.997070312 c 0
 152.99609375 95.9970703125 l 1
 210.329101562 95.9970703125 277.329101562 99.330078125 353.99609375 105.997070312 c 0
 429.329101562 112.6640625 478.99609375 119.331054688 502.99609375 125.998046875 c 0
 506.73046875 127.064453125 510.46484375 127.59765625 514.198242188 127.59765625 c 0
 516.997070312 127.498046875 l 0
 521.6640625 127.165039062 526.331054688 125.998046875 530.998046875 123.998046875 c 0
 539.665039062 120.665039062 546.998046875 115.33203125 552.998046875 107.999023438 c 0
 557.665039062 101.33203125 560.998046875 94.33203125 562.998046875 86.9990234375 c 0
 565.665039062 78.9990234375 566.998046875 71.9990234375 566.998046875 65.9990234375 c 0
 566.998046875 50.666015625 562.998046875 38.3330078125 554.998046875 29 c 0
 546.998046875 19.6669921875 533.331054688 13.333984375 513.998046875 10.0009765625 c 0
 467.998046875 1.333984375 394.831054688 -4.9990234375 294.498046875 -8.9990234375 c 0
 194.165039062 -12.9990234375 122.33203125 -14.9990234375 78.9990234375 -14.9990234375 c 0
 62.33203125 -14.9990234375 48.33203125 -9.33203125 36.9990234375 2.0009765625 c 0
 27.6240234375 11.3759765625 22.9365234375 23.38671875 22.9365234375 38.03515625 c 0
 22.9365234375 39.01171875 22.95703125 40.0009765625 22.9990234375 41.0009765625 c 2
 22.9990234375 50.0009765625 l 2xc0
 22.9990234375 54.0009765625 26.83203125 90.333984375 34.4990234375 159.000976562 c 0
 42.166015625 227.66796875 47.666015625 293.66796875 50.9990234375 357.000976562 c 0
 51.8876953125 369.88671875 52.33203125 384.697265625 52.33203125 401.432617188 c 0
 52.33203125 409.806640625 52.220703125 418.663085938 51.998046875 428.000976562 c 0
 51.998046875 452.66796875 51.3310546875 523.66796875 49.998046875 641.000976562 c 2
 49.998046875 642.000976562 l 2
 50.6650390625 662.66796875 56.83203125 678.500976562 68.4990234375 689.500976562 c 0
 80.166015625 700.500976562 94.3330078125 706.000976562 111 706.000976562 c 2
 114 706.000976562 l 2
 130 706.000976562 144.333007812 701.333984375 157 692.000976562 c 0
 170.36328125 681.819335938 177.045898438 667.081054688 177.045898438 647.788085938 c 0
 177.045898438 647 177.036132812 618.723632812 176 569 c 0
 174.666992188 525.666992188 173 485 171 447 c 0
 169 405 167.333007812 363 166 321 c 0
 164.666992188 294.333007812 162 257 158 209 c 0xa0
EndSplineSet
Validated: 1
EndChar

StartChar: M
Encoding: 77 77 45
Width: 590
GlyphClass: 2
Flags: W
HStem: -10.001 21G<49.3296 62.3296 278 309>
VStem: 4.99609 108<16.5645 315.532>
LayerCount: 2
Fore
SplineSet
112.99609375 63.9990234375 m 2
 112.99609375 52.9990234375 l 2
 112.99609375 34.9990234375 107.663085938 19.9990234375 96.99609375 7.9990234375 c 0
 84.99609375 -4.0009765625 70.6630859375 -10.0009765625 53.99609375 -10.0009765625 c 2
 52.99609375 -10.0009765625 l 2
 45.6630859375 -10.0009765625 38.99609375 -8.66796875 32.99609375 -6.0009765625 c 0
 24.3291015625 -2.0009765625 17.3291015625 5.33203125 11.99609375 15.9990234375 c 0
 7.3291015625 27.9990234375 4.99609375 43.9990234375 4.99609375 63.9990234375 c 0
 4.99609375 72.666015625 5.99609375 86.9990234375 7.99609375 106.999023438 c 0
 9.99609375 126.33203125 12.3291015625 151.999023438 14.99609375 183.999023438 c 0
 18.3291015625 217.999023438 21.99609375 258.33203125 25.99609375 304.999023438 c 0
 29.99609375 352.33203125 32.99609375 389.665039062 34.99609375 416.998046875 c 0
 43.6630859375 512.998046875 51.330078125 579.331054688 57.9970703125 615.998046875 c 0
 62.6640625 639.331054688 67.6640625 655.6640625 72.9970703125 664.997070312 c 0
 80.9970703125 678.997070312 93.330078125 689.330078125 109.997070312 695.997070312 c 0
 123.997070312 701.330078125 137.997070312 703.998046875 151.997070312 703.998046875 c 2
 157.997070312 703.998046875 l 2
 174.6640625 703.998046875 188.331054688 701.6640625 198.998046875 696.997070312 c 0
 213.665039062 690.997070312 223.665039062 680.997070312 228.998046875 666.997070312 c 0
 237.665039062 637.6640625 246.998046875 589.331054688 256.998046875 521.998046875 c 0
 266.998046875 454.665039062 277.665039062 377.665039062 288.998046875 290.998046875 c 0
 291.665039062 271.665039062 293.665039062 254.33203125 294.998046875 238.999023438 c 1
 299.665039062 286.999023438 304.33203125 331.666015625 308.999023438 372.999023438 c 0
 315.666015625 428.33203125 324.666015625 483.665039062 335.999023438 538.998046875 c 0
 347.33203125 594.331054688 356.999023438 636.997070312 364.999023438 666.997070312 c 0
 368.33203125 676.997070312 375.999023438 685.331054688 387.999023438 691.998046875 c 0
 398.666015625 697.998046875 409.999023438 701.665039062 421.999023438 702.998046875 c 0
 429.33203125 704.331054688 435.499023438 704.831054688 440.499023438 704.498046875 c 0
 445.499023438 704.165039062 449.666015625 703.998046875 452.999023438 703.998046875 c 2
 455.999023438 703.998046875 l 1
 471.499023438 703.998046875 l 2
 475.83203125 703.998046875 481.665039062 702.998046875 488.998046875 700.998046875 c 0
 496.331054688 699.665039062 502.498046875 697.665039062 507.498046875 694.998046875 c 0
 512.498046875 692.331054688 517.331054688 688.331054688 521.998046875 682.998046875 c 0
 526.665039062 676.998046875 529.665039062 669.998046875 530.998046875 661.998046875 c 0
 533.665039062 641.998046875 541.33203125 544.998046875 553.999023438 370.998046875 c 0
 566.666015625 197.665039062 575.666015625 99.6650390625 580.999023438 76.998046875 c 0
 583.666015625 63.6650390625 584.999023438 51.33203125 584.999023438 39.9990234375 c 0
 584.999023438 30.666015625 582.999023438 22.666015625 578.999023438 15.9990234375 c 0
 573.666015625 6.666015625 564.666015625 -0.0009765625 551.999023438 -4.0009765625 c 0
 544.666015625 -6.0009765625 536.999023438 -7.16796875 528.999023438 -7.5009765625 c 0
 520.999023438 -7.833984375 512.666015625 -6.0009765625 503.999023438 -2.0009765625 c 0
 488.666015625 4.666015625 477.333007812 18.3330078125 470 39 c 0
 456.666992188 79 444.666992188 234 434 504 c 1
 425.333007812 452.666992188 419.333007812 404 416 358 c 0
 409.333007812 282 400.333007812 210 389 142 c 0
 377.666992188 74 368.666992188 32.3330078125 362 17 c 0
 352 1 328 -7 290 -7 c 2
 285 -7 l 2
 271 -7 258.666992188 -5 248 -1 c 0
 235.333007812 3.6669921875 227.333007812 10.333984375 224 19.0009765625 c 0
 215.333007812 51.0009765625 201 124.000976562 181 238.000976562 c 0
 167.666992188 316.000976562 155 391.66796875 143 465.000976562 c 1
 141.666992188 451.66796875 140 427.66796875 138 393.000976562 c 2
 134 340.000976562 l 1
 128 253.000976562 l 2
 126 225.66796875 123.666992188 197.000976562 121 167.000976562 c 0
 119 144.333984375 116.666992188 120.666992188 114 96 c 0
 113.333007812 82 112.99609375 71.33203125 112.99609375 63.9990234375 c 2
EndSplineSet
Validated: 1
EndChar

StartChar: N
Encoding: 78 78 46
Width: 590
GlyphClass: 2
Flags: W
HStem: -11.998 21G<64.6665 83 468.667 496.667>
VStem: 24 108<6.53685 180.455> 32 107<79.7041 486> 458.333 106.665<187.325 656.813>
LayerCount: 2
Fore
SplineSet
137 486 m 1xb0
 138.333007812 456 139 431.002929688 139 411.002929688 c 0xb0
 139 389.669921875 138.666992188 359.669921875 138 321.002929688 c 0
 137.333007812 283.669921875 136.333007812 237.669921875 135 183.002929688 c 0
 133 128.3359375 132 93.6689453125 132 79.001953125 c 2
 132 52.001953125 l 1
 132 44.001953125 l 2
 132 26.001953125 126.666992188 12.001953125 116 2.001953125 c 0
 104.666992188 -7.3310546875 91 -11.998046875 75 -11.998046875 c 0
 54.3330078125 -11.998046875 40.3330078125 -5.998046875 33 6.001953125 c 0
 27 17.3349609375 24 33.66796875 24 55.0009765625 c 0xd0
 24 68.333984375 25 120.000976562 27 210.000976562 c 0
 30.3330078125 348.66796875 32 444.000976562 32 496.000976562 c 0
 32 547.333984375 31.3330078125 594.666992188 30 638 c 2
 30 647 l 2
 30 657 31.6669921875 666 35 674 c 0
 40.3330078125 683.333007812 47.666015625 690 56.9990234375 694 c 0
 70.33203125 701.333007812 85.33203125 705 101.999023438 705 c 0
 105.33203125 705 108.999023438 704.666992188 112.999023438 704 c 0
 127.666015625 704 140.333007812 701.666992188 151 697 c 0
 165.666992188 691 176 681 182 667 c 0
 197.333007812 624.333007812 239 545.333007812 307 430 c 0
 365 332.666992188 415 251.333984375 457 186.000976562 c 1
 457.888671875 224.213867188 458.333007812 270.274414062 458.333007812 324.18359375 c 0
 458.333007812 351.158203125 458.221679688 380.096679688 457.999023438 411.000976562 c 0
 456.666015625 529.000976562 453.666015625 607.000976562 448.999023438 645.000976562 c 0
 448.33203125 649.000976562 447.999023438 653.000976562 447.999023438 657.000976562 c 0
 447.999023438 669.000976562 452.33203125 679.66796875 460.999023438 689.000976562 c 0
 471.666015625 699.66796875 485.666015625 705.000976562 502.999023438 705.000976562 c 0
 518.999023438 705.000976562 531.999023438 702.333984375 541.999023438 697.000976562 c 0
 547.33203125 694.333984375 550.999023438 690.333984375 552.999023438 685.000976562 c 0
 554.999023438 679.66796875 556.666015625 675.000976562 557.999023438 671.000976562 c 0
 559.33203125 666.333984375 560.665039062 659.333984375 561.998046875 650.000976562 c 0
 563.998046875 638.66796875 564.998046875 585.334960938 564.998046875 490.001953125 c 2
 564.998046875 448.001953125 l 2
 564.998046875 364.668945312 563.998046875 278.668945312 561.998046875 190.001953125 c 0
 560.665039062 132.668945312 558.33203125 90.001953125 554.999023438 62.001953125 c 0
 552.33203125 35.3349609375 549.33203125 18.3349609375 545.999023438 11.001953125 c 0
 536.666015625 -4.998046875 514.333007812 -13.3310546875 479 -13.998046875 c 2
 475 -13.998046875 l 2
 462.333007812 -13.998046875 451 -11.6650390625 441 -6.998046875 c 0
 429 -1.6650390625 421 5.001953125 417 13.001953125 c 0
 410.333007812 26.3349609375 393 55.66796875 365 101.000976562 c 0
 335.666992188 148.333984375 306.666992188 193.666992188 278 237 c 0
 248 286.333007812 216.333007812 341.333007812 183 402 c 0
 165 432 149.666992188 460 137 486 c 1xb0
EndSplineSet
Validated: 1
EndChar

StartChar: O
Encoding: 79 79 47
Width: 590
GlyphClass: 2
Flags: W
HStem: -23.9951 108<200.632 353.123> 612.006 105.995<235.528 377.954>
VStem: 26.001 120.999<154.456 486.5> 444.5 119.562<179.429 536.395>
LayerCount: 2
Fore
SplineSet
217 94.005859375 m 0
 229 87.3388671875 242.666992188 84.0048828125 258 84.0048828125 c 0
 296 84.0048828125 329.666992188 92.337890625 359 109.004882812 c 0
 374.333007812 117.004882812 388 128.171875 400 142.504882812 c 0
 412 156.837890625 421.333007812 173.337890625 428 192.004882812 c 0
 430.666992188 199.337890625 433.5 217.837890625 436.5 247.504882812 c 0
 439.5 277.171875 442 312.671875 444 354.004882812 c 0
 444.333984375 360.004882812 444.5 366.004882812 444.5 372.004882812 c 0
 444.5 378.004882812 444.333984375 384.004882812 444 390.004882812 c 0
 444 418.671875 442.666992188 447.338867188 440 476.005859375 c 0
 436 515.338867188 421.666992188 548.005859375 397 574.005859375 c 0
 373 599.338867188 343.5 612.005859375 308.5 612.005859375 c 0
 273.5 612.005859375 244 600.672851562 220 578.005859375 c 0
 195.333007812 554.005859375 177.333007812 520.672851562 166 478.005859375 c 0
 153.333007812 430.005859375 147 375.005859375 147 313.005859375 c 0
 147 274.338867188 149 240.338867188 153 211.005859375 c 0
 155.666992188 194.338867188 160 177.838867188 166 161.505859375 c 0
 172 145.172851562 179 131.505859375 187 120.505859375 c 0
 195 109.505859375 205 100.672851562 217 94.005859375 c 0
559 480 m 0
 562.375 438.375 564.0625 397.172851562 564.0625 356.392578125 c 0
 564.0625 324.67578125 563.041992188 293.213867188 561 262.005859375 c 0
 558.333007812 222.672851562 553.666015625 192.33984375 546.999023438 171.006835938 c 0
 538.33203125 139.673828125 527.33203125 112.673828125 513.999023438 90.0068359375 c 0
 500.666015625 67.33984375 485.833007812 48.6728515625 469.5 34.005859375 c 0
 453.166992188 19.3388671875 433.333984375 7.671875 410.000976562 -0.9951171875 c 0
 386.66796875 -9.662109375 363.16796875 -15.662109375 339.500976562 -18.9951171875 c 0
 315.833984375 -22.328125 288.666992188 -23.9951171875 258 -23.9951171875 c 0
 210.666992188 -23.328125 168.333984375 -10.6611328125 131.000976562 14.005859375 c 0
 96.333984375 39.3388671875 70.0009765625 72.671875 52.0009765625 114.004882812 c 0
 34.66796875 154.004882812 26.0009765625 197.337890625 26.0009765625 244.004882812 c 2
 26.0009765625 249.004882812 l 1
 26.0009765625 266.004882812 l 2
 26.0009765625 295.337890625 26.16796875 318.670898438 26.5009765625 336.00390625 c 0
 26.833984375 353.336914062 28.0009765625 376.669921875 30.0009765625 406.002929688 c 0
 34.0009765625 463.3359375 45.66796875 516.668945312 65.0009765625 566.001953125 c 1
 65.0009765625 567.000976562 l 1
 83.0009765625 611.66796875 114.333984375 648.000976562 159.000976562 676.000976562 c 0
 207.000976562 704.000976562 261.333984375 718.000976562 322.000976562 718.000976562 c 0
 352.66796875 718.000976562 382.000976562 712.333984375 410.000976562 701.000976562 c 0
 438.000976562 690.333984375 462.333984375 675.166992188 483.000976562 655.5 c 0
 503.66796875 635.833007812 520.66796875 611 534.000976562 581 c 0
 547.333984375 551 555.666992188 517.333007812 559 480 c 0
EndSplineSet
Validated: 1
EndChar

StartChar: P
Encoding: 80 80 48
Width: 590
GlyphClass: 2
Flags: W
HStem: -18.9971 21G<102.67 119.67> 218 105.918<165.506 368.255> 605.004 105.999<169.133 385.458>
VStem: 50.0039 129.999<-2.55739 224.218> 50.0039 113.996<32.1765 93.9443 96.7622 226 328.472 599.255> 439.005 115.995<391.836 558.239>
LayerCount: 2
Fore
SplineSet
173 109 m 0xec
 177.666992188 61 180.002929688 35.3369140625 180.002929688 32.00390625 c 0
 180.002929688 15.3369140625 171.669921875 2.669921875 155.002929688 -5.9970703125 c 0
 141.669921875 -14.6640625 127.336914062 -18.9970703125 112.00390625 -18.9970703125 c 0
 93.3369140625 -18.9970703125 78.00390625 -13.6640625 66.00390625 -2.9970703125 c 0
 55.3369140625 6.3359375 50.00390625 18.6689453125 50.00390625 34.001953125 c 0xf4
 50.00390625 36.6689453125 50.3369140625 41.001953125 51.00390625 47.001953125 c 0
 51.6708984375 56.3349609375 52.00390625 72.3349609375 52.00390625 95.001953125 c 0
 52.00390625 132.334960938 51.3369140625 183.66796875 50.00390625 249.000976562 c 0
 47.3369140625 359.66796875 45.669921875 425.334960938 45.0029296875 446.001953125 c 0
 44.7802734375 463.56640625 44.6689453125 481.538085938 44.6689453125 499.91796875 c 0
 44.6689453125 536.650390625 45.11328125 575.01171875 46.001953125 615.001953125 c 1
 45.3349609375 609.668945312 44.66796875 610.3359375 44.0009765625 617.002929688 c 1
 44.0009765625 611.669921875 43.66796875 611.669921875 43.0009765625 617.002929688 c 0
 37.0009765625 625.669921875 34.333984375 634.336914062 35.0009765625 643.00390625 c 2
 35.0009765625 651.00390625 l 2
 37.0009765625 661.00390625 41.66796875 670.00390625 49.0009765625 678.00390625 c 0
 56.333984375 686.00390625 64.6669921875 691.00390625 74 693.00390625 c 0
 98.6669921875 698.336914062 135.333984375 702.669921875 184.000976562 706.002929688 c 0
 235.333984375 709.3359375 271.333984375 711.002929688 292.000976562 711.002929688 c 0
 344.000976562 711.002929688 390.333984375 703.002929688 431.000976562 687.002929688 c 0
 468.333984375 670.3359375 498.166992188 645.168945312 520.5 611.501953125 c 0
 542.833007812 577.834960938 554.333007812 538.001953125 555 492.001953125 c 1
 555 454.668945312 548.666992188 419.168945312 536 385.501953125 c 0
 523.333007812 351.834960938 506 322.66796875 484 298.000976562 c 0
 462 273.333984375 433.666992188 253.666992188 399 239 c 0
 365.204101562 224.970703125 328.967773438 217.956054688 290.291992188 217.956054688 c 0
 288.533203125 217.956054688 286.768554688 217.970703125 285 218 c 0
 236.333007812 218 196 220.666992188 164 226 c 1
 166 188 169 149 173 109 c 0xec
161.002929688 334.00390625 m 1
 184.836914062 327.28125 212.317382812 323.91796875 243.435546875 323.91796875 c 0
 246.263671875 323.91796875 249.12109375 323.9453125 252.008789062 324.000976562 c 0
 272.008789062 324.000976562 290.341796875 325.333984375 307.008789062 328.000976562 c 0
 323.67578125 330.66796875 338.008789062 334.000976562 350.008789062 338.000976562 c 0
 362.008789062 342.000976562 372.508789062 347.333984375 381.508789062 354.000976562 c 0
 390.508789062 360.66796875 398.17578125 367.334960938 404.508789062 374.001953125 c 0
 410.841796875 380.668945312 416.174804688 388.501953125 420.5078125 397.501953125 c 0
 424.840820312 406.501953125 428.173828125 414.668945312 430.506835938 422.001953125 c 0
 432.83984375 429.334960938 434.672851562 438.16796875 436.005859375 448.500976562 c 0
 437.338867188 458.833984375 438.171875 467.333984375 438.504882812 474.000976562 c 0
 438.837890625 480.66796875 439.004882812 488.334960938 439.004882812 497.001953125 c 0
 439.004882812 513.668945312 435.671875 528.3359375 429.004882812 541.002929688 c 0
 422.337890625 553.669921875 414.004882812 563.836914062 404.004882812 571.50390625 c 0
 394.004882812 579.170898438 382.171875 585.670898438 368.504882812 591.00390625 c 0
 354.837890625 596.336914062 341.670898438 600.00390625 329.00390625 602.00390625 c 0
 316.336914062 604.00390625 304.00390625 605.00390625 292.00390625 605.00390625 c 0
 268.670898438 605.00390625 227.00390625 602.670898438 167.00390625 598.00390625 c 1
 164.336914062 518.00390625 162.669921875 464.336914062 162.002929688 437.00390625 c 0
 161.3359375 400.336914062 161.002929688 366.00390625 161.002929688 334.00390625 c 1
EndSplineSet
Validated: 1
EndChar

StartChar: Q
Encoding: 81 81 49
Width: 590
GlyphClass: 2
Flags: W
HStem: -24 21G<264.998 291.998> 612 106<231.16 374.666>
VStem: 20.9971 120.952<161.037 483.098> 232.997 106<138.764 207.502> 442.997 118.002<137.38 526.522>
LayerCount: 2
Fore
SplineSet
539 -204 m 0
 530.333007812 -209.333007812 520.998046875 -212 510.998046875 -212 c 0
 506.331054688 -212 500.998046875 -211.333007812 494.998046875 -210 c 0
 479.665039062 -206 467.33203125 -197.666992188 457.999023438 -185 c 0
 447.33203125 -172.333007812 430.165039062 -150 406.498046875 -118 c 0
 382.831054688 -86 359.998046875 -53.6669921875 337.998046875 -21 c 1
 320.665039062 -23 301.998046875 -24 281.998046875 -24 c 0
 247.998046875 -24 216.665039062 -19 187.998046875 -9 c 0
 159.331054688 0.3330078125 135.331054688 13.666015625 115.998046875 30.9990234375 c 0
 96.6650390625 48.33203125 79.998046875 68.33203125 65.998046875 90.9990234375 c 0
 39.3310546875 134.999023438 24.6640625 187.666015625 21.9970703125 248.999023438 c 0
 21.330078125 266.33203125 20.9970703125 282.999023438 20.9970703125 298.999023438 c 0
 20.9970703125 403.666015625 34.6640625 491.333007812 61.9970703125 562 c 1
 79.9970703125 606.666992188 111.6640625 644 156.997070312 674 c 0
 204.997070312 703.333007812 258.6640625 718 317.997070312 718 c 0
 381.330078125 718 434.330078125 699 476.997070312 661 c 0
 497.6640625 642.333007812 514.831054688 617.5 528.498046875 586.5 c 0
 542.165039062 555.5 551.33203125 520 555.999023438 480 c 0
 559.427734375 449.14453125 561.141601562 413.879882812 561.141601562 374.208984375 c 0
 561.141601562 367.594726562 561.094726562 360.858398438 560.999023438 354 c 0
 560.999023438 269.333007812 556.666015625 206.333007812 547.999023438 165 c 0
 533.999023438 97 502.999023438 47 454.999023438 15 c 1
 476.33203125 -14.3330078125 502.33203125 -48 532.999023438 -86 c 0
 551.666015625 -109.333007812 560.999023438 -121.333007812 560.999023438 -122 c 0
 566.33203125 -130 568.999023438 -138.333007812 568.999023438 -147 c 0
 568.999023438 -149.666992188 568.666015625 -152 567.999023438 -154 c 0
 566.666015625 -164 563.333007812 -173.666992188 558 -183 c 0
 552 -192.333007812 545.666992188 -199.333007812 539 -204 c 0
243.998046875 114 m 0
 236.665039062 131.333007812 232.997070312 147 232.997070312 161 c 0
 232.997070312 182.333007812 241.6640625 199 258.997070312 211 c 0
 268.997070312 218.333007812 279.6640625 222.333007812 290.997070312 223 c 0
 300.330078125 223 309.330078125 220 317.997070312 214 c 0
 326.6640625 208 333.6640625 198.666992188 338.997070312 186 c 0
 350.330078125 156.666992188 366.330078125 125 386.997070312 91 c 1
 408.997070312 108.333007812 423.997070312 134 431.997070312 168 c 0
 433.997070312 177.333007812 436.1640625 197 438.497070312 227 c 0
 440.830078125 257 442.330078125 294.666992188 442.997070312 340 c 2
 442.997070312 356 l 2
 442.997070312 395.333007812 440.6640625 433 435.997070312 469 c 0
 429.997070312 513.666992188 415.330078125 549 391.997070312 575 c 0
 369.330078125 599.666992188 340.163085938 612 304.49609375 612 c 0
 268.829101562 612 238.99609375 600.333007812 214.99609375 577 c 0
 190.329101562 553 172.329101562 518.666992188 160.99609375 474 c 0
 148.297851562 425.112304688 141.94921875 374.108398438 141.94921875 320.98828125 c 0
 141.94921875 318.331054688 141.96484375 315.66796875 141.997070312 313 c 0
 141.997070312 293 142.6640625 272.333007812 143.997070312 251 c 1
 146.6640625 214.333007812 154.331054688 181.5 166.998046875 152.5 c 0
 179.665039062 123.5 195.998046875 100.666992188 215.998046875 84 c 0
 232.665039062 70.6669921875 250.998046875 63 270.998046875 61 c 1
 258.998046875 82.3330078125 249.998046875 100 243.998046875 114 c 0
EndSplineSet
Validated: 1
EndChar

StartChar: R
Encoding: 82 82 50
Width: 590
GlyphClass: 2
Flags: W
HStem: -18.9961 21G<80.6675 101.001 496.001 511.667> 694.002 20G<78.3325 94.999>
VStem: 31.001 118.999<129 609.003> 31.001 107.999<34.426 251 369.005 497.376> 35.667 123.334<-2.55641 249.432> 37.5 113.501<371.653 607.007> 436.001 116.998<408.488 493.809>
LayerCount: 2
Fore
SplineSet
148.000976562 449.00390625 m 0xc6
 146.66796875 431.670898438 144.33203125 405.3359375 140.999023438 370.002929688 c 1
 146.33203125 369.3359375 153.33203125 369.002929688 161.999023438 369.002929688 c 0
 170.666015625 369.002929688 181.333007812 369.669921875 194 371.002929688 c 0
 223.333007812 372.3359375 248 373.668945312 268 375.001953125 c 0
 318.666992188 379.001953125 355.333984375 384.334960938 378.000976562 391.001953125 c 0
 390.000976562 395.001953125 400.66796875 399.668945312 410.000976562 405.001953125 c 0
 419.333984375 410.334960938 426.000976562 416.16796875 430.000976562 422.500976562 c 0
 434.000976562 428.833984375 436.000976562 436.333984375 436.000976562 445.000976562 c 0
 436.000976562 461.000976562 429.16796875 476.833984375 415.500976562 492.500976562 c 0
 401.833984375 508.16796875 384.000976562 522.334960938 362.000976562 535.001953125 c 0
 340.000976562 547.668945312 314.833984375 559.3359375 286.500976562 570.002929688 c 0
 258.16796875 580.669921875 232.334960938 589.002929688 209.001953125 595.002929688 c 0
 185.668945312 601.002929688 165.001953125 605.669921875 147.001953125 609.002929688 c 1
 148.334960938 566.3359375 149.66796875 529.3359375 151.000976562 498.002929688 c 0
 151.000976562 484.669921875 150.000976562 468.336914062 148.000976562 449.00390625 c 0xc6
150 129 m 0xe2
 156 74.3330078125 159.000976562 42.669921875 159.000976562 34.0029296875 c 0xca
 159.000976562 16.669921875 151.333984375 3.3369140625 136.000976562 -5.99609375 c 0
 123.333984375 -14.6630859375 109.000976562 -18.99609375 93.0009765625 -18.99609375 c 2
 89.0009765625 -18.99609375 l 2
 72.333984375 -18.3291015625 58.333984375 -12.99609375 47.0009765625 -2.99609375 c 0
 36.333984375 6.3369140625 31.0009765625 18.669921875 31.0009765625 34.0029296875 c 2
 31.0009765625 42.0029296875 l 2xd2
 33.66796875 75.3359375 35 103.3359375 35 126.002929688 c 0
 35 132.002929688 35.16796875 145.169921875 35.5009765625 165.502929688 c 0
 35.6123046875 172.274414062 35.6669921875 179.895507812 35.6669921875 188.3671875 c 0xca
 35.6669921875 205.334960938 35.4453125 225.712890625 35 249.502929688 c 0
 34.3330078125 285.169921875 34 307.502929688 34 316.502929688 c 0
 34 325.502929688 34.6669921875 343.3359375 36 370.002929688 c 0
 37 393.002929688 37.5 414.752929688 37.5 435.252929688 c 0xc6
 37.5 455.752929688 37 475.002929688 36 493.002929688 c 0
 35.3330078125 515.002929688 33.66796875 544.66796875 31.0009765625 582.000976562 c 0xe2
 28.333984375 619.333984375 26.9990234375 642.002929688 26.9990234375 650.002929688 c 2
 26.9990234375 655.002929688 l 2
 26.9990234375 656.3359375 26.666015625 657.668945312 25.9990234375 659.001953125 c 0
 25.9990234375 671.001953125 31.4990234375 683.168945312 42.4990234375 695.501953125 c 0
 53.4990234375 707.834960938 68.666015625 714.001953125 87.9990234375 714.001953125 c 0
 101.999023438 714.001953125 113.666015625 711.334960938 122.999023438 706.001953125 c 1
 180.999023438 703.334960938 234.999023438 696.16796875 284.999023438 684.500976562 c 0
 334.999023438 672.833984375 376.999023438 658.333984375 410.999023438 641.000976562 c 0
 443.666015625 623.66796875 470.666015625 604.000976562 491.999023438 582.000976562 c 0
 513.33203125 560.000976562 528.83203125 537.66796875 538.499023438 515.000976562 c 0
 548.166015625 492.333984375 552.999023438 469.333984375 552.999023438 446.000976562 c 0
 552.999023438 394.000976562 532.33203125 355.000976562 490.999023438 329.000976562 c 0
 477.666015625 321.000976562 463.333007812 314.000976562 448 308.000976562 c 0
 432 302.66796875 413.166992188 297.834960938 391.5 293.501953125 c 0
 369.833007812 289.168945312 351.333007812 286.168945312 336 284.501953125 c 0
 320.666992188 282.834960938 308 281.66796875 298 281.000976562 c 1
 356.666992188 251.000976562 409 217.333984375 455 180.000976562 c 0
 507.666992188 134.66796875 542.333984375 95.0009765625 559.000976562 61.0009765625 c 0
 561.66796875 53.66796875 563.000976562 46.66796875 563.000976562 40.0009765625 c 0
 563.000976562 33.333984375 562.000976562 27.0009765625 560.000976562 21.0009765625 c 0
 555.333984375 9.0009765625 547.666992188 -0.666015625 537 -7.9990234375 c 0
 527.666992188 -14.666015625 517.333984375 -17.9990234375 506.000976562 -17.9990234375 c 0
 486.000976562 -17.9990234375 468.66796875 -7.9990234375 454.000976562 12.0009765625 c 0
 443.333984375 25.333984375 427.500976562 42.1669921875 406.500976562 62.5 c 0
 385.500976562 82.8330078125 360.000976562 105.333007812 330.000976562 130 c 0
 300.000976562 154.666992188 266.000976562 179 228.000976562 203 c 0
 197.333984375 222.333007812 167.666992188 238.333007812 139 251 c 1xd2
 141 217.666992188 144.666992188 177 150 129 c 0xe2
EndSplineSet
Validated: 1
EndChar

StartChar: S
Encoding: 83 83 51
Width: 590
GlyphClass: 2
Flags: W
HStem: -29 108.995<169.616 350.45> 620.998 102.998<245.813 510.845>
VStem: 19.9199 10.0801<80.1222 81> 50.0039 127.998<475.646 569.182> 446.005 123.995<155.55 280.464>
LayerCount: 2
Fore
SplineSet
30 73 m 1
 23.2783203125 87.0537109375 19.919921875 99.705078125 19.919921875 110.958984375 c 0
 19.919921875 115.76953125 20.177734375 120.87109375 21.0029296875 124.99609375 c 0
 25.0029296875 140.329101562 34.3359375 151.662109375 49.0029296875 158.995117188 c 0
 57.669921875 162.995117188 64.3369140625 165.495117188 69.00390625 166.495117188 c 0
 73.6708984375 167.495117188 77.837890625 167.995117188 81.5048828125 167.995117188 c 2
 90.0048828125 167.995117188 l 2
 98.0048828125 167.328125 105.504882812 163.995117188 112.504882812 157.995117188 c 0
 119.504882812 151.995117188 126.337890625 144.328125 133.004882812 134.995117188 c 0
 144.337890625 118.328125 160.504882812 104.995117188 181.504882812 94.9951171875 c 0
 202.504882812 84.9951171875 226.337890625 79.9951171875 253.004882812 79.9951171875 c 0
 269.004882812 79.9951171875 286.004882812 81.9951171875 304.004882812 85.9951171875 c 0
 322.004882812 89.9951171875 339.504882812 96.162109375 356.504882812 104.495117188 c 0
 373.504882812 112.828125 388.671875 122.328125 402.004882812 132.995117188 c 0
 415.337890625 143.662109375 426.004882812 155.995117188 434.004882812 169.995117188 c 0
 442.004882812 183.995117188 446.004882812 198.995117188 446.004882812 214.995117188 c 0
 446.004882812 223.662109375 445.337890625 231.495117188 444.004882812 238.495117188 c 0
 442.671875 245.495117188 440.171875 252.995117188 436.504882812 260.995117188 c 0
 432.837890625 268.995117188 428.004882812 276.328125 422.004882812 282.995117188 c 0
 416.004882812 289.662109375 407.337890625 296.495117188 396.004882812 303.495117188 c 0
 384.671875 310.495117188 371.171875 316.662109375 355.504882812 321.995117188 c 0
 339.837890625 327.328125 320.170898438 332.328125 296.50390625 336.995117188 c 0
 272.836914062 341.662109375 246.836914062 345.329101562 218.50390625 347.99609375 c 0
 190.170898438 350.663085938 164.670898438 356.99609375 142.00390625 366.99609375 c 0
 120.670898438 376.99609375 103.50390625 389.49609375 90.50390625 404.49609375 c 0
 77.50390625 419.49609375 67.50390625 435.329101562 60.50390625 451.99609375 c 0
 53.50390625 468.663085938 50.00390625 485.330078125 50.00390625 501.997070312 c 0
 50.00390625 525.330078125 54.1708984375 547.663085938 62.50390625 568.99609375 c 0
 70.8369140625 590.329101562 83.50390625 610.49609375 100.50390625 629.49609375 c 0
 117.50390625 648.49609375 138.336914062 664.99609375 163.00390625 678.99609375 c 0
 188.336914062 692.99609375 218.669921875 703.99609375 254.002929688 711.99609375 c 0
 289.3359375 719.99609375 327.3359375 723.99609375 368.002929688 723.99609375 c 0
 388.002929688 723.99609375 415.3359375 722.329101562 450.002929688 718.99609375 c 0
 482.002929688 715.663085938 504.3359375 711.663085938 517.002929688 706.99609375 c 0
 532.3359375 701.663085938 543.668945312 692.663085938 551.001953125 679.99609375 c 0
 556.334960938 670.663085938 559.001953125 660.330078125 559.001953125 648.997070312 c 0
 559.001953125 634.330078125 555.001953125 622.997070312 547.001953125 614.997070312 c 0
 540.334960938 608.330078125 532.334960938 604.330078125 523.001953125 602.997070312 c 0
 518.334960938 602.330078125 514.334960938 601.997070312 511.001953125 601.997070312 c 0
 507.668945312 601.997070312 504.001953125 602.330078125 500.001953125 602.997070312 c 0
 492.668945312 603.6640625 485.001953125 605.331054688 477.001953125 607.998046875 c 0
 465.668945312 610.665039062 456.668945312 612.665039062 450.001953125 613.998046875 c 0
 442.668945312 615.331054688 431.001953125 616.831054688 415.001953125 618.498046875 c 0
 399.001953125 620.165039062 380.334960938 620.998046875 359.001953125 620.998046875 c 0
 327.001953125 620.998046875 297.334960938 616.831054688 270.001953125 608.498046875 c 0
 242.668945312 600.165039062 220.501953125 588.33203125 203.501953125 572.999023438 c 0
 186.501953125 557.666015625 178.001953125 540.666015625 178.001953125 521.999023438 c 0
 178.001953125 500.666015625 188.334960938 482.666015625 209.001953125 467.999023438 c 0
 231.668945312 452.666015625 264.001953125 443.999023438 306.001953125 441.999023438 c 0
 347.334960938 439.999023438 384.334960938 434.33203125 417.001953125 424.999023438 c 0
 449.001953125 415.666015625 474.168945312 403.999023438 492.501953125 389.999023438 c 0
 510.834960938 375.999023438 526.16796875 359.499023438 538.500976562 340.499023438 c 0
 550.833984375 321.499023438 559.166992188 302.999023438 563.5 284.999023438 c 0
 567.833007812 266.999023438 570 247.666015625 570 226.999023438 c 0
 570 196.33203125 564.5 167.33203125 553.5 139.999023438 c 0
 542.5 112.666015625 527.333007812 88.8330078125 508 68.5 c 0
 488.666992188 48.1669921875 466 30.6669921875 440 16 c 0
 412 1.3330078125 382 -9.6669921875 350 -17 c 0
 317.333007812 -24.3330078125 283.666015625 -28.3330078125 248.999023438 -29 c 0
 195.666015625 -29 149.333007812 -19 110 1 c 0
 72 20.3330078125 45.6669921875 44.3330078125 31 73 c 0
 30.3330078125 81 30 81 30 73 c 1
EndSplineSet
Validated: 1
EndChar

StartChar: T
Encoding: 84 84 52
Width: 590
GlyphClass: 2
Flags: W
HStem: -13.002 21G<291.002 312.668> 591 110<373.266 555.528> 622 92<34.4407 224.029>
VStem: 228.002 135.998<346.537 596> 241.002 136.998<4.95311 342.594>
LayerCount: 2
Fore
SplineSet
351 1 m 0xc8
 337 -8.3330078125 321.334960938 -13.001953125 304.001953125 -13.001953125 c 2
 300.001953125 -13.001953125 l 2
 282.001953125 -13.001953125 267.001953125 -7.3349609375 255.001953125 3.998046875 c 0
 244.334960938 13.3310546875 239.001953125 25.998046875 239.001953125 41.998046875 c 0
 239.001953125 44.6650390625 239.334960938 48.83203125 240.001953125 54.4990234375 c 0
 240.668945312 60.166015625 241.001953125 73.3330078125 241.001953125 94 c 0xc8
 241.001953125 140 238.834960938 222.333007812 234.501953125 341 c 0
 230.168945312 459.666992188 228.001953125 544 228.001953125 594 c 2
 228.001953125 600 l 1
 142.668945312 604 93.6689453125 607 81.001953125 609 c 0
 64.3349609375 611.666992188 50.66796875 616 40.0009765625 622 c 0
 26.0009765625 630.666992188 19.0009765625 642.666992188 19.0009765625 658 c 2
 19.0009765625 661 l 2
 19.0009765625 675 24.0009765625 687.666992188 34.0009765625 699 c 0
 43.333984375 709 55.6669921875 714 71 714 c 0xb0
 75 714 79.3330078125 713.666992188 84 713 c 0
 120 707 262.666992188 703 512 701 c 0
 531.333007812 701 546 696 556 686 c 0
 566 676 571 664 571 650 c 0
 571 634.666992188 566 621 556 609 c 0
 546 597 532 591 514 591 c 0
 513.333007812 591 463.333007812 592.666992188 364 596 c 1xd0
 365.333007812 465.333007812 370 281.333007812 378 44 c 0
 376 25.3330078125 367 11 351 1 c 0xc8
EndSplineSet
Validated: 1
EndChar

StartChar: U
Encoding: 85 85 53
Width: 590
GlyphClass: 2
Flags: W
HStem: -28.9971 114.999<206.683 373.941> 689.002 20G<70.6655 88.999 510 522.333>
VStem: 14.4551 118.544<176.994 688.531> 457.499 117.501<180.084 691.435>
LayerCount: 2
Fore
SplineSet
445 17 m 0
 427 7 407.99609375 -1.6640625 387.99609375 -8.9970703125 c 0
 368.663085938 -16.330078125 349.830078125 -21.4970703125 331.497070312 -24.4970703125 c 0
 313.1640625 -27.4970703125 293.831054688 -28.9970703125 273.498046875 -28.9970703125 c 0
 253.165039062 -28.9970703125 231.665039062 -26.1640625 208.998046875 -20.4970703125 c 0
 186.331054688 -14.830078125 163.331054688 -5.330078125 139.998046875 8.0029296875 c 0
 117.998046875 21.3359375 98.3310546875 38.1689453125 80.998046875 58.501953125 c 0
 63.6650390625 78.8349609375 49.33203125 104.834960938 37.9990234375 136.501953125 c 0
 26.666015625 168.168945312 20.3330078125 203.668945312 19 243.001953125 c 0
 15.9697265625 352.708007812 14.455078125 437.065429688 14.455078125 496.07421875 c 0
 14.455078125 501.969726562 14.4697265625 507.612304688 14.5 513.001953125 c 0
 14.8330078125 572.334960938 15.666015625 615.66796875 16.9990234375 643.000976562 c 0
 17.666015625 663.66796875 23.9990234375 679.834960938 35.9990234375 691.501953125 c 0
 47.9990234375 703.168945312 62.33203125 709.001953125 78.9990234375 709.001953125 c 0
 98.9990234375 709.001953125 113.666015625 702.334960938 122.999023438 689.001953125 c 0
 129.666015625 679.001953125 132.999023438 665.334960938 132.999023438 648.001953125 c 0
 132.999023438 430.668945312 134.666015625 299.668945312 137.999023438 255.001953125 c 0
 139.33203125 236.334960938 141.83203125 219.66796875 145.499023438 205.000976562 c 0
 149.166015625 190.333984375 154.666015625 175.333984375 161.999023438 160.000976562 c 0
 169.33203125 144.66796875 178.33203125 131.834960938 188.999023438 121.501953125 c 0
 199.666015625 111.168945312 213.166015625 102.668945312 229.499023438 96.001953125 c 0
 245.83203125 89.3349609375 264.33203125 86.001953125 284.999023438 86.001953125 c 0
 332.999023438 86.001953125 371.83203125 100.168945312 401.499023438 128.501953125 c 0
 431.166015625 156.168945312 447.999023438 200.001953125 451.999023438 260.001953125 c 0
 453.999023438 287.334960938 455.666015625 318.334960938 456.999023438 353.001953125 c 0
 457.33203125 376.3359375 457.499023438 397.8359375 457.499023438 417.501953125 c 0
 457.499023438 437.168945312 457.33203125 455.001953125 456.999023438 471.001953125 c 0
 456.33203125 538.334960938 455.999023438 577.16796875 455.999023438 587.500976562 c 2
 455.999023438 634.000976562 l 2
 455.999023438 649.333984375 457.33203125 662.500976562 459.999023438 673.500976562 c 0
 462.666015625 684.500976562 467.333007812 692.66796875 474 698.000976562 c 0
 480.666992188 703.333984375 487 706.666992188 493 708 c 0
 499 709.333007812 506 710 514 710 c 0
 530.666992188 710 544.166992188 704 554.5 692 c 0
 564.833007812 680 570.333007812 664.333007812 571 645 c 0
 573.666992188 594.333007812 575 537.166015625 575 473.499023438 c 0
 575 409.83203125 573.666992188 339.33203125 571 261.999023438 c 0
 569.666992188 231.999023438 565.5 203.83203125 558.5 177.499023438 c 0
 551.5 151.166015625 542.5 128.333007812 531.5 109 c 0
 520.5 89.6669921875 507.666992188 72 493 56 c 0
 478.333007812 40 462.333007812 27 445 17 c 0
EndSplineSet
Validated: 1
EndChar

StartChar: V
Encoding: 86 86 54
Width: 590
GlyphClass: 2
Flags: W
HStem: -12 21G<293.004 310> 691.001 20G<56.002 64.002>
LayerCount: 2
Fore
SplineSet
301 -12 m 2
 293.00390625 -11.9990234375 l 2
 277.00390625 -11.9990234375 263.336914062 -9.666015625 252.00390625 -4.9990234375 c 0
 236.670898438 1.0009765625 225.670898438 11.0009765625 219.00390625 25.0009765625 c 0
 189.00390625 95.66796875 147.670898438 205.000976562 95.00390625 353.000976562 c 0
 44.3369140625 502.333984375 15.669921875 593.333984375 9.0029296875 626.000976562 c 0
 6.3359375 639.333984375 4.6689453125 651.666992188 4.001953125 663 c 0
 4.001953125 671.666992188 6.3349609375 679.666992188 11.001953125 687 c 0
 16.3349609375 695.666992188 25.001953125 702.333984375 37.001953125 707.000976562 c 0
 44.3349609375 709.66796875 52.001953125 711.000976562 60.001953125 711.000976562 c 0
 68.001953125 711.000976562 76.3349609375 709.333984375 85.001953125 706.000976562 c 0
 100.334960938 699.333984375 111.66796875 685.333984375 119.000976562 664.000976562 c 0
 123.000976562 649.333984375 156.66796875 549.000976562 220.000976562 363.000976562 c 0
 249.333984375 278.333984375 272.000976562 214.000976562 288.000976562 170.000976562 c 1
 314.000976562 240.66796875 348.000976562 335.66796875 390.000976562 455.000976562 c 2
 464.000976562 664.000976562 l 2
 472.000976562 684.66796875 484.000976562 698.334960938 500.000976562 705.001953125 c 0
 508.66796875 708.334960938 517.16796875 710.16796875 525.500976562 710.500976562 c 0
 533.833984375 710.833984375 541.666992188 709.666992188 549 707 c 0
 558.333007812 703.666992188 566.333007812 698.666992188 573 692 c 0
 579 684.666992188 583 676 585 666 c 2
 585 660 l 2
 585 648 582.333007812 635 577 621 c 0
 562.333007812 587 528 494 474 342 c 0
 416.666992188 188 380 83 364 27 c 0
 360 15.6669921875 353.666992188 6.6669921875 345 0 c 0
 333.666992188 -8 319 -12 301 -12 c 2
EndSplineSet
Validated: 1
EndChar

